{
.appVersion = "3214";
.formatVersion = 3;
axes = (
{
name = Weight;
tag = wght;
}
);
customParameters = (
{
name = "Use Typo Metrics";
value = 1;
},
{
name = fsType;
value = (
);
}
);
date = "2013-12-31 17:20:12 +0000";
familyName = "Pontano Sans";
featurePrefixes = (
{
automatic = 1;
code = "languagesystem DFLT dflt;

languagesystem latn dflt;
languagesystem latn AZE;
languagesystem latn CRT;
languagesystem latn KAZ;
languagesystem latn TAT;
languagesystem latn TRK;
languagesystem latn ROM;
languagesystem latn MOL;
languagesystem latn CAT;
";
name = Languagesystems;
}
);
features = (
{
automatic = 1;
code = "feature locl;
feature subs;
feature sinf;
feature sups;
feature numr;
feature dnom;
feature frac;
feature ordn;
feature case;
";
tag = aalt;
},
{
code = "lookup ccmp_Other_1 {
	@CombiningTopAccents = [acutecomb brevecomb breveinvertedcomb caroncomb circumflexcomb commaturnedabovecomb dblgravecomb dieresiscomb dotaccentcomb gravecomb hungarumlautcomb macroncomb ringcomb tildecomb];
	@CombiningNonTopAccents = [cedillacomb ogonekcomb];
	sub [i j]' @CombiningTopAccents by [idotless jdotless];
	sub [i j]' @CombiningNonTopAccents @CombiningTopAccents by [idotless jdotless];
	sub iogonek' @CombiningTopAccents by idotless ogonekcomb;
} ccmp_Other_1;

lookup ccmp_latn_1 {
	sub fi by f i;
	sub fl by f l;
	sub lj by l j;
	sub Lj by L j;
	sub LJ by L J;
	sub nj by n j;
	sub Nj by N j;
	sub NJ by N J;
	sub dzcaron by d zcaron;
	sub Dzcaron by D zcaron;
	sub DZcaron by D Zcaron;
} ccmp_latn_1;

script latn;
lookup ccmp_latn_1;
";
tag = ccmp;
},
{
automatic = 1;
code = "script latn;
language AZE;
lookup locl_latn_0 {
	sub i by idotaccent;
} locl_latn_0;
language CRT;
lookup locl_latn_0;
language KAZ;
lookup locl_latn_0;
language TAT;
lookup locl_latn_0;
language TRK;
lookup locl_latn_0;

script latn;
language ROM;
lookup locl_latn_1 {
	sub Scedilla by Scommaaccent;
	sub scedilla by scommaaccent;
	sub Tcedilla by Tcommaaccent;
	sub tcedilla by tcommaaccent;
} locl_latn_1;

glyphs = (
{
glyphname = A;
kernLeft = _A_left;
kernRight = _A_right;
lastChange = "2023-02-02 13:17:07 +0000";
layers = (
{
anchors = (
{
name = bottom;
pos = (632,0);
},
{
name = ogonek;
pos = (1210,0);
},
{
name = top;
pos = (632,1464);
}
);
background = {
anchors = (
{
name = ogonek;
pos = (1134,0);
},
{
name = top;
pos = (631.5,1464);
}
);
shapes = (
{
closed = 1;
nodes = (
(204,0,l),
(327,391,l),
(923,391,l),
(1052,0,l),
(1234,0,l),
(757,1464,l),
(501,1464,l),
(29,0,l)
);
},
{
closed = 1;
nodes = (
(626,1349,l),
(882,521,l),
(367,521,l)
);
}
);
};
layerId = "8E6A00A3-5EF9-4E6D-9A7B-9C1BBC7D44AD";
shapes = (
{
closed = 1;
nodes = (
(204,0,l),
(327,391,l),
(923,391,l),
(1052,0,l),
(1234,0,l),
(757,1464,l),
(501,1464,l),
(29,0,l)
);
},
{
closed = 1;
nodes = (
(626,1349,l),
(882,521,l),
(367,521,l)
);
}
);
userData = {
com.typemytype.robofont.layerData = {
};
};
vertWidth = 0;
width = 1263;
},
{
anchors = (
{
name = bottom;
pos = (653,0);
},
{
name = ogonek;
pos = (1249,0);
},
{
name = top;
pos = (653,1464);
}
);
background = {
anchors = (
{
name = bot;
pos = (653,0);
},
{
name = ogonek;
pos = (1150,0);
},
{
name = top;
pos = (653,1464);
}
);
shapes = (
{
closed = 1;
nodes = (
(259,0,l),
(373,376,l),
(914,376,l),
(1035,0,l),
(1278,0,l),
(816,1464,l),
(480,1464,l),
(28,0,l)
);
},
{
closed = 1;
nodes = (
(643,1313,l),
(862,545,l),
(423,545,l)
);
}
);
};
layerId = "28683A17-BAD2-44EA-B42B-E882FFDD4FE1";
shapes = (
{
closed = 1;
nodes = (
(259,0,l),
(373,376,l),
(914,376,l),
(1035,0,l),
(1278,0,l),
(816,1464,l),
(480,1464,l),
(28,0,l)
);
},
{
closed = 1;
nodes = (
(643,1313,l),
(862,545,l),
(423,545,l)
);
}
);
userData = {
com.typemytype.robofont.layerData = {
};
};
vertWidth = 0;
width = 1306;
},
{
anchors = (
{
name = bottom;
pos = (617,0);
},
{
name = ogonek;
pos = (1184,0);
},
{
name = top;
pos = (617,1464);
}
);
background = {
anchors = (
{
name = ogonek;
pos = (1123,0);
},
{
name = top;
pos = (617,1464);
}
);
shapes = (
{
closed = 1;
nodes = (
(168,0,l),
(297,401,l),
(928,401,l),
(1063,0,l),
(1205,0,l),
(717,1464,l),
(516,1464,l),
(29,0,l)
);
},
{
closed = 1;
nodes = (
(615,1373,l),
(896,505,l),
(330,505,l)
);
}
);
};
layerId = "E322F6D1-BA90-436B-BB35-51D9BD3EA9D1";
shapes = (
{
closed = 1;
nodes = (
(168,0,l),
(297,401,l),
(928,401,l),
(1063,0,l),
(1205,0,l),
(717,1464,l),
(516,1464,l),
(29,0,l)
);
},
{
closed = 1;
nodes = (
(615,1373,l),
(896,505,l),
(330,505,l)
);
}
);
userData = {
com.typemytype.robofont.layerData = {
b = {
anchors = (
);
components = (
);
contours = (
);
lib = {
};
name = A;
unicodes = (
);
width = 1234;
};
};
};
vertWidth = 0;
width = 1234;
}
);
unicode = 65;
},
{
glyphname = Aacute;
kernLeft = _A_left;
kernRight = _A_right;
lastChange = "2023-02-02 13:10:15 +0000";
layers = (
{
background = {
anchors = (
{
name = ogonek;
pos = (1134,0);
},
{
name = top;
pos = (631.5,1464);
}
);
shapes = (
{
closed = 1;
nodes = (
(204,0,l),
(327,391,l),
(923,391,l),
(1052,0,l),
(1234,0,l),
(757,1464,l),
(501,1464,l),
(29,0,l)
);
},
{
closed = 1;
nodes = (
(626,1349,l),
(882,521,l),
(367,521,l)
);
},
{
closed = 1;
nodes = (
(968,1911,l),
(735,1911,l),
(531,1592,l),
(644,1591,l)
);
}
);
};
layerId = "8E6A00A3-5EF9-4E6D-9A7B-9C1BBC7D44AD";
shapes = (
{
ref = A;
},
{
pos = (486,441);
ref = acutecomb;
}
);
userData = {
com.typemytype.robofont.layerData = {
};
};
width = 1263;
},
{
background = {
anchors = (
{
name = bot;
pos = (653,0);
},
{
name = ogonek;
pos = (1150,0);
},
{
name = top;
pos = (653,1464);
}
);
shapes = (
{
closed = 1;
nodes = (
(259,0,l),
(373,376,l),
(914,376,l),
(1035,0,l),
(1278,0,l),
(816,1464,l),
(480,1464,l),
(28,0,l)
);
},
{
closed = 1;
nodes = (
(643,1313,l),
(862,545,l),
(423,545,l)
);
},
{
closed = 1;
nodes = (
(688,1584,l),
(1045,1904,l),
(741,1904,l),
(539,1583,l)
);
}
);
};
layerId = "28683A17-BAD2-44EA-B42B-E882FFDD4FE1";
shapes = (
{
ref = A;
},
{
pos = (546,441);
ref = acutecomb;
}
);
userData = {
com.typemytype.robofont.layerData = {
};
};
width = 1306;
},
{
background = {
anchors = (
{
name = ogonek;
pos = (1123,0);
},
{
name = top;
pos = (617,1464);
}
);
shapes = (
{
closed = 1;
nodes = (
(168,0,l),
(297,401,l),
(928,401,l),
(1063,0,l),
(1205,0,l),
(717,1464,l),
(516,1464,l),
(29,0,l)
);
},
{
closed = 1;
nodes = (
(615,1373,l),
(896,505,l),
(330,505,l)
);
},
{
closed = 1;
nodes = (
(902,1916,l),
(716,1916,l),
(511,1597,l),
(600,1596,l)
);
}
);
};
layerId = "E322F6D1-BA90-436B-BB35-51D9BD3EA9D1";
shapes = (
{
ref = A;
},
{
pos = (428,441);
ref = acutecomb;
}
);
userData = {
com.typemytype.robofont.layerData = {
b = {
anchors = (
);
components = (
);
contours = (
);
lib = {
};
name = Aacute;
unicodes = (
);
width = 1234;
};
};
};
width = 1234;
}
);
unicode = 193;
},
{
glyphname = Abreve;
kernLeft = _A_left;
kernRight = _A_right;
lastChange = "2023-02-02 13:10:15 +0000";
layers = (
{
background = {
anchors = (
{
name = ogonek;
pos = (1134,0);
},
{
name = top;
pos = (631.5,1464);
}
);
shapes = (
{
closed = 1;
nodes = (
(204,0,l),
(327,391,l),
(923,391,l),
(1052,0,l),
(1234,0,l),
(757,1464,l),
(501,1464,l),
(29,0,l)
);
},
{
closed = 1;
nodes = (
(626,1349,l),
(882,521,l),
(367,521,l)
);
},
{
closed = 1;
nodes = (
(772,1666,o),
(902,1741,o),
(906,1929,c),
(768,1929,l),
(768,1838,o),
(727,1790,o),
(629,1790,cs),
(532,1790,o),
(491,1838,o),
(491,1929,c),
(352,1929,l),
(356,1741,o),
(486,1666,o),
(629,1666,cs)
);
}
);
};
layerId = "8E6A00A3-5EF9-4E6D-9A7B-9C1BBC7D44AD";
shapes = (
{
ref = A;
},
{
pos = (232,441);
ref = brevecomb;
}
);
userData = {
com.typemytype.robofont.layerData = {
};
};
width = 1263;
},
{
background = {
anchors = (
{
name = bot;
pos = (653,0);
},
{
name = ogonek;
pos = (1150,0);
},
{
name = top;
pos = (653,1464);
}
);
shapes = (
{
closed = 1;
nodes = (
(259,0,l),
(373,376,l),
(914,376,l),
(1035,0,l),
(1278,0,l),
(816,1464,l),
(480,1464,l),
(28,0,l)
);
},
{
closed = 1;
nodes = (
(643,1313,l),
(862,545,l),
(423,545,l)
);
},
{
closed = 1;
nodes = (
(789,1632,o),
(929,1708,o),
(933,1911,c),
(751,1911,l),
(751,1850,o),
(747,1795,o),
(653,1795,cs),
(560,1795,o),
(556,1850,o),
(556,1911,c),
(374,1911,l),
(378,1708,o),
(518,1632,o),
(653,1632,cs)
);
}
);
};
layerId = "28683A17-BAD2-44EA-B42B-E882FFDD4FE1";
shapes = (
{
ref = A;
},
{
pos = (250,441);
ref = brevecomb;
}
);
userData = {
com.typemytype.robofont.layerData = {
};
};
width = 1306;
},
{
background = {
anchors = (
{
name = ogonek;
pos = (1123,0);
},
{
name = top;
pos = (617,1464);
}
);
shapes = (
{
closed = 1;
nodes = (
(168,0,l),
(297,401,l),
(928,401,l),
(1063,0,l),
(1205,0,l),
(717,1464,l),
(516,1464,l),
(29,0,l)
);
},
{
closed = 1;
nodes = (
(615,1373,l),
(896,505,l),
(330,505,l)
);
},
{
closed = 1;
nodes = (
(762,1689,o),
(885,1763,o),
(889,1941,c),
(779,1941,l),
(779,1830,o),
(714,1786,o),
(614,1786,cs),
(514,1786,o),
(448,1830,o),
(448,1941,c),
(338,1941,l),
(342,1763,o),
(466,1689,o),
(614,1689,cs)
);
}
);
};
layerId = "E322F6D1-BA90-436B-BB35-51D9BD3EA9D1";
shapes = (
{
ref = A;
},
{
pos = (218,441);
ref = brevecomb;
}
);
userData = {
com.typemytype.robofont.layerData = {
b = {
anchors = (
);
components = (
);
contours = (
);
lib = {
};
name = Abreve;
unicodes = (
);
width = 1234;
};
};
};
width = 1234;
}
);
unicode = 258;
},
{
glyphname = Acaron;
kernLeft = _A_left;
kernRight = _A_right;
lastChange = "2023-02-02 13:10:15 +0000";
layers = (
{
background = {
anchors = (
{
name = ogonek;
pos = (1134,0);
},
{
name = top;
pos = (631.5,1464);
}
);
shapes = (
{
closed = 1;
nodes = (
(204,0,l),
(327,391,l),
(923,391,l),
(1052,0,l),
(1234,0,l),
(757,1464,l),
(501,1464,l),
(29,0,l)
);
},
{
closed = 1;
nodes = (
(626,1349,l),
(882,521,l),
(367,521,l)
);
},
{
closed = 1;
nodes = (
(741,1595,l),
(914,1915,l),
(799,1915,l),
(637,1676,l),
(476,1915,l),
(361,1915,l),
(534,1595,l)
);
}
);
};
layerId = "8E6A00A3-5EF9-4E6D-9A7B-9C1BBC7D44AD";
shapes = (
{
ref = A;
},
{
pos = (207,441);
ref = caroncomb;
}
);
width = 1263;
},
{
background = {
anchors = (
{
name = bot;
pos = (653,0);
},
{
name = ogonek;
pos = (1150,0);
},
{
name = top;
pos = (653,1464);
}
);
shapes = (
{
closed = 1;
nodes = (
(259,0,l),
(373,376,l),
(914,376,l),
(1035,0,l),
(1278,0,l),
(816,1464,l),
(480,1464,l),
(28,0,l)
);
},
{
closed = 1;
nodes = (
(643,1313,l),
(862,545,l),
(423,545,l)
);
},
{
closed = 1;
nodes = (
(792,1595,l),
(943,1915,l),
(794,1915,l),
(658,1702,l),
(523,1915,l),
(375,1915,l),
(525,1595,l)
);
}
);
};
layerId = "28683A17-BAD2-44EA-B42B-E882FFDD4FE1";
shapes = (
{
ref = A;
},
{
pos = (228,441);
ref = caroncomb;
}
);
width = 1306;
},
{
background = {
anchors = (
{
name = ogonek;
pos = (1123,0);
},
{
name = top;
pos = (617,1464);
}
);
shapes = (
{
closed = 1;
nodes = (
(168,0,l),
(297,401,l),
(928,401,l),
(1063,0,l),
(1205,0,l),
(717,1464,l),
(516,1464,l),
(29,0,l)
);
},
{
closed = 1;
nodes = (
(615,1373,l),
(896,505,l),
(330,505,l)
);
},
{
closed = 1;
nodes = (
(706,1595,l),
(894,1915,l),
(802,1915,l),
(622,1659,l),
(444,1915,l),
(351,1915,l),
(539,1595,l)
);
}
);
};
layerId = "E322F6D1-BA90-436B-BB35-51D9BD3EA9D1";
shapes = (
{
ref = A;
},
{
pos = (192,441);
ref = caroncomb;
}
);
width = 1234;
}
);
unicode = 461;
},
{
glyphname = Acircumflex;
kernLeft = _A_left;
kernRight = _A_right;
lastChange = "2023-02-02 13:10:15 +0000";
layers = (
{
background = {
anchors = (
{
name = ogonek;
pos = (1134,0);
},
{
name = top;
pos = (631.5,1464);
}
);
shapes = (
{
closed = 1;
nodes = (
(204,0,l),
(327,391,l),
(923,391,l),
(1052,0,l),
(1234,0,l),
(757,1464,l),
(501,1464,l),
(29,0,l)
);
},
{
closed = 1;
nodes = (
(626,1349,l),
(882,521,l),
(367,521,l)
);
},
{
closed = 1;
nodes = (
(463,1595,l),
(624,1834,l),
(786,1595,l),
(901,1595,l),
(728,1915,l),
(521,1915,l),
(348,1595,l)
);
}
);
};
layerId = "8E6A00A3-5EF9-4E6D-9A7B-9C1BBC7D44AD";
shapes = (
{
ref = A;
},
{
pos = (220,441);
ref = circumflexcomb;
}
);
userData = {
com.typemytype.robofont.layerData = {
};
};
width = 1263;
},
{
background = {
anchors = (
{
name = bot;
pos = (653,0);
},
{
name = ogonek;
pos = (1150,0);
},
{
name = top;
pos = (653,1464);
}
);
shapes = (
{
closed = 1;
nodes = (
(259,0,l),
(373,376,l),
(914,376,l),
(1035,0,l),
(1278,0,l),
(816,1464,l),
(480,1464,l),
(28,0,l)
);
},
{
closed = 1;
nodes = (
(643,1313,l),
(862,545,l),
(423,545,l)
);
},
{
closed = 1;
nodes = (
(527,1595,l),
(661,1808,l),
(797,1595,l),
(946,1595,l),
(795,1915,l),
(528,1915,l),
(378,1595,l)
);
}
);
};
layerId = "28683A17-BAD2-44EA-B42B-E882FFDD4FE1";
shapes = (
{
ref = A;
},
{
pos = (225,441);
ref = circumflexcomb;
}
);
userData = {
com.typemytype.robofont.layerData = {
};
};
width = 1306;
},
{
background = {
anchors = (
{
name = ogonek;
pos = (1123,0);
},
{
name = top;
pos = (617,1464);
}
);
shapes = (
{
closed = 1;
nodes = (
(168,0,l),
(297,401,l),
(928,401,l),
(1063,0,l),
(1205,0,l),
(717,1464,l),
(516,1464,l),
(29,0,l)
);
},
{
closed = 1;
nodes = (
(615,1373,l),
(896,505,l),
(330,505,l)
);
},
{
closed = 1;
nodes = (
(419,1595,l),
(598,1852,l),
(777,1595,l),
(870,1595,l),
(682,1915,l),
(515,1915,l),
(327,1595,l)
);
}
);
};
layerId = "E322F6D1-BA90-436B-BB35-51D9BD3EA9D1";
shapes = (
{
ref = A;
},
{
pos = (216,441);
ref = circumflexcomb;
}
);
userData = {
com.typemytype.robofont.layerData = {
b = {
anchors = (
);
components = (
);
contours = (
);
lib = {
};
name = Acircumflex;
unicodes = (
);
width = 1234;
};
};
};
width = 1234;
}
);
unicode = 194;
},
{
glyphname = Adblgrave;
kernLeft = _A_left;
kernRight = _A_right;
lastChange = "2023-02-02 13:10:15 +0000";
layers = (
{
background = {
anchors = (
{
name = ogonek;
pos = (1134,0);
},
{
name = top;
pos = (631.5,1464);
}
);
shapes = (
{
closed = 1;
nodes = (
(204,0,l),
(327,391,l),
(923,391,l),
(1052,0,l),
(1234,0,l),
(757,1464,l),
(501,1464,l),
(29,0,l)
);
},
{
closed = 1;
nodes = (
(626,1349,l),
(882,521,l),
(367,521,l)
);
},
{
closed = 1;
nodes = (
(513,1594,l),
(395,1922,l),
(163,1922,l),
(426,1594,l)
);
},
{
closed = 1;
nodes = (
(805,1594,l),
(716,1922,l),
(491,1922,l),
(726,1594,l)
);
}
);
};
layerId = "8E6A00A3-5EF9-4E6D-9A7B-9C1BBC7D44AD";
shapes = (
{
ref = A;
},
{
pos = (97,441);
ref = dblgravecomb;
}
);
userData = {
com.typemytype.robofont.layerData = {
};
};
width = 1263;
},
{
background = {
anchors = (
{
name = bot;
pos = (653,0);
},
{
name = ogonek;
pos = (1150,0);
},
{
name = top;
pos = (653,1464);
}
);
shapes = (
{
closed = 1;
nodes = (
(259,0,l),
(373,376,l),
(914,376,l),
(1035,0,l),
(1278,0,l),
(816,1464,l),
(480,1464,l),
(28,0,l)
);
},
{
closed = 1;
nodes = (
(643,1313,l),
(862,545,l),
(423,545,l)
);
}
);
};
layerId = "28683A17-BAD2-44EA-B42B-E882FFDD4FE1";
shapes = (
{
ref = A;
},
{
pos = (118,441);
ref = dblgravecomb;
}
);
userData = {
com.typemytype.robofont.layerData = {
};
};
width = 1306;
},
{
background = {
anchors = (
{
name = ogonek;
pos = (1123,0);
},
{
name = top;
pos = (617,1464);
}
);
shapes = (
{
closed = 1;
nodes = (
(168,0,l),
(297,401,l),
(928,401,l),
(1063,0,l),
(1205,0,l),
(717,1464,l),
(516,1464,l),
(29,0,l)
);
},
{
closed = 1;
nodes = (
(615,1373,l),
(896,505,l),
(330,505,l)
);
}
);
};
layerId = "E322F6D1-BA90-436B-BB35-51D9BD3EA9D1";
shapes = (
{
ref = A;
},
{
pos = (82,441);
ref = dblgravecomb;
}
);
userData = {
com.typemytype.robofont.layerData = {
b = {
anchors = (
);
components = (
);
contours = (
);
lib = {
};
name = uni0200;
unicodes = (
);
width = 1234;
};
};
};
width = 1234;
}
);
unicode = 512;
},
{
glyphname = Adieresis;
kernLeft = _A_left;
kernRight = _A_right;
lastChange = "2023-02-02 13:10:15 +0000";
layers = (
{
background = {
anchors = (
{
name = ogonek;
pos = (1134,0);
},
{
name = top;
pos = (631.5,1464);
}
);
shapes = (
{
closed = 1;
nodes = (
(204,0,l),
(327,391,l),
(923,391,l),
(1052,0,l),
(1234,0,l),
(757,1464,l),
(501,1464,l),
(29,0,l)
);
},
{
closed = 1;
nodes = (
(626,1349,l),
(882,521,l),
(367,521,l)
);
},
{
closed = 1;
nodes = (
(914,1621,l),
(914,1819,l),
(720,1819,l),
(720,1621,l)
);
},
{
closed = 1;
nodes = (
(507,1621,l),
(507,1819,l),
(313,1819,l),
(313,1621,l)
);
}
);
};
layerId = "8E6A00A3-5EF9-4E6D-9A7B-9C1BBC7D44AD";
shapes = (
{
ref = A;
},
{
pos = (220,441);
ref = dieresiscomb;
}
);
userData = {
com.typemytype.robofont.layerData = {
};
};
width = 1263;
},
{
background = {
anchors = (
{
name = bot;
pos = (653,0);
},
{
name = ogonek;
pos = (1150,0);
},
{
name = top;
pos = (653,1464);
}
);
shapes = (
{
closed = 1;
nodes = (
(259,0,l),
(373,376,l),
(914,376,l),
(1035,0,l),
(1278,0,l),
(816,1464,l),
(480,1464,l),
(28,0,l)
);
},
{
closed = 1;
nodes = (
(643,1313,l),
(862,545,l),
(423,545,l)
);
},
{
closed = 1;
nodes = (
(536,1601,l),
(536,1844,l),
(289,1844,l),
(289,1601,l)
);
},
{
closed = 1;
nodes = (
(995,1601,l),
(995,1844,l),
(749,1844,l),
(749,1601,l)
);
}
);
};
layerId = "28683A17-BAD2-44EA-B42B-E882FFDD4FE1";
shapes = (
{
ref = A;
},
{
pos = (234,441);
ref = dieresiscomb;
}
);
userData = {
com.typemytype.robofont.layerData = {
};
};
width = 1306;
},
{
background = {
anchors = (
{
name = ogonek;
pos = (1123,0);
},
{
name = top;
pos = (617,1464);
}
);
shapes = (
{
closed = 1;
nodes = (
(168,0,l),
(297,401,l),
(928,401,l),
(1063,0,l),
(1205,0,l),
(717,1464,l),
(516,1464,l),
(29,0,l)
);
},
{
closed = 1;
nodes = (
(615,1373,l),
(896,505,l),
(330,505,l)
);
},
{
closed = 1;
nodes = (
(859,1635,l),
(859,1803,l),
(700,1803,l),
(700,1635,l)
);
},
{
closed = 1;
nodes = (
(487,1635,l),
(487,1803,l),
(328,1803,l),
(328,1635,l)
);
}
);
};
layerId = "E322F6D1-BA90-436B-BB35-51D9BD3EA9D1";
shapes = (
{
ref = A;
},
{
pos = (210,441);
ref = dieresiscomb;
}
);
userData = {
com.typemytype.robofont.layerData = {
b = {
anchors = (
);
components = (
);
contours = (
);
lib = {
};
name = Adieresis;
unicodes = (
);
width = 1234;
};
};
};
width = 1234;
}
);
unicode = 196;
},
{
glyphname = Adotaccent;
kernLeft = _A_left;
kernRight = _A_right;
lastChange = "2023-02-02 13:10:15 +0000";
layers = (
{
background = {
anchors = (
{
name = ogonek;
pos = (1134,0);
},
{
name = top;
pos = (631.5,1464);
}
);
shapes = (
{
closed = 1;
nodes = (
(204,0,l),
(327,391,l),
(923,391,l),
(1052,0,l),
(1234,0,l),
(757,1464,l),
(501,1464,l),
(29,0,l)
);
},
{
closed = 1;
nodes = (
(626,1349,l),
(882,521,l),
(367,521,l)
);
},
{
closed = 1;
nodes = (
(708,1673,l),
(708,1898,l),
(534,1898,l),
(534,1673,l)
);
}
);
};
layerId = "8E6A00A3-5EF9-4E6D-9A7B-9C1BBC7D44AD";
shapes = (
{
ref = A;
},
{
pos = (415,441);
ref = dotaccentcomb;
}
);
width = 1263;
},
{
background = {
anchors = (
{
name = bot;
pos = (653,0);
},
{
name = ogonek;
pos = (1150,0);
},
{
name = top;
pos = (653,1464);
}
);
shapes = (
{
closed = 1;
nodes = (
(259,0,l),
(373,376,l),
(914,376,l),
(1035,0,l),
(1278,0,l),
(816,1464,l),
(480,1464,l),
(28,0,l)
);
},
{
closed = 1;
nodes = (
(643,1313,l),
(862,545,l),
(423,545,l)
);
},
{
closed = 1;
nodes = (
(760,1675,l),
(760,1919,l),
(531,1919,l),
(531,1675,l)
);
}
);
};
layerId = "28683A17-BAD2-44EA-B42B-E882FFDD4FE1";
shapes = (
{
ref = A;
},
{
pos = (438,441);
ref = dotaccentcomb;
}
);
width = 1306;
},
{
background = {
anchors = (
{
name = ogonek;
pos = (1123,0);
},
{
name = top;
pos = (617,1464);
}
);
shapes = (
{
closed = 1;
nodes = (
(168,0,l),
(297,401,l),
(928,401,l),
(1063,0,l),
(1205,0,l),
(717,1464,l),
(516,1464,l),
(29,0,l)
);
},
{
closed = 1;
nodes = (
(615,1373,l),
(896,505,l),
(330,505,l)
);
},
{
closed = 1;
nodes = (
(680,1672,l),
(680,1884,l),
(543,1884,l),
(543,1672,l)
);
}
);
};
layerId = "E322F6D1-BA90-436B-BB35-51D9BD3EA9D1";
shapes = (
{
ref = A;
},
{
pos = (398,441);
ref = dotaccentcomb;
}
);
width = 1234;
}
);
unicode = 550;
},
{
glyphname = Agrave;
kernLeft = _A_left;
kernRight = _A_right;
lastChange = "2023-02-02 13:10:15 +0000";
layers = (
{
background = {
anchors = (
{
name = ogonek;
pos = (1134,0);
},
{
name = top;
pos = (631.5,1464);
}
);
shapes = (
{
closed = 1;
nodes = (
(204,0,l),
(327,391,l),
(923,391,l),
(1052,0,l),
(1234,0,l),
(757,1464,l),
(501,1464,l),
(29,0,l)
);
},
{
closed = 1;
nodes = (
(626,1349,l),
(882,521,l),
(367,521,l)
);
},
{
closed = 1;
nodes = (
(753,1596,l),
(549,1915,l),
(316,1915,l),
(640,1595,l)
);
}
);
};
layerId = "8E6A00A3-5EF9-4E6D-9A7B-9C1BBC7D44AD";
shapes = (
{
ref = A;
},
{
pos = (283,441);
ref = gravecomb;
}
);
userData = {
com.typemytype.robofont.layerData = {
};
};
width = 1263;
},
{
background = {
anchors = (
{
name = bot;
pos = (653,0);
},
{
name = ogonek;
pos = (1150,0);
},
{
name = top;
pos = (653,1464);
}
);
shapes = (
{
closed = 1;
nodes = (
(259,0,l),
(373,376,l),
(914,376,l),
(1035,0,l),
(1278,0,l),
(816,1464,l),
(480,1464,l),
(28,0,l)
);
},
{
closed = 1;
nodes = (
(643,1313,l),
(862,545,l),
(423,545,l)
);
},
{
closed = 1;
nodes = (
(747,1595,l),
(545,1915,l),
(241,1915,l),
(598,1595,l)
);
}
);
};
layerId = "28683A17-BAD2-44EA-B42B-E882FFDD4FE1";
shapes = (
{
ref = A;
},
{
pos = (254,441);
ref = gravecomb;
}
);
userData = {
com.typemytype.robofont.layerData = {
};
};
width = 1306;
},
{
background = {
anchors = (
{
name = ogonek;
pos = (1123,0);
},
{
name = top;
pos = (617,1464);
}
);
shapes = (
{
closed = 1;
nodes = (
(168,0,l),
(297,401,l),
(928,401,l),
(1063,0,l),
(1205,0,l),
(717,1464,l),
(516,1464,l),
(29,0,l)
);
},
{
closed = 1;
nodes = (
(615,1373,l),
(896,505,l),
(330,505,l)
);
},
{
closed = 1;
nodes = (
(713,1596,l),
(508,1915,l),
(322,1915,l),
(624,1595,l)
);
}
);
};
layerId = "E322F6D1-BA90-436B-BB35-51D9BD3EA9D1";
shapes = (
{
ref = A;
},
{
pos = (259,441);
ref = gravecomb;
}
);
userData = {
com.typemytype.robofont.layerData = {
b = {
anchors = (
);
components = (
);
contours = (
);
lib = {
};
name = Agrave;
unicodes = (
);
width = 1234;
};
};
};
width = 1234;
}
);
unicode = 192;
},
{
glyphname = Ainvertedbreve;
kernLeft = _A_left;
kernRight = _A_right;
lastChange = "2023-02-02 13:10:15 +0000";
layers = (
{
background = {
anchors = (
{
name = ogonek;
pos = (1134,0);
},
{
name = top;
pos = (631.5,1464);
}
);
shapes = (
{
closed = 1;
nodes = (
(204,0,l),
(327,391,l),
(923,391,l),
(1052,0,l),
(1234,0,l),
(757,1464,l),
(501,1464,l),
(29,0,l)
);
},
{
closed = 1;
nodes = (
(626,1349,l),
(882,521,l),
(367,521,l)
);
},
{
closed = 1;
nodes = (
(486,1615,l),
(486,1706,o),
(530,1755,o),
(628,1755,cs),
(725,1755,o),
(770,1706,o),
(770,1615,c),
(909,1615,l),
(905,1803,o),
(771,1878,o),
(628,1878,cs),
(485,1878,o),
(351,1803,o),
(347,1615,c)
);
}
);
};
layerId = "8E6A00A3-5EF9-4E6D-9A7B-9C1BBC7D44AD";
shapes = (
{
ref = A;
},
{
pos = (226,441);
ref = breveinvertedcomb;
}
);
userData = {
com.typemytype.robofont.layerData = {
};
};
width = 1263;
},
{
background = {
anchors = (
{
name = bot;
pos = (653,0);
},
{
name = ogonek;
pos = (1150,0);
},
{
name = top;
pos = (653,1464);
}
);
shapes = (
{
closed = 1;
nodes = (
(259,0,l),
(373,376,l),
(914,376,l),
(1035,0,l),
(1278,0,l),
(816,1464,l),
(480,1464,l),
(28,0,l)
);
},
{
closed = 1;
nodes = (
(643,1313,l),
(862,545,l),
(423,545,l)
);
}
);
};
layerId = "28683A17-BAD2-44EA-B42B-E882FFDD4FE1";
shapes = (
{
ref = A;
},
{
pos = (243,441);
ref = breveinvertedcomb;
}
);
userData = {
com.typemytype.robofont.layerData = {
};
};
width = 1306;
},
{
background = {
anchors = (
{
name = ogonek;
pos = (1123,0);
},
{
name = top;
pos = (617,1464);
}
);
shapes = (
{
closed = 1;
nodes = (
(168,0,l),
(297,401,l),
(928,401,l),
(1063,0,l),
(1205,0,l),
(717,1464,l),
(516,1464,l),
(29,0,l)
);
},
{
closed = 1;
nodes = (
(615,1373,l),
(896,505,l),
(330,505,l)
);
}
);
};
layerId = "E322F6D1-BA90-436B-BB35-51D9BD3EA9D1";
shapes = (
{
ref = A;
},
{
pos = (241,441);
ref = breveinvertedcomb;
}
);
userData = {
com.typemytype.robofont.layerData = {
b = {
anchors = (
);
components = (
);
contours = (
);
lib = {
};
name = uni0202;
unicodes = (
);
width = 1234;
};
};
};
width = 1234;
}
);
unicode = 514;
},
{
glyphname = Amacron;
kernLeft = _A_left;
kernRight = _A_right;
lastChange = "2023-02-02 13:10:15 +0000";
layers = (
{
background = {
anchors = (
{
name = ogonek;
pos = (1134,0);
},
{
name = top;
pos = (631.5,1464);
}
);
shapes = (
{
closed = 1;
nodes = (
(204,0,l),
(327,391,l),
(923,391,l),
(1052,0,l),
(1234,0,l),
(757,1464,l),
(501,1464,l),
(29,0,l)
);
},
{
closed = 1;
nodes = (
(626,1349,l),
(882,521,l),
(367,521,l)
);
},
{
closed = 1;
nodes = (
(852,1668,l),
(852,1788,l),
(398,1788,l),
(398,1668,l)
);
}
);
};
layerId = "8E6A00A3-5EF9-4E6D-9A7B-9C1BBC7D44AD";
shapes = (
{
ref = A;
},
{
pos = (267,441);
ref = macroncomb;
}
);
userData = {
com.typemytype.robofont.layerData = {
};
};
width = 1263;
},
{
background = {
anchors = (
{
name = bot;
pos = (653,0);
},
{
name = ogonek;
pos = (1150,0);
},
{
name = top;
pos = (653,1464);
}
);
shapes = (
{
closed = 1;
nodes = (
(259,0,l),
(373,376,l),
(914,376,l),
(1035,0,l),
(1278,0,l),
(816,1464,l),
(480,1464,l),
(28,0,l)
);
},
{
closed = 1;
nodes = (
(643,1313,l),
(862,545,l),
(423,545,l)
);
},
{
closed = 1;
nodes = (
(899,1607,l),
(899,1764,l),
(445,1764,l),
(445,1607,l)
);
}
);
};
layerId = "28683A17-BAD2-44EA-B42B-E882FFDD4FE1";
shapes = (
{
ref = A;
},
{
pos = (272,441);
ref = macroncomb;
}
);
userData = {
com.typemytype.robofont.layerData = {
};
};
width = 1306;
},
{
background = {
anchors = (
{
name = ogonek;
pos = (1123,0);
},
{
name = top;
pos = (617,1464);
}
);
shapes = (
{
closed = 1;
nodes = (
(168,0,l),
(297,401,l),
(928,401,l),
(1063,0,l),
(1205,0,l),
(717,1464,l),
(516,1464,l),
(29,0,l)
);
},
{
closed = 1;
nodes = (
(615,1373,l),
(896,505,l),
(330,505,l)
);
},
{
closed = 1;
nodes = (
(837,1708,l),
(837,1803,l),
(383,1803,l),
(383,1708,l)
);
}
);
};
layerId = "E322F6D1-BA90-436B-BB35-51D9BD3EA9D1";
shapes = (
{
ref = A;
},
{
pos = (262,441);
ref = macroncomb;
}
);
userData = {
com.typemytype.robofont.layerData = {
b = {
anchors = (
);
components = (
);
contours = (
);
lib = {
};
name = Amacron;
unicodes = (
);
width = 1234;
};
};
};
width = 1234;
}
);
unicode = 256;
},
{
glyphname = Aogonek;
kernLeft = _A_left;
kernRight = _A_right;
lastChange = "2023-02-02 13:10:15 +0000";
layers = (
{
background = {
anchors = (
{
name = ogonek;
pos = (1134,0);
},
{
name = top;
pos = (631.5,1464);
}
);
shapes = (
{
closed = 1;
nodes = (
(204,0,l),
(327,391,l),
(923,391,l),
(1052,0,l),
(1234,0,l),
(757,1464,l),
(501,1464,l),
(29,0,l)
);
},
{
closed = 1;
nodes = (
(626,1349,l),
(882,521,l),
(367,521,l)
);
},
{
closed = 1;
nodes = (
(1151,-379,o),
(1179,-376,o),
(1210,-368,c),
(1210,-272,l),
(1193,-276,o),
(1179,-278,o),
(1166,-278,cs),
(1118,-278,o),
(1102,-250,o),
(1102,-212,cs),
(1102,-154,o),
(1141,-77,o),
(1175,0,c),
(1092,0,l),
(1028,-80,o),
(961,-162,o),
(961,-244,cs),
(961,-309,o),
(1012,-379,o),
(1125,-379,cs)
);
}
);
};
layerId = "8E6A00A3-5EF9-4E6D-9A7B-9C1BBC7D44AD";
shapes = (
{
ref = A;
},
{
pos = (844,0);
ref = ogonekcomb;
}
);
userData = {
com.typemytype.robofont.layerData = {
};
};
width = 1263;
},
{
background = {
anchors = (
{
name = bot;
pos = (653,0);
},
{
name = ogonek;
pos = (1150,0);
},
{
name = top;
pos = (653,1464);
}
);
shapes = (
{
closed = 1;
nodes = (
(259,0,l),
(373,376,l),
(914,376,l),
(1035,0,l),
(1278,0,l),
(816,1464,l),
(480,1464,l),
(28,0,l)
);
},
{
closed = 1;
nodes = (
(643,1313,l),
(862,545,l),
(423,545,l)
);
},
{
closed = 1;
nodes = (
(1248,-257,l),
(1165,-276,o),
(1145,-244,o),
(1145,-199,cs),
(1145,-141,o),
(1170,-83,o),
(1205,0,c),
(1100,0,l),
(1037,-65,o),
(961,-151,o),
(961,-241,cs),
(961,-321,o),
(1040,-431,o),
(1248,-382,c)
);
}
);
};
layerId = "28683A17-BAD2-44EA-B42B-E882FFDD4FE1";
shapes = (
{
ref = A;
},
{
pos = (845,0);
ref = ogonekcomb;
}
);
userData = {
com.typemytype.robofont.layerData = {
};
};
width = 1306;
},
{
background = {
anchors = (
{
name = ogonek;
pos = (1123,0);
},
{
name = top;
pos = (617,1464);
}
);
shapes = (
{
closed = 1;
nodes = (
(168,0,l),
(297,401,l),
(928,401,l),
(1063,0,l),
(1205,0,l),
(717,1464,l),
(516,1464,l),
(29,0,l)
);
},
{
closed = 1;
nodes = (
(615,1373,l),
(896,505,l),
(330,505,l)
);
},
{
closed = 1;
nodes = (
(1130,-369,o),
(1156,-366,o),
(1184,-359,c),
(1184,-282,l),
(1167,-286,o),
(1152,-288,o),
(1140,-288,cs),
(1090,-288,o),
(1072,-260,o),
(1072,-221,cs),
(1072,-163,o),
(1120,-73,o),
(1154,0,c),
(1086,0,l),
(1020,-91,o),
(960,-168,o),
(960,-246,cs),
(960,-309,o),
(1008,-369,o),
(1108,-369,cs)
);
}
);
};
layerId = "E322F6D1-BA90-436B-BB35-51D9BD3EA9D1";
shapes = (
{
ref = A;
},
{
pos = (843,0);
ref = ogonekcomb;
}
);
userData = {
com.typemytype.robofont.layerData = {
b = {
anchors = (
);
components = (
);
contours = (
);
lib = {
};
name = Aogonek;
unicodes = (
);
width = 1234;
};
};
};
width = 1234;
}
);
unicode = 260;
},
{
glyphname = Aring;
kernLeft = _A_left;
kernRight = _A_right;
lastChange = "2023-02-02 13:10:15 +0000";
layers = (
{
background = {
anchors = (
{
name = ogonek;
pos = (1134,0);
},
{
name = top;
pos = (631.5,1464);
}
);
shapes = (
{
closed = 1;
nodes = (
(204,0,l),
(327,391,l),
(923,391,l),
(1052,0,l),
(1234,0,l),
(757,1464,l),
(501,1464,l),
(29,0,l)
);
},
{
closed = 1;
nodes = (
(626,1349,l),
(882,521,l),
(367,521,l)
);
},
{
closed = 1;
nodes = (
(787,1634,o),
(880,1750,o),
(880,1877,cs),
(880,2005,o),
(787,2120,o),
(631,2120,cs),
(475,2120,o),
(382,2005,o),
(382,1877,cs),
(382,1750,o),
(475,1634,o),
(631,1634,cs)
);
},
{
closed = 1;
nodes = (
(545,1735,o),
(499,1803,o),
(499,1877,cs),
(499,1951,o),
(545,2020,o),
(631,2020,cs),
(717,2020,o),
(763,1951,o),
(763,1877,cs),
(763,1803,o),
(717,1735,o),
(631,1735,cs)
);
}
);
};
layerId = "8E6A00A3-5EF9-4E6D-9A7B-9C1BBC7D44AD";
shapes = (
{
ref = A;
},
{
pos = (269,441);
ref = ringcomb;
}
);
userData = {
com.typemytype.robofont.layerData = {
};
};
width = 1263;
},
{
background = {
anchors = (
{
name = bot;
pos = (653,0);
},
{
name = ogonek;
pos = (1150,0);
},
{
name = top;
pos = (653,1464);
}
);
shapes = (
{
closed = 1;
nodes = (
(259,0,l),
(373,376,l),
(914,376,l),
(1035,0,l),
(1278,0,l),
(816,1464,l),
(480,1464,l),
(28,0,l)
);
},
{
closed = 1;
nodes = (
(643,1313,l),
(862,545,l),
(423,545,l)
);
},
{
closed = 1;
nodes = (
(827,1674,o),
(921,1798,o),
(921,1932,cs),
(921,2066,o),
(827,2190,o),
(656,2190,cs),
(485,2190,o),
(390,2066,o),
(390,1932,cs),
(390,1798,o),
(485,1674,o),
(656,1674,cs)
);
},
{
closed = 1;
nodes = (
(584,1805,o),
(541,1858,o),
(541,1932,cs),
(541,2006,o),
(584,2059,o),
(656,2059,cs),
(728,2059,o),
(770,2006,o),
(770,1932,cs),
(770,1858,o),
(728,1805,o),
(656,1805,cs)
);
}
);
};
layerId = "28683A17-BAD2-44EA-B42B-E882FFDD4FE1";
shapes = (
{
ref = A;
},
{
pos = (286,441);
ref = ringcomb;
}
);
userData = {
com.typemytype.robofont.layerData = {
};
};
width = 1306;
},
{
background = {
anchors = (
{
name = ogonek;
pos = (1123,0);
},
{
name = top;
pos = (617,1464);
}
);
shapes = (
{
closed = 1;
nodes = (
(168,0,l),
(297,401,l),
(928,401,l),
(1063,0,l),
(1205,0,l),
(717,1464,l),
(516,1464,l),
(29,0,l)
);
},
{
closed = 1;
nodes = (
(615,1373,l),
(896,505,l),
(330,505,l)
);
},
{
closed = 1;
nodes = (
(760,1608,o),
(851,1718,o),
(851,1841,cs),
(851,1964,o),
(760,2074,o),
(614,2074,cs),
(468,2074,o),
(376,1964,o),
(376,1841,cs),
(376,1718,o),
(468,1608,o),
(614,1608,cs)
);
},
{
closed = 1;
nodes = (
(518,1688,o),
(469,1767,o),
(469,1841,cs),
(469,1915,o),
(518,1994,o),
(614,1994,cs),
(709,1994,o),
(758,1915,o),
(758,1841,cs),
(758,1767,o),
(709,1688,o),
(614,1688,cs)
);
}
);
};
layerId = "E322F6D1-BA90-436B-BB35-51D9BD3EA9D1";
shapes = (
{
ref = A;
},
{
pos = (256,441);
ref = ringcomb;
}
);
userData = {
com.typemytype.robofont.layerData = {
b = {
anchors = (
);
components = (
);
contours = (
);
lib = {
};
name = Aring;
unicodes = (
);
width = 1234;
};
};
};
width = 1234;
}
);
unicode = 197;
},
{
glyphname = Atilde;
kernLeft = _A_left;
kernRight = _A_right;
lastChange = "2023-02-02 13:10:15 +0000";
layers = (
{
background = {
anchors = (
{
name = ogonek;
pos = (1134,0);
},
{
name = top;
pos = (631.5,1464);
}
);
shapes = (
{
closed = 1;
nodes = (
(204,0,l),
(327,391,l),
(923,391,l),
(1052,0,l),
(1234,0,l),
(757,1464,l),
(501,1464,l),
(29,0,l)
);
},
{
closed = 1;
nodes = (
(626,1349,l),
(882,521,l),
(367,521,l)
);
},
{
closed = 1;
nodes = (
(863,1638,o),
(910,1685,o),
(910,1809,cs),
(910,1822,o),
(910,1836,o),
(909,1851,c),
(798,1851,l),
(798,1794,o),
(791,1763,o),
(762,1763,cs),
(705,1763,o),
(559,1852,o),
(462,1852,cs),
(409,1852,o),
(343,1816,o),
(343,1692,cs),
(343,1676,o),
(344,1659,o),
(347,1640,c),
(456,1640,l),
(456,1700,o),
(473,1725,o),
(497,1725,c),
(577,1719,o),
(698,1638,o),
(800,1638,cs)
);
}
);
};
layerId = "8E6A00A3-5EF9-4E6D-9A7B-9C1BBC7D44AD";
shapes = (
{
ref = A;
},
{
pos = (233,441);
ref = tildecomb;
}
);
userData = {
com.typemytype.robofont.layerData = {
};
};
width = 1263;
},
{
background = {
anchors = (
{
name = bot;
pos = (653,0);
},
{
name = ogonek;
pos = (1150,0);
},
{
name = top;
pos = (653,1464);
}
);
shapes = (
{
closed = 1;
nodes = (
(259,0,l),
(373,376,l),
(914,376,l),
(1035,0,l),
(1278,0,l),
(816,1464,l),
(480,1464,l),
(28,0,l)
);
},
{
closed = 1;
nodes = (
(643,1313,l),
(862,545,l),
(423,545,l)
);
},
{
closed = 1;
nodes = (
(911,1641,o),
(930,1766,o),
(930,1867,c),
(794,1867,l),
(790,1813,o),
(777,1799,o),
(751,1800,cs),
(669,1806,o),
(593,1871,o),
(462,1881,cs),
(349,1888,o),
(321,1786,o),
(321,1689,cs),
(321,1679,o),
(322,1669,o),
(322,1658,c),
(457,1658,l),
(461,1713,o),
(486,1731,o),
(510,1729,c),
(629,1713,o),
(680,1657,o),
(796,1649,cs)
);
}
);
};
layerId = "28683A17-BAD2-44EA-B42B-E882FFDD4FE1";
shapes = (
{
ref = A;
},
{
pos = (221,441);
ref = tildecomb;
}
);
userData = {
com.typemytype.robofont.layerData = {
};
};
width = 1306;
},
{
background = {
anchors = (
{
name = ogonek;
pos = (1123,0);
},
{
name = top;
pos = (617,1464);
}
);
shapes = (
{
closed = 1;
nodes = (
(168,0,l),
(297,401,l),
(928,401,l),
(1063,0,l),
(1205,0,l),
(717,1464,l),
(516,1464,l),
(29,0,l)
);
},
{
closed = 1;
nodes = (
(615,1373,l),
(896,505,l),
(330,505,l)
);
},
{
closed = 1;
nodes = (
(427,1639,l),
(427,1699,o),
(439,1728,o),
(463,1728,c),
(517,1724,o),
(669,1642,o),
(761,1642,cs),
(818,1642,o),
(878,1661,o),
(878,1795,cs),
(878,1806,o),
(878,1817,o),
(877,1830,c),
(783,1830,l),
(783,1774,o),
(780,1732,o),
(748,1732,cs),
(708,1732,o),
(524,1825,o),
(451,1825,cs),
(407,1825,o),
(332,1807,o),
(332,1683,cs),
(332,1670,o),
(333,1655,o),
(335,1639,c)
);
}
);
};
layerId = "E322F6D1-BA90-436B-BB35-51D9BD3EA9D1";
shapes = (
{
ref = A;
},
{
pos = (218,441);
ref = tildecomb;
}
);
userData = {
com.typemytype.robofont.layerData = {
b = {
anchors = (
);
components = (
);
contours = (
);
lib = {
};
name = Atilde;
unicodes = (
);
width = 1234;
};
};
};
width = 1234;
}
);
unicode = 195;
},
{
glyphname = AE;
kernLeft = _A_left;
lastChange = "2023-02-02 13:10:15 +0000";
layers = (
{
anchors = (
{
name = bottom;
pos = (1015,0);
},
{
name = top;
pos = (1376,1464);
}
);
background = {
anchors = (
{
name = top;
pos = (1315,1464);
}
);
shapes = (
{
closed = 1;
nodes = (
(152,0,l),
(387,387,l),
(974,387,l),
(974,0,l),
(2015,0,l),
(2015,134,l),
(1148,134,l),
(1148,712,l),
(1842,712,l),
(1843,850,l),
(1148,850,l),
(1148,1330,l),
(2005,1330,l),
(2005,1464,l),
(849,1464,l),
(-40,0,l)
);
},
{
closed = 1;
nodes = (
(974,1395,l),
(974,518,l),
(459,518,l)
);
}
);
};
layerId = "8E6A00A3-5EF9-4E6D-9A7B-9C1BBC7D44AD";
shapes = (
{
closed = 1;
nodes = (
(152,0,l),
(387,387,l),
(974,387,l),
(974,0,l),
(2015,0,l),
(2015,134,l),
(1148,134,l),
(1148,712,l),
(1842,712,l),
(1843,850,l),
(1148,850,l),
(1148,1330,l),
(2005,1330,l),
(2005,1464,l),
(849,1464,l),
(-40,0,l)
);
},
{
closed = 1;
nodes = (
(974,1395,l),
(974,518,l),
(459,518,l)
);
}
);
userData = {
anchors = (
);
b = {
};
com.typemytype.robofont.layerData = {
};
components = (
);
contours = (
);
lib = {
};
name = AE;
unicodes = (
);
width = "2030";
};
vertWidth = 0;
width = 2030;
},
{
anchors = (
{
name = bottom;
pos = (1015,0);
},
{
name = top;
pos = (1369,1464);
}
);
background = {
anchors = (
{
name = top;
pos = (1015,1464);
}
);
shapes = (
{
closed = 1;
nodes = (
(203,0,l),
(416,365,l),
(974,365,l),
(974,0,l),
(2015,0,l),
(2015,176,l),
(1203,176,l),
(1203,692,l),
(1842,692,l),
(1843,873,l),
(1203,873,l),
(1203,1288,l),
(2005,1288,l),
(2005,1464,l),
(809,1464,l),
(-49,0,l)
);
},
{
closed = 1;
nodes = (
(974,1374,l),
(974,536,l),
(510,536,l)
);
}
);
};
layerId = "28683A17-BAD2-44EA-B42B-E882FFDD4FE1";
shapes = (
{
closed = 1;
nodes = (
(203,0,l),
(416,365,l),
(974,365,l),
(974,0,l),
(2015,0,l),
(2015,176,l),
(1203,176,l),
(1203,692,l),
(1842,692,l),
(1843,873,l),
(1203,873,l),
(1203,1288,l),
(2005,1288,l),
(2005,1464,l),
(809,1464,l),
(-49,0,l)
);
},
{
closed = 1;
nodes = (
(974,1374,l),
(974,536,l),
(510,536,l)
);
}
);
userData = {
anchors = (
);
b = {
};
com.typemytype.robofont.layerData = {
};
components = (
);
contours = (
);
lib = {
};
name = AE;
unicodes = (
);
width = "2030";
};
vertWidth = 0;
width = 2030;
},
{
anchors = (
{
name = bottom;
pos = (1015,0);
},
{
name = top;
pos = (1401,1464);
}
);
background = {
anchors = (
{
name = top;
pos = (1015,1464);
}
);
shapes = (
{
closed = 1;
nodes = (
(117,0,l),
(367,402,l),
(974,402,l),
(974,0,l),
(2015,0,l),
(2015,106,l),
(1111,106,l),
(1111,726,l),
(1842,726,l),
(1843,835,l),
(1111,835,l),
(1111,1358,l),
(2005,1358,l),
(2005,1464,l),
(875,1464,l),
(-35,0,l)
);
},
{
closed = 1;
nodes = (
(974,1409,l),
(974,506,l),
(424,506,l)
);
}
);
};
layerId = "E322F6D1-BA90-436B-BB35-51D9BD3EA9D1";
shapes = (
{
closed = 1;
nodes = (
(117,0,l),
(367,402,l),
(974,402,l),
(974,0,l),
(2015,0,l),
(2015,106,l),
(1111,106,l),
(1111,726,l),
(1842,726,l),
(1842,835,l),
(1111,835,l),
(1111,1358,l),
(2005,1358,l),
(2005,1464,l),
(875,1464,l),
(-35,0,l)
);
},
{
closed = 1;
nodes = (
(974,1409,l),
(974,506,l),
(424,506,l)
);
}
);
userData = {
anchors = (
);
b = {
};
com.typemytype.robofont.layerData = {
b = {
anchors = (
);
components = (
);
contours = (
);
lib = {
};
name = AE;
unicodes = (
);
width = 2030;
};
};
components = (
);
contours = (
);
lib = {
};
name = AE;
unicodes = (
);
width = "2030";
};
vertWidth = 0;
width = 2030;
}
);
unicode = 198;
},
{
glyphname = AEacute;
kernLeft = _A_left;
lastChange = "2023-02-02 13:10:15 +0000";
layers = (
{
background = {
anchors = (
{
name = top;
pos = (1315,1464);
}
);
shapes = (
{
closed = 1;
nodes = (
(152,0,l),
(387,387,l),
(974,387,l),
(974,0,l),
(2015,0,l),
(2015,134,l),
(1148,134,l),
(1148,712,l),
(1842,712,l),
(1843,850,l),
(1148,850,l),
(1148,1330,l),
(2005,1330,l),
(2005,1464,l),
(849,1464,l),
(-40,0,l)
);
},
{
closed = 1;
nodes = (
(974,1395,l),
(974,518,l),
(459,518,l)
);
},
{
closed = 1;
nodes = (
(1651,1911,l),
(1418,1911,l),
(1214,1592,l),
(1327,1591,l)
);
}
);
};
layerId = "8E6A00A3-5EF9-4E6D-9A7B-9C1BBC7D44AD";
shapes = (
{
ref = AE;
},
{
pos = (1230,441);
ref = acutecomb;
}
);
width = 2030;
},
{
background = {
anchors = (
{
name = top;
pos = (1015,1464);
}
);
shapes = (
{
closed = 1;
nodes = (
(203,0,l),
(416,365,l),
(974,365,l),
(974,0,l),
(2015,0,l),
(2015,176,l),
(1203,176,l),
(1203,692,l),
(1842,692,l),
(1843,873,l),
(1203,873,l),
(1203,1288,l),
(2005,1288,l),
(2005,1464,l),
(809,1464,l),
(-49,0,l)
);
},
{
closed = 1;
nodes = (
(974,1374,l),
(974,536,l),
(510,536,l)
);
},
{
closed = 1;
nodes = (
(1050,1584,l),
(1407,1904,l),
(1103,1904,l),
(901,1583,l)
);
}
);
};
layerId = "28683A17-BAD2-44EA-B42B-E882FFDD4FE1";
shapes = (
{
ref = AE;
},
{
pos = (1262,441);
ref = acutecomb;
}
);
width = 2030;
},
{
background = {
anchors = (
{
name = top;
pos = (1015,1464);
}
);
shapes = (
{
closed = 1;
nodes = (
(117,0,l),
(367,402,l),
(974,402,l),
(974,0,l),
(2015,0,l),
(2015,106,l),
(1111,106,l),
(1111,726,l),
(1842,726,l),
(1843,835,l),
(1111,835,l),
(1111,1358,l),
(2005,1358,l),
(2005,1464,l),
(875,1464,l),
(-35,0,l)
);
},
{
closed = 1;
nodes = (
(974,1409,l),
(974,506,l),
(424,506,l)
);
},
{
closed = 1;
nodes = (
(1300,1916,l),
(1114,1916,l),
(909,1597,l),
(998,1596,l)
);
}
);
};
layerId = "E322F6D1-BA90-436B-BB35-51D9BD3EA9D1";
shapes = (
{
ref = AE;
},
{
pos = (1212,441);
ref = acutecomb;
}
);
width = 2030;
}
);
unicode = 508;
},
{
glyphname = AEmacron;
kernLeft = _A_left;
lastChange = "2023-02-02 13:10:15 +0000";
layers = (
{
background = {
anchors = (
{
name = top;
pos = (1315,1464);
}
);
shapes = (
{
closed = 1;
nodes = (
(152,0,l),
(387,387,l),
(974,387,l),
(974,0,l),
(2015,0,l),
(2015,134,l),
(1148,134,l),
(1148,712,l),
(1842,712,l),
(1843,850,l),
(1148,850,l),
(1148,1330,l),
(2005,1330,l),
(2005,1464,l),
(849,1464,l),
(-40,0,l)
);
},
{
closed = 1;
nodes = (
(974,1395,l),
(974,518,l),
(459,518,l)
);
},
{
closed = 1;
nodes = (
(1535,1668,l),
(1535,1788,l),
(1081,1788,l),
(1081,1668,l)
);
}
);
};
layerId = "8E6A00A3-5EF9-4E6D-9A7B-9C1BBC7D44AD";
shapes = (
{
ref = AE;
},
{
pos = (1011,441);
ref = macroncomb;
}
);
width = 2030;
},
{
background = {
anchors = (
{
name = top;
pos = (1015,1464);
}
);
shapes = (
{
closed = 1;
nodes = (
(203,0,l),
(416,365,l),
(974,365,l),
(974,0,l),
(2015,0,l),
(2015,176,l),
(1203,176,l),
(1203,692,l),
(1842,692,l),
(1843,873,l),
(1203,873,l),
(1203,1288,l),
(2005,1288,l),
(2005,1464,l),
(809,1464,l),
(-49,0,l)
);
},
{
closed = 1;
nodes = (
(974,1374,l),
(974,536,l),
(510,536,l)
);
},
{
closed = 1;
nodes = (
(1261,1607,l),
(1261,1764,l),
(807,1764,l),
(807,1607,l)
);
}
);
};
layerId = "28683A17-BAD2-44EA-B42B-E882FFDD4FE1";
shapes = (
{
ref = AE;
},
{
pos = (988,441);
ref = macroncomb;
}
);
width = 2030;
},
{
background = {
anchors = (
{
name = top;
pos = (1015,1464);
}
);
shapes = (
{
closed = 1;
nodes = (
(117,0,l),
(367,402,l),
(974,402,l),
(974,0,l),
(2015,0,l),
(2015,106,l),
(1111,106,l),
(1111,726,l),
(1842,726,l),
(1843,835,l),
(1111,835,l),
(1111,1358,l),
(2005,1358,l),
(2005,1464,l),
(875,1464,l),
(-35,0,l)
);
},
{
closed = 1;
nodes = (
(974,1409,l),
(974,506,l),
(424,506,l)
);
},
{
closed = 1;
nodes = (
(1235,1708,l),
(1235,1803,l),
(781,1803,l),
(781,1708,l)
);
}
);
};
layerId = "E322F6D1-BA90-436B-BB35-51D9BD3EA9D1";
shapes = (
{
ref = AE;
},
{
pos = (1046,441);
ref = macroncomb;
}
);
width = 2030;
}
);
unicode = 482;
},
{
glyphname = B;
lastChange = "2023-02-02 13:10:15 +0000";
layers = (
{
anchors = (
{
name = bottom;
pos = (657,0);
},
{
name = center;
pos = (657,732);
},
{
name = top;
pos = (657,1464);
}
);
background = {
anchors = (
{
name = top;
pos = (657,1464);
}
);
shapes = (
{
closed = 1;
nodes = (
(557,0,ls),
(1015,0,o),
(1231,85,o),
(1231,413,cs),
(1231,618,o),
(1148,754,o),
(921,780,c),
(1135.87,808.114,o),
(1186.02,935.593,o),
(1186.02,1104.78,cs),
(1186.02,1416.48,o),
(893.471,1464,o),
(593,1464,cs),
(146,1464,l),
(146,0,l)
);
},
{
closed = 1;
nodes = (
(321,717,l),
(609,717,ls),
(897,717,o),
(1057,684,o),
(1057,417,cs),
(1057,143,o),
(823,133,o),
(602,133,cs),
(321,133,l)
);
},
{
closed = 1;
nodes = (
(321,1331,l),
(600,1331,ls),
(840.137,1331,o),
(1019.1,1326.32,o),
(1019.1,1094.62,cs),
(1019.1,871.119,o),
(900.885,845,o),
(595,845,cs),
(321,845,l)
);
}
);
};
layerId = "8E6A00A3-5EF9-4E6D-9A7B-9C1BBC7D44AD";
shapes = (
{
closed = 1;
nodes = (
(557,0,ls),
(1015,0,o),
(1231,85,o),
(1231,413,cs),
(1231,618,o),
(1148,754,o),
(921,780,c),
(1135.87,808.114,o),
(1186.02,935.593,o),
(1186.02,1104.78,cs),
(1186.02,1416.48,o),
(893.471,1464,o),
(593,1464,cs),
(146,1464,l),
(146,0,l)
);
},
{
closed = 1;
nodes = (
(321,717,l),
(609,717,ls),
(897,717,o),
(1057,684,o),
(1057,417,cs),
(1057,143,o),
(823,133,o),
(602,133,cs),
(321,133,l)
);
},
{
closed = 1;
nodes = (
(321,1331,l),
(600,1331,ls),
(840.137,1331,o),
(1019.1,1326.32,o),
(1019.1,1094.62,cs),
(1019.1,871.119,o),
(900.885,845,o),
(595,845,cs),
(321,845,l)
);
}
);
userData = {
com.typemytype.robofont.layerData = {
};
};
vertWidth = 0;
width = 1314;
},
{
anchors = (
{
name = bottom;
pos = (668,0);
},
{
name = center;
pos = (668,732);
},
{
name = top;
pos = (668,1464);
}
);
background = {
anchors = (
{
name = top;
pos = (667.5,1464);
}
);
shapes = (
{
closed = 1;
nodes = (
(560,0,ls),
(1018,0,o),
(1256,85,o),
(1256,413,cs),
(1256,601,o),
(1201,744,o),
(990,777,c),
(1181,813,o),
(1208,951,o),
(1207,1110,cs),
(1206,1417,o),
(898,1464,o),
(596,1464,cs),
(134,1464,l),
(134,0,l)
);
},
{
closed = 1;
nodes = (
(365,692,l),
(639,692,ls),
(905,692,o),
(1026,665,o),
(1026,420,cs),
(1026,174,o),
(803,172,o),
(582,172,cs),
(365,172,l)
);
},
{
closed = 1;
nodes = (
(365,1292,l),
(603,1292,ls),
(838,1292,o),
(975,1298,o),
(988,1116,cs),
(1002,911,o),
(957,860,o),
(650,860,cs),
(365,860,l)
);
}
);
};
layerId = "28683A17-BAD2-44EA-B42B-E882FFDD4FE1";
shapes = (
{
closed = 1;
nodes = (
(560,0,ls),
(1018,0,o),
(1256,85,o),
(1256,413,cs),
(1256,601,o),
(1201,744,o),
(990,777,c),
(1181,813,o),
(1208,951,o),
(1207,1110,cs),
(1206,1417,o),
(898,1464,o),
(596,1464,cs),
(134,1464,l),
(134,0,l)
);
},
{
closed = 1;
nodes = (
(365,692,l),
(639,692,ls),
(905,692,o),
(1026,665,o),
(1026,420,cs),
(1026,174,o),
(803,172,o),
(582,172,cs),
(365,172,l)
);
},
{
closed = 1;
nodes = (
(365,1292,l),
(603,1292,ls),
(838,1292,o),
(975,1298,o),
(988,1116,cs),
(1002,911,o),
(957,860,o),
(650,860,cs),
(365,860,l)
);
}
);
userData = {
com.typemytype.robofont.layerData = {
};
};
vertWidth = 0;
width = 1335;
},
{
anchors = (
{
name = bottom;
pos = (650,0);
},
{
name = center;
pos = (650,732);
},
{
name = top;
pos = (650,1464);
}
);
background = {
anchors = (
{
name = top;
pos = (650,1464);
}
);
shapes = (
{
closed = 1;
nodes = (
(555,0,ls),
(1013,0,o),
(1215,85,o),
(1215,413,cs),
(1215,629,o),
(1113,760,o),
(876,782,c),
(1108.86,805.388,o),
(1171.13,926.25,o),
(1171.13,1105.53,cs),
(1171.13,1417.15,o),
(889.359,1464,o),
(591,1464,cs),
(154,1464,l),
(154,0,l)
);
},
{
closed = 1;
nodes = (
(292,733,l),
(589,733,ls),
(892,733,o),
(1077,697,o),
(1077,415,cs),
(1077,122,o),
(836,107,o),
(615,107,cs),
(292,107,l)
);
},
{
closed = 1;
nodes = (
(292,1357,l),
(598,1357,ls),
(832.435,1357,o),
(1039,1347.05,o),
(1039,1100.79,cs),
(1039,846.087,o),
(872.598,835,o),
(558,835,cs),
(292,835,l)
);
}
);
};
layerId = "E322F6D1-BA90-436B-BB35-51D9BD3EA9D1";
shapes = (
{
closed = 1;
nodes = (
(555,0,ls),
(1013,0,o),
(1215,85,o),
(1215,413,cs),
(1215,629,o),
(1113,760,o),
(876,782,c),
(1108.86,805.388,o),
(1171.13,926.25,o),
(1171.13,1105.53,cs),
(1171.13,1417.15,o),
(889.359,1464,o),
(591,1464,cs),
(154,1464,l),
(154,0,l)
);
},
{
closed = 1;
nodes = (
(292,733,l),
(589,733,ls),
(892,733,o),
(1077,697,o),
(1077,415,cs),
(1077,122,o),
(836,107,o),
(615,107,cs),
(292,107,l)
);
},
{
closed = 1;
nodes = (
(292,1357,l),
(598,1357,ls),
(832.435,1357,o),
(1039,1347.05,o),
(1039,1100.79,cs),
(1039,846.087,o),
(872.598,835,o),
(558,835,cs),
(292,835,l)
);
}
);
userData = {
com.typemytype.robofont.layerData = {
b = {
anchors = (
);
components = (
);
contours = (
);
lib = {
};
name = B;
unicodes = (
);
width = 1300;
};
};
};
vertWidth = 0;
width = 1300;
}
);
unicode = 66;
},
{
glyphname = Bdotaccent;
lastChange = "2023-02-02 13:10:15 +0000";
layers = (
{
background = {
anchors = (
{
name = top;
pos = (657,1464);
}
);
shapes = (
{
closed = 1;
nodes = (
(557,0,ls),
(1015,0,o),
(1231,85,o),
(1231,413,cs),
(1231,618,o),
(1148,754,o),
(921,780,c),
(1135.87,808.114,o),
(1186.02,935.593,o),
(1186.02,1104.78,cs),
(1186.02,1416.48,o),
(893.471,1464,o),
(593,1464,cs),
(146,1464,l),
(146,0,l)
);
},
{
closed = 1;
nodes = (
(321,717,l),
(609,717,ls),
(897,717,o),
(1057,684,o),
(1057,417,cs),
(1057,143,o),
(823,133,o),
(602,133,cs),
(321,133,l)
);
},
{
closed = 1;
nodes = (
(321,1331,l),
(600,1331,ls),
(840.137,1331,o),
(1019.1,1326.32,o),
(1019.1,1094.62,cs),
(1019.1,871.119,o),
(900.885,845,o),
(595,845,cs),
(321,845,l)
);
},
{
closed = 1;
nodes = (
(733,1673,l),
(733,1898,l),
(559,1898,l),
(559,1673,l)
);
}
);
};
layerId = "8E6A00A3-5EF9-4E6D-9A7B-9C1BBC7D44AD";
shapes = (
{
ref = B;
},
{
pos = (440,441);
ref = dotaccentcomb;
}
);
width = 1314;
},
{
background = {
anchors = (
{
name = top;
pos = (667.5,1464);
}
);
shapes = (
{
closed = 1;
nodes = (
(560,0,ls),
(1018,0,o),
(1256,85,o),
(1256,413,cs),
(1256,601,o),
(1201,744,o),
(990,777,c),
(1181,813,o),
(1208,951,o),
(1207,1110,cs),
(1206,1417,o),
(898,1464,o),
(596,1464,cs),
(134,1464,l),
(134,0,l)
);
},
{
closed = 1;
nodes = (
(365,692,l),
(639,692,ls),
(905,692,o),
(1026,665,o),
(1026,420,cs),
(1026,174,o),
(803,172,o),
(582,172,cs),
(365,172,l)
);
},
{
closed = 1;
nodes = (
(365,1292,l),
(603,1292,ls),
(838,1292,o),
(975,1298,o),
(988,1116,cs),
(1002,911,o),
(957,860,o),
(650,860,cs),
(365,860,l)
);
},
{
closed = 1;
nodes = (
(775,1675,l),
(775,1919,l),
(546,1919,l),
(546,1675,l)
);
}
);
};
layerId = "28683A17-BAD2-44EA-B42B-E882FFDD4FE1";
shapes = (
{
ref = B;
},
{
pos = (453,441);
ref = dotaccentcomb;
}
);
width = 1335;
},
{
background = {
anchors = (
{
name = top;
pos = (650,1464);
}
);
shapes = (
{
closed = 1;
nodes = (
(555,0,ls),
(1013,0,o),
(1215,85,o),
(1215,413,cs),
(1215,629,o),
(1113,760,o),
(876,782,c),
(1108.86,805.388,o),
(1171.13,926.25,o),
(1171.13,1105.53,cs),
(1171.13,1417.15,o),
(889.359,1464,o),
(591,1464,cs),
(154,1464,l),
(154,0,l)
);
},
{
closed = 1;
nodes = (
(292,733,l),
(589,733,ls),
(892,733,o),
(1077,697,o),
(1077,415,cs),
(1077,122,o),
(836,107,o),
(615,107,cs),
(292,107,l)
);
},
{
closed = 1;
nodes = (
(292,1357,l),
(598,1357,ls),
(832.435,1357,o),
(1039,1347.05,o),
(1039,1100.79,cs),
(1039,846.087,o),
(872.598,835,o),
(558,835,cs),
(292,835,l)
);
},
{
closed = 1;
nodes = (
(713,1672,l),
(713,1884,l),
(576,1884,l),
(576,1672,l)
);
}
);
};
layerId = "E322F6D1-BA90-436B-BB35-51D9BD3EA9D1";
shapes = (
{
ref = B;
},
{
pos = (431,441);
ref = dotaccentcomb;
}
);
width = 1300;
}
);
unicode = 7682;
},
{
glyphname = C;
kernLeft = _O_left;
lastChange = "2023-02-02 13:10:15 +0000";
layers = (
{
anchors = (
{
name = bottom;
pos = (697,0);
},
{
name = top;
pos = (795,1464);
}
);
background = {
anchors = (
{
name = top;
pos = (761,1464);
}
);
shapes = (
{
closed = 1;
nodes = (
(1013,-24,o),
(1220,93,o),
(1300,361,c),
(1138,398,l),
(1088,233,o),
(976,116,o),
(748,116,cs),
(416,116,o),
(301,338,o),
(301,735,cs),
(301,1132,o),
(416,1350,o),
(748,1350,cs),
(976,1350,o),
(1088,1233,o),
(1138,1067,c),
(1300,1105,l),
(1220,1373,o),
(1013,1490,o),
(755,1490,cs),
(356,1490,o),
(116,1266,o),
(116,735,cs),
(116,204,o),
(356,-24,o),
(755,-24,cs)
);
}
);
};
layerId = "8E6A00A3-5EF9-4E6D-9A7B-9C1BBC7D44AD";
shapes = (
{
closed = 1;
nodes = (
(1013,-24,o),
(1220,93,o),
(1300,361,c),
(1138,398,l),
(1088,233,o),
(976,116,o),
(748,116,cs),
(416,116,o),
(301,338,o),
(301,735,cs),
(301,1132,o),
(416,1350,o),
(748,1350,cs),
(976,1350,o),
(1088,1233,o),
(1138,1067,c),
(1300,1105,l),
(1220,1373,o),
(1013,1490,o),
(755,1490,cs),
(356,1490,o),
(116,1266,o),
(116,735,cs),
(116,204,o),
(356,-24,o),
(755,-24,cs)
);
}
);
userData = {
com.typemytype.robofont.layerData = {
};
};
vertWidth = 0;
width = 1394;
},
{
anchors = (
{
name = bottom;
pos = (707,0);
},
{
name = top;
pos = (755,1464);
}
);
background = {
anchors = (
{
name = bot;
pos = (779,0);
},
{
name = top;
pos = (747,1464);
}
);
shapes = (
{
closed = 1;
nodes = (
(1037,-24,o),
(1255,76,o),
(1351,354,c),
(1137,403,l),
(1079,258,o),
(991,159,o),
(769,159,cs),
(462,159,o),
(357,337,o),
(357,734,cs),
(357,1131,o),
(462,1304,o),
(769,1304,cs),
(991,1304,o),
(1079,1205,o),
(1137,1061,c),
(1351,1110,l),
(1255,1388,o),
(1037,1488,o),
(779,1488,cs),
(351,1488,o),
(113,1265,o),
(113,734,cs),
(113,203,o),
(351,-24,o),
(779,-24,cs)
);
}
);
};
layerId = "28683A17-BAD2-44EA-B42B-E882FFDD4FE1";
shapes = (
{
closed = 1;
nodes = (
(1037,-24,o),
(1255,76,o),
(1351,354,c),
(1137,403,l),
(1079,258,o),
(991,159,o),
(769,159,cs),
(462,159,o),
(357,337,o),
(357,734,cs),
(357,1131,o),
(462,1304,o),
(769,1304,cs),
(991,1304,o),
(1079,1205,o),
(1137,1061,c),
(1351,1110,l),
(1255,1388,o),
(1037,1488,o),
(779,1488,cs),
(351,1488,o),
(113,1265,o),
(113,734,cs),
(113,203,o),
(351,-24,o),
(779,-24,cs)
);
}
);
userData = {
com.typemytype.robofont.layerData = {
};
};
vertWidth = 0;
width = 1414;
},
{
anchors = (
{
name = bottom;
pos = (691,0);
},
{
name = top;
pos = (720,1464);
}
);
background = {
anchors = (
{
name = top;
pos = (711,1464);
}
);
shapes = (
{
closed = 1;
nodes = (
(997,-24,o),
(1196,104,o),
(1266,366,c),
(1139,395,l),
(1094,216,o),
(966,87,o),
(734,87,cs),
(386,87,o),
(264,339,o),
(264,736,cs),
(264,1133,o),
(386,1380,o),
(734,1380,cs),
(966,1380,o),
(1094,1252,o),
(1139,1072,c),
(1266,1101,l),
(1196,1363,o),
(997,1491,o),
(739,1491,cs),
(360,1491,o),
(118,1267,o),
(118,736,cs),
(118,205,o),
(360,-24,o),
(739,-24,cs)
);
}
);
};
layerId = "E322F6D1-BA90-436B-BB35-51D9BD3EA9D1";
shapes = (
{
closed = 1;
nodes = (
(997,-24,o),
(1196,104,o),
(1266,366,c),
(1139,395,l),
(1094,216,o),
(966,87,o),
(734,87,cs),
(386,87,o),
(264,339,o),
(264,736,cs),
(264,1133,o),
(386,1380,o),
(734,1380,cs),
(966,1380,o),
(1094,1252,o),
(1139,1072,c),
(1266,1101,l),
(1196,1363,o),
(997,1491,o),
(739,1491,cs),
(360,1491,o),
(118,1267,o),
(118,736,cs),
(118,205,o),
(360,-24,o),
(739,-24,cs)
);
}
);
userData = {
com.typemytype.robofont.layerData = {
b = {
anchors = (
);
components = (
);
contours = (
);
lib = {
};
name = C;
unicodes = (
);
width = 1381;
};
};
};
vertWidth = 0;
width = 1381;
}
);
unicode = 67;
},
{
glyphname = Cacute;
kernLeft = _O_left;
lastChange = "2023-02-02 13:10:15 +0000";
layers = (
{
background = {
anchors = (
{
name = top;
pos = (761,1464);
}
);
shapes = (
{
closed = 1;
nodes = (
(1013,-24,o),
(1220,93,o),
(1300,361,c),
(1138,398,l),
(1088,233,o),
(976,116,o),
(748,116,cs),
(416,116,o),
(301,338,o),
(301,735,cs),
(301,1132,o),
(416,1350,o),
(748,1350,cs),
(976,1350,o),
(1088,1233,o),
(1138,1067,c),
(1300,1105,l),
(1220,1373,o),
(1013,1490,o),
(755,1490,cs),
(356,1490,o),
(116,1266,o),
(116,735,cs),
(116,204,o),
(356,-24,o),
(755,-24,cs)
);
},
{
closed = 1;
nodes = (
(1127,1911,l),
(894,1911,l),
(690,1592,l),
(803,1591,l)
);
}
);
};
layerId = "8E6A00A3-5EF9-4E6D-9A7B-9C1BBC7D44AD";
shapes = (
{
ref = C;
},
{
pos = (649,441);
ref = acutecomb;
}
);
userData = {
com.typemytype.robofont.layerData = {
};
};
width = 1394;
},
{
background = {
anchors = (
{
name = bot;
pos = (779,0);
},
{
name = top;
pos = (747,1464);
}
);
shapes = (
{
closed = 1;
nodes = (
(1037,-24,o),
(1255,76,o),
(1351,354,c),
(1137,403,l),
(1079,258,o),
(991,159,o),
(769,159,cs),
(462,159,o),
(357,337,o),
(357,734,cs),
(357,1131,o),
(462,1304,o),
(769,1304,cs),
(991,1304,o),
(1079,1205,o),
(1137,1061,c),
(1351,1110,l),
(1255,1388,o),
(1037,1488,o),
(779,1488,cs),
(351,1488,o),
(113,1265,o),
(113,734,cs),
(113,203,o),
(351,-24,o),
(779,-24,cs)
);
},
{
closed = 1;
nodes = (
(782,1584,l),
(1139,1904,l),
(835,1904,l),
(633,1583,l)
);
}
);
};
layerId = "28683A17-BAD2-44EA-B42B-E882FFDD4FE1";
shapes = (
{
ref = C;
},
{
pos = (648,441);
ref = acutecomb;
}
);
userData = {
com.typemytype.robofont.layerData = {
};
};
width = 1414;
},
{
background = {
anchors = (
{
name = top;
pos = (711,1464);
}
);
shapes = (
{
closed = 1;
nodes = (
(997,-24,o),
(1196,104,o),
(1266,366,c),
(1139,395,l),
(1094,216,o),
(966,87,o),
(734,87,cs),
(386,87,o),
(264,339,o),
(264,736,cs),
(264,1133,o),
(386,1380,o),
(734,1380,cs),
(966,1380,o),
(1094,1252,o),
(1139,1072,c),
(1266,1101,l),
(1196,1363,o),
(997,1491,o),
(739,1491,cs),
(360,1491,o),
(118,1267,o),
(118,736,cs),
(118,205,o),
(360,-24,o),
(739,-24,cs)
);
},
{
closed = 1;
nodes = (
(996,1916,l),
(810,1916,l),
(605,1597,l),
(694,1596,l)
);
}
);
};
layerId = "E322F6D1-BA90-436B-BB35-51D9BD3EA9D1";
shapes = (
{
ref = C;
},
{
pos = (531,441);
ref = acutecomb;
}
);
userData = {
com.typemytype.robofont.layerData = {
b = {
anchors = (
);
components = (
);
contours = (
);
lib = {
};
name = Cacute;
unicodes = (
);
width = 1381;
};
};
};
width = 1381;
}
);
unicode = 262;
},
{
glyphname = Ccaron;
kernLeft = _O_left;
lastChange = "2023-02-02 13:10:15 +0000";
layers = (
{
background = {
anchors = (
{
name = top;
pos = (761,1464);
}
);
shapes = (
{
closed = 1;
nodes = (
(1013,-24,o),
(1220,93,o),
(1300,361,c),
(1138,398,l),
(1088,233,o),
(976,116,o),
(748,116,cs),
(416,116,o),
(301,338,o),
(301,735,cs),
(301,1132,o),
(416,1350,o),
(748,1350,cs),
(976,1350,o),
(1088,1233,o),
(1138,1067,c),
(1300,1105,l),
(1220,1373,o),
(1013,1490,o),
(755,1490,cs),
(356,1490,o),
(116,1266,o),
(116,735,cs),
(116,204,o),
(356,-24,o),
(755,-24,cs)
);
},
{
closed = 1;
nodes = (
(900,1595,l),
(1073,1915,l),
(958,1915,l),
(796,1676,l),
(635,1915,l),
(520,1915,l),
(693,1595,l)
);
}
);
};
layerId = "8E6A00A3-5EF9-4E6D-9A7B-9C1BBC7D44AD";
shapes = (
{
ref = C;
},
{
pos = (370,441);
ref = caroncomb;
}
);
userData = {
com.typemytype.robofont.layerData = {
};
};
width = 1394;
},
{
background = {
anchors = (
{
name = bot;
pos = (779,0);
},
{
name = top;
pos = (747,1464);
}
);
shapes = (
{
closed = 1;
nodes = (
(1037,-24,o),
(1255,76,o),
(1351,354,c),
(1137,403,l),
(1079,258,o),
(991,159,o),
(769,159,cs),
(462,159,o),
(357,337,o),
(357,734,cs),
(357,1131,o),
(462,1304,o),
(769,1304,cs),
(991,1304,o),
(1079,1205,o),
(1137,1061,c),
(1351,1110,l),
(1255,1388,o),
(1037,1488,o),
(779,1488,cs),
(351,1488,o),
(113,1265,o),
(113,734,cs),
(113,203,o),
(351,-24,o),
(779,-24,cs)
);
},
{
closed = 1;
nodes = (
(886,1595,l),
(1037,1915,l),
(888,1915,l),
(752,1702,l),
(617,1915,l),
(469,1915,l),
(619,1595,l)
);
}
);
};
layerId = "28683A17-BAD2-44EA-B42B-E882FFDD4FE1";
shapes = (
{
ref = C;
},
{
pos = (330,441);
ref = caroncomb;
}
);
userData = {
com.typemytype.robofont.layerData = {
};
};
width = 1414;
},
{
background = {
anchors = (
{
name = top;
pos = (711,1464);
}
);
shapes = (
{
closed = 1;
nodes = (
(997,-24,o),
(1196,104,o),
(1266,366,c),
(1139,395,l),
(1094,216,o),
(966,87,o),
(734,87,cs),
(386,87,o),
(264,339,o),
(264,736,cs),
(264,1133,o),
(386,1380,o),
(734,1380,cs),
(966,1380,o),
(1094,1252,o),
(1139,1072,c),
(1266,1101,l),
(1196,1363,o),
(997,1491,o),
(739,1491,cs),
(360,1491,o),
(118,1267,o),
(118,736,cs),
(118,205,o),
(360,-24,o),
(739,-24,cs)
);
},
{
closed = 1;
nodes = (
(800,1595,l),
(988,1915,l),
(896,1915,l),
(716,1659,l),
(538,1915,l),
(445,1915,l),
(633,1595,l)
);
}
);
};
layerId = "E322F6D1-BA90-436B-BB35-51D9BD3EA9D1";
shapes = (
{
ref = C;
},
{
pos = (295,441);
ref = caroncomb;
}
);
userData = {
com.typemytype.robofont.layerData = {
b = {
anchors = (
);
components = (
);
contours = (
);
lib = {
};
name = Ccaron;
unicodes = (
);
width = 1381;
};
};
};
width = 1381;
}
);
unicode = 268;
},
{
glyphname = Ccedilla;
kernLeft = _O_left;
lastChange = "2023-02-02 13:10:15 +0000";
layers = (
{
background = {
anchors = (
{
name = top;
pos = (761,1464);
}
);
shapes = (
{
closed = 1;
nodes = (
(1013,-24,o),
(1220,93,o),
(1300,361,c),
(1138,398,l),
(1088,233,o),
(976,116,o),
(748,116,cs),
(416,116,o),
(301,338,o),
(301,735,cs),
(301,1132,o),
(416,1350,o),
(748,1350,cs),
(976,1350,o),
(1088,1233,o),
(1138,1067,c),
(1300,1105,l),
(1220,1373,o),
(1013,1490,o),
(755,1490,cs),
(356,1490,o),
(116,1266,o),
(116,735,cs),
(116,204,o),
(356,-24,o),
(755,-24,cs)
);
},
{
closed = 1;
nodes = (
(820,-408,o),
(914,-335,o),
(914,-225,cs),
(914,-181,o),
(899,-131,o),
(865,-78,cs),
(815,0,l),
(715,0,l),
(745,-63,ls),
(773,-122,o),
(785,-170,o),
(785,-207,cs),
(785,-283,o),
(735,-317,o),
(665,-317,cs),
(632,-317,o),
(596,-310,o),
(558,-296,c),
(558,-373,l),
(607,-397,o),
(656,-408,o),
(701,-408,cs)
);
}
);
};
layerId = "8E6A00A3-5EF9-4E6D-9A7B-9C1BBC7D44AD";
shapes = (
{
ref = C;
},
{
pos = (501,0);
ref = cedillacomb;
}
);
userData = {
com.typemytype.robofont.layerData = {
};
};
width = 1394;
},
{
background = {
anchors = (
{
name = bot;
pos = (779,0);
},
{
name = top;
pos = (747,1464);
}
);
shapes = (
{
closed = 1;
nodes = (
(1037,-24,o),
(1255,76,o),
(1351,354,c),
(1137,403,l),
(1079,258,o),
(991,159,o),
(769,159,cs),
(462,159,o),
(357,337,o),
(357,734,cs),
(357,1131,o),
(462,1304,o),
(769,1304,cs),
(991,1304,o),
(1079,1205,o),
(1137,1061,c),
(1351,1110,l),
(1255,1388,o),
(1037,1488,o),
(779,1488,cs),
(351,1488,o),
(113,1265,o),
(113,734,cs),
(113,203,o),
(351,-24,o),
(779,-24,cs)
);
},
{
closed = 1;
nodes = (
(858,-362,o),
(939,-303,o),
(939,-190,cs),
(939,-155,o),
(930,-120,o),
(911,-90,cs),
(854,0,l),
(717,0,l),
(764,-90,ls),
(777,-115,o),
(785,-142,o),
(785,-166,cs),
(785,-208,o),
(762,-241,o),
(706,-241,cs),
(684,-241,o),
(658,-235,o),
(630,-226,c),
(630,-338,l),
(672,-354,o),
(714,-362,o),
(753,-362,cs)
);
}
);
};
layerId = "28683A17-BAD2-44EA-B42B-E882FFDD4FE1";
shapes = (
{
ref = C;
},
{
pos = (497,0);
ref = cedillacomb;
}
);
userData = {
com.typemytype.robofont.layerData = {
};
};
width = 1414;
},
{
background = {
anchors = (
{
name = top;
pos = (711,1464);
}
);
shapes = (
{
closed = 1;
nodes = (
(997,-24,o),
(1196,104,o),
(1266,366,c),
(1139,395,l),
(1094,216,o),
(966,87,o),
(734,87,cs),
(386,87,o),
(264,339,o),
(264,736,cs),
(264,1133,o),
(386,1380,o),
(734,1380,cs),
(966,1380,o),
(1094,1252,o),
(1139,1072,c),
(1266,1101,l),
(1196,1363,o),
(997,1491,o),
(739,1491,cs),
(360,1491,o),
(118,1267,o),
(118,736,cs),
(118,205,o),
(360,-24,o),
(739,-24,cs)
);
},
{
closed = 1;
nodes = (
(748,-277,o),
(811,-224,o),
(811,-145,cs),
(811,-121,o),
(805,-94,o),
(792,-66,cs),
(762,0,l),
(696,0,l),
(716,-51,ls),
(730,-86,o),
(736,-114,o),
(736,-136,cs),
(736,-189,o),
(701,-207,o),
(654,-207,cs),
(631,-207,o),
(605,-203,o),
(579,-196,c),
(579,-258,l),
(609,-271,o),
(639,-277,o),
(666,-277,cs)
);
}
);
};
layerId = "E322F6D1-BA90-436B-BB35-51D9BD3EA9D1";
shapes = (
{
ref = C;
},
{
pos = (487,0);
ref = cedillacomb;
}
);
userData = {
com.typemytype.robofont.layerData = {
b = {
anchors = (
);
components = (
);
contours = (
);
lib = {
};
name = Ccedilla;
unicodes = (
);
width = 1381;
};
};
};
width = 1381;
}
);
unicode = 199;
},
{
glyphname = Ccircumflex;
kernLeft = _O_left;
lastChange = "2023-02-02 13:10:15 +0000";
layers = (
{
background = {
anchors = (
{
name = top;
pos = (761,1464);
}
);
shapes = (
{
closed = 1;
nodes = (
(1013,-24,o),
(1220,93,o),
(1300,361,c),
(1138,398,l),
(1088,233,o),
(976,116,o),
(748,116,cs),
(416,116,o),
(301,338,o),
(301,735,cs),
(301,1132,o),
(416,1350,o),
(748,1350,cs),
(976,1350,o),
(1088,1233,o),
(1138,1067,c),
(1300,1105,l),
(1220,1373,o),
(1013,1490,o),
(755,1490,cs),
(356,1490,o),
(116,1266,o),
(116,735,cs),
(116,204,o),
(356,-24,o),
(755,-24,cs)
);
},
{
closed = 1;
nodes = (
(622,1595,l),
(783,1834,l),
(945,1595,l),
(1060,1595,l),
(887,1915,l),
(680,1915,l),
(507,1595,l)
);
}
);
};
layerId = "8E6A00A3-5EF9-4E6D-9A7B-9C1BBC7D44AD";
shapes = (
{
ref = C;
},
{
pos = (383,441);
ref = circumflexcomb;
}
);
userData = {
com.typemytype.robofont.layerData = {
};
};
width = 1394;
},
{
background = {
anchors = (
{
name = bot;
pos = (779,0);
},
{
name = top;
pos = (747,1464);
}
);
shapes = (
{
closed = 1;
nodes = (
(1037,-24,o),
(1255,76,o),
(1351,354,c),
(1137,403,l),
(1079,258,o),
(991,159,o),
(769,159,cs),
(462,159,o),
(357,337,o),
(357,734,cs),
(357,1131,o),
(462,1304,o),
(769,1304,cs),
(991,1304,o),
(1079,1205,o),
(1137,1061,c),
(1351,1110,l),
(1255,1388,o),
(1037,1488,o),
(779,1488,cs),
(351,1488,o),
(113,1265,o),
(113,734,cs),
(113,203,o),
(351,-24,o),
(779,-24,cs)
);
},
{
closed = 1;
nodes = (
(621,1595,l),
(755,1808,l),
(891,1595,l),
(1040,1595,l),
(889,1915,l),
(622,1915,l),
(472,1595,l)
);
}
);
};
layerId = "28683A17-BAD2-44EA-B42B-E882FFDD4FE1";
shapes = (
{
ref = C;
},
{
pos = (327,441);
ref = circumflexcomb;
}
);
userData = {
com.typemytype.robofont.layerData = {
};
};
width = 1414;
},
{
background = {
anchors = (
{
name = top;
pos = (711,1464);
}
);
shapes = (
{
closed = 1;
nodes = (
(997,-24,o),
(1196,104,o),
(1266,366,c),
(1139,395,l),
(1094,216,o),
(966,87,o),
(734,87,cs),
(386,87,o),
(264,339,o),
(264,736,cs),
(264,1133,o),
(386,1380,o),
(734,1380,cs),
(966,1380,o),
(1094,1252,o),
(1139,1072,c),
(1266,1101,l),
(1196,1363,o),
(997,1491,o),
(739,1491,cs),
(360,1491,o),
(118,1267,o),
(118,736,cs),
(118,205,o),
(360,-24,o),
(739,-24,cs)
);
},
{
closed = 1;
nodes = (
(513,1595,l),
(692,1852,l),
(871,1595,l),
(964,1595,l),
(776,1915,l),
(609,1915,l),
(421,1595,l)
);
}
);
};
layerId = "E322F6D1-BA90-436B-BB35-51D9BD3EA9D1";
shapes = (
{
ref = C;
},
{
pos = (319,441);
ref = circumflexcomb;
}
);
userData = {
com.typemytype.robofont.layerData = {
b = {
anchors = (
);
components = (
);
contours = (
);
lib = {
};
name = Ccircumflex;
unicodes = (
);
width = 1381;
};
};
};
width = 1381;
}
);
unicode = 264;
},
{
glyphname = Cdotaccent;
kernLeft = _O_left;
lastChange = "2023-02-02 13:10:15 +0000";
layers = (
{
background = {
anchors = (
{
name = top;
pos = (761,1464);
}
);
shapes = (
{
closed = 1;
nodes = (
(1013,-24,o),
(1220,93,o),
(1300,361,c),
(1138,398,l),
(1088,233,o),
(976,116,o),
(748,116,cs),
(416,116,o),
(301,338,o),
(301,735,cs),
(301,1132,o),
(416,1350,o),
(748,1350,cs),
(976,1350,o),
(1088,1233,o),
(1138,1067,c),
(1300,1105,l),
(1220,1373,o),
(1013,1490,o),
(755,1490,cs),
(356,1490,o),
(116,1266,o),
(116,735,cs),
(116,204,o),
(356,-24,o),
(755,-24,cs)
);
},
{
closed = 1;
nodes = (
(867,1673,l),
(867,1898,l),
(693,1898,l),
(693,1673,l)
);
}
);
};
layerId = "8E6A00A3-5EF9-4E6D-9A7B-9C1BBC7D44AD";
shapes = (
{
ref = C;
},
{
pos = (578,441);
ref = dotaccentcomb;
}
);
userData = {
com.typemytype.robofont.layerData = {
};
};
width = 1394;
},
{
background = {
anchors = (
{
name = bot;
pos = (779,0);
},
{
name = top;
pos = (747,1464);
}
);
shapes = (
{
closed = 1;
nodes = (
(1037,-24,o),
(1255,76,o),
(1351,354,c),
(1137,403,l),
(1079,258,o),
(991,159,o),
(769,159,cs),
(462,159,o),
(357,337,o),
(357,734,cs),
(357,1131,o),
(462,1304,o),
(769,1304,cs),
(991,1304,o),
(1079,1205,o),
(1137,1061,c),
(1351,1110,l),
(1255,1388,o),
(1037,1488,o),
(779,1488,cs),
(351,1488,o),
(113,1265,o),
(113,734,cs),
(113,203,o),
(351,-24,o),
(779,-24,cs)
);
},
{
closed = 1;
nodes = (
(854,1675,l),
(854,1919,l),
(625,1919,l),
(625,1675,l)
);
}
);
};
layerId = "28683A17-BAD2-44EA-B42B-E882FFDD4FE1";
shapes = (
{
ref = C;
},
{
pos = (540,441);
ref = dotaccentcomb;
}
);
userData = {
com.typemytype.robofont.layerData = {
};
};
width = 1414;
},
{
background = {
anchors = (
{
name = top;
pos = (711,1464);
}
);
shapes = (
{
closed = 1;
nodes = (
(997,-24,o),
(1196,104,o),
(1266,366,c),
(1139,395,l),
(1094,216,o),
(966,87,o),
(734,87,cs),
(386,87,o),
(264,339,o),
(264,736,cs),
(264,1133,o),
(386,1380,o),
(734,1380,cs),
(966,1380,o),
(1094,1252,o),
(1139,1072,c),
(1266,1101,l),
(1196,1363,o),
(997,1491,o),
(739,1491,cs),
(360,1491,o),
(118,1267,o),
(118,736,cs),
(118,205,o),
(360,-24,o),
(739,-24,cs)
);
},
{
closed = 1;
nodes = (
(774,1672,l),
(774,1884,l),
(637,1884,l),
(637,1672,l)
);
}
);
};
layerId = "E322F6D1-BA90-436B-BB35-51D9BD3EA9D1";
shapes = (
{
ref = C;
},
{
pos = (501,441);
ref = dotaccentcomb;
}
);
userData = {
com.typemytype.robofont.layerData = {
b = {
anchors = (
);
components = (
);
contours = (
);
lib = {
};
name = Cdotaccent;
unicodes = (
);
width = 1381;
};
};
};
width = 1381;
}
);
unicode = 266;
},
{
glyphname = D;
kernRight = _O_right;
lastChange = "2023-02-02 13:10:15 +0000";
layers = (
{
anchors = (
{
name = bottom;
pos = (715,0);
},
{
name = center;
pos = (715,732);
},
{
name = top;
pos = (715,1464);
}
);
background = {
anchors = (
{
name = top;
pos = (714.5,1464);
}
);
shapes = (
{
closed = 1;
nodes = (
(663,0,ls),
(1115,0,o),
(1313,207,o),
(1313,738,cs),
(1313,1280,o),
(1091,1464,o),
(667,1464,cs),
(146,1464,l),
(146,0,l)
);
},
{
closed = 1;
nodes = (
(321,1330,l),
(667,1330,ls),
(1036,1330,o),
(1136,1129,o),
(1136,737,cs),
(1136,290,o),
(1007,134,o),
(609,134,cs),
(321,134,l)
);
}
);
};
layerId = "8E6A00A3-5EF9-4E6D-9A7B-9C1BBC7D44AD";
shapes = (
{
closed = 1;
nodes = (
(663,0,ls),
(1115,0,o),
(1313,207,o),
(1313,738,cs),
(1313,1280,o),
(1091,1464,o),
(667,1464,cs),
(146,1464,l),
(146,0,l)
);
},
{
closed = 1;
nodes = (
(321,1330,l),
(667,1330,ls),
(1036,1330,o),
(1136,1129,o),
(1136,737,cs),
(1136,290,o),
(1007,134,o),
(609,134,cs),
(321,134,l)
);
}
);
userData = {
com.typemytype.robofont.layerData = {
};
};
vertWidth = 0;
width = 1429;
},
{
anchors = (
{
name = bottom;
pos = (734,0);
},
{
name = center;
pos = (734,732);
},
{
name = top;
pos = (734,1464);
}
);
background = {
anchors = (
{
name = bot;
pos = (734,0);
},
{
name = mid;
pos = (734,1023);
},
{
name = top;
pos = (734,1464);
}
);
shapes = (
{
closed = 1;
nodes = (
(690,0,ls),
(1168,0,o),
(1354,215,o),
(1354,738,cs),
(1354,1280,o),
(1135,1464,o),
(688,1464,cs),
(134,1464,l),
(134,0,l)
);
},
{
closed = 1;
nodes = (
(365,1288,l),
(686,1288,ls),
(1026,1288,o),
(1122,1126,o),
(1122,737,cs),
(1122,293,o),
(997,176,o),
(625,176,cs),
(365,176,l)
);
}
);
};
layerId = "28683A17-BAD2-44EA-B42B-E882FFDD4FE1";
shapes = (
{
closed = 1;
nodes = (
(690,0,ls),
(1168,0,o),
(1354,215,o),
(1354,738,cs),
(1354,1280,o),
(1135,1464,o),
(688,1464,cs),
(134,1464,l),
(134,0,l)
);
},
{
closed = 1;
nodes = (
(365,1288,l),
(686,1288,ls),
(1026,1288,o),
(1122,1126,o),
(1122,737,cs),
(1122,293,o),
(997,176,o),
(625,176,cs),
(365,176,l)
);
}
);
userData = {
com.typemytype.robofont.layerData = {
};
};
vertWidth = 0;
width = 1468;
},
{
anchors = (
{
name = bottom;
pos = (702,0);
},
{
name = center;
pos = (702,732);
},
{
name = top;
pos = (702,1464);
}
);
background = {
anchors = (
{
name = top;
pos = (702,1464);
}
);
shapes = (
{
closed = 1;
nodes = (
(645,0,ls),
(1080,0,o),
(1286,202,o),
(1286,738,cs),
(1286,1280,o),
(1062,1464,o),
(653,1464,cs),
(154,1464,l),
(154,0,l)
);
},
{
closed = 1;
nodes = (
(292,1358,l),
(655,1358,ls),
(1042,1358,o),
(1146,1131,o),
(1146,737,cs),
(1146,288,o),
(1013,106,o),
(599,106,cs),
(292,106,l)
);
}
);
};
layerId = "E322F6D1-BA90-436B-BB35-51D9BD3EA9D1";
shapes = (
{
closed = 1;
nodes = (
(645,0,ls),
(1080,0,o),
(1286,202,o),
(1286,738,cs),
(1286,1280,o),
(1062,1464,o),
(653,1464,cs),
(154,1464,l),
(154,0,l)
);
},
{
closed = 1;
nodes = (
(292,1358,l),
(655,1358,ls),
(1042,1358,o),
(1146,1131,o),
(1146,737,cs),
(1146,288,o),
(1013,106,o),
(599,106,cs),
(292,106,l)
);
}
);
userData = {
com.typemytype.robofont.layerData = {
b = {
anchors = (
);
components = (
);
contours = (
);
lib = {
};
name = D;
unicodes = (
);
width = 1404;
};
};
};
vertWidth = 0;
width = 1404;
}
);
unicode = 68;
},
{
glyphname = DZ;
lastChange = "2023-02-02 13:10:15 +0000";
layers = (
{
background = {
anchors = (
{
name = top;
pos = (2017,1464);
}
);
shapes = (
{
closed = 1;
nodes = (
(663,0,ls),
(1115,0,o),
(1313,207,o),
(1313,738,cs),
(1313,1280,o),
(1091,1464,o),
(667,1464,cs),
(146,1464,l),
(146,0,l)
);
},
{
closed = 1;
nodes = (
(321,1330,l),
(667,1330,ls),
(1036,1330,o),
(1136,1129,o),
(1136,737,cs),
(1136,290,o),
(1007,134,o),
(609,134,cs),
(321,134,l)
);
},
{
closed = 1;
nodes = (
(2563,0,l),
(2569,132,l),
(1698,132,l),
(2563,1351,l),
(2563,1464,l),
(1557,1464,l),
(1557,1332,l),
(2338,1332,l),
(1474,118,l),
(1474,0,l)
);
}
);
};
layerId = "8E6A00A3-5EF9-4E6D-9A7B-9C1BBC7D44AD";
shapes = (
{
ref = D;
},
{
pos = (1429,0);
ref = Z;
}
);
width = 2605;
},
{
background = {
anchors = (
{
name = bot;
pos = (2056,0);
},
{
name = mid;
pos = (734,1023);
},
{
name = top;
pos = (2056,1464);
}
);
shapes = (
{
closed = 1;
nodes = (
(690,0,ls),
(1168,0,o),
(1354,215,o),
(1354,738,cs),
(1354,1280,o),
(1135,1464,o),
(688,1464,cs),
(134,1464,l),
(134,0,l)
);
},
{
closed = 1;
nodes = (
(365,1288,l),
(686,1288,ls),
(1026,1288,o),
(1122,1126,o),
(1122,737,cs),
(1122,293,o),
(997,176,o),
(625,176,cs),
(365,176,l)
);
},
{
closed = 1;
nodes = (
(2602,0,l),
(2609,173,l),
(1803,173,l),
(2605,1318,l),
(2605,1464,l),
(1592,1464,l),
(1592,1290,l),
(2307,1290,l),
(1509,156,l),
(1509,0,l)
);
}
);
};
layerId = "28683A17-BAD2-44EA-B42B-E882FFDD4FE1";
shapes = (
{
ref = D;
},
{
pos = (1468,0);
ref = Z;
}
);
width = 2644;
},
{
background = {
anchors = (
{
name = top;
pos = (1992,1464);
}
);
shapes = (
{
closed = 1;
nodes = (
(645,0,ls),
(1080,0,o),
(1286,202,o),
(1286,738,cs),
(1286,1280,o),
(1062,1464,o),
(653,1464,cs),
(154,1464,l),
(154,0,l)
);
},
{
closed = 1;
nodes = (
(292,1358,l),
(655,1358,ls),
(1042,1358,o),
(1146,1131,o),
(1146,737,cs),
(1146,288,o),
(1013,106,o),
(599,106,cs),
(292,106,l)
);
},
{
closed = 1;
nodes = (
(2538,0,l),
(2543,105,l),
(1629,105,l),
(2536,1373,l),
(2536,1464,l),
(1535,1464,l),
(1535,1360,l),
(2359,1360,l),
(1452,93,l),
(1452,0,l)
);
}
);
};
layerId = "E322F6D1-BA90-436B-BB35-51D9BD3EA9D1";
shapes = (
{
ref = D;
},
{
pos = (1404,0);
ref = Z;
}
);
width = 2580;
}
);
unicode = 497;
},
{
glyphname = DZcaron;
lastChange = "2023-02-02 13:10:15 +0000";
layers = (
{
background = {
anchors = (
{
name = top;
pos = (2017,1464);
}
);
shapes = (
{
closed = 1;
nodes = (
(663,0,ls),
(1115,0,o),
(1313,207,o),
(1313,738,cs),
(1313,1280,o),
(1091,1464,o),
(667,1464,cs),
(146,1464,l),
(146,0,l)
);
},
{
closed = 1;
nodes = (
(321,1330,l),
(667,1330,ls),
(1036,1330,o),
(1136,1129,o),
(1136,737,cs),
(1136,290,o),
(1007,134,o),
(609,134,cs),
(321,134,l)
);
},
{
closed = 1;
nodes = (
(2563,0,l),
(2569,132,l),
(1698,132,l),
(2563,1351,l),
(2563,1464,l),
(1557,1464,l),
(1557,1332,l),
(2338,1332,l),
(1474,118,l),
(1474,0,l)
);
},
{
closed = 1;
nodes = (
(2126,1595,l),
(2299,1915,l),
(2184,1915,l),
(2022,1676,l),
(1861,1915,l),
(1746,1915,l),
(1919,1595,l)
);
}
);
};
layerId = "8E6A00A3-5EF9-4E6D-9A7B-9C1BBC7D44AD";
shapes = (
{
ref = DZ;
},
{
pos = (1592,441);
ref = caroncomb;
}
);
width = 2605;
},
{
background = {
anchors = (
{
name = bot;
pos = (2056,0);
},
{
name = mid;
pos = (734,1023);
},
{
name = top;
pos = (2056,1464);
}
);
shapes = (
{
closed = 1;
nodes = (
(690,0,ls),
(1168,0,o),
(1354,215,o),
(1354,738,cs),
(1354,1280,o),
(1135,1464,o),
(688,1464,cs),
(134,1464,l),
(134,0,l)
);
},
{
closed = 1;
nodes = (
(365,1288,l),
(686,1288,ls),
(1026,1288,o),
(1122,1126,o),
(1122,737,cs),
(1122,293,o),
(997,176,o),
(625,176,cs),
(365,176,l)
);
},
{
closed = 1;
nodes = (
(2602,0,l),
(2609,173,l),
(1803,173,l),
(2605,1318,l),
(2605,1464,l),
(1592,1464,l),
(1592,1290,l),
(2307,1290,l),
(1509,156,l),
(1509,0,l)
);
},
{
closed = 1;
nodes = (
(2195,1595,l),
(2346,1915,l),
(2197,1915,l),
(2061,1702,l),
(1926,1915,l),
(1778,1915,l),
(1928,1595,l)
);
}
);
};
layerId = "28683A17-BAD2-44EA-B42B-E882FFDD4FE1";
shapes = (
{
ref = DZ;
},
{
pos = (1631,441);
ref = caroncomb;
}
);
width = 2644;
},
{
background = {
anchors = (
{
name = top;
pos = (1992,1464);
}
);
shapes = (
{
closed = 1;
nodes = (
(645,0,ls),
(1080,0,o),
(1286,202,o),
(1286,738,cs),
(1286,1280,o),
(1062,1464,o),
(653,1464,cs),
(154,1464,l),
(154,0,l)
);
},
{
closed = 1;
nodes = (
(292,1358,l),
(655,1358,ls),
(1042,1358,o),
(1146,1131,o),
(1146,737,cs),
(1146,288,o),
(1013,106,o),
(599,106,cs),
(292,106,l)
);
},
{
closed = 1;
nodes = (
(2538,0,l),
(2543,105,l),
(1629,105,l),
(2536,1373,l),
(2536,1464,l),
(1535,1464,l),
(1535,1360,l),
(2359,1360,l),
(1452,93,l),
(1452,0,l)
);
},
{
closed = 1;
nodes = (
(2081,1595,l),
(2269,1915,l),
(2177,1915,l),
(1997,1659,l),
(1819,1915,l),
(1726,1915,l),
(1914,1595,l)
);
}
);
};
layerId = "E322F6D1-BA90-436B-BB35-51D9BD3EA9D1";
shapes = (
{
ref = DZ;
},
{
pos = (1567,441);
ref = caroncomb;
}
);
width = 2580;
}
);
unicode = 452;
},
{
glyphname = Dcaron;
kernRight = _O_right;
lastChange = "2023-02-02 13:10:15 +0000";
layers = (
{
background = {
anchors = (
{
name = top;
pos = (714.5,1464);
}
);
shapes = (
{
closed = 1;
nodes = (
(663,0,ls),
(1115,0,o),
(1313,207,o),
(1313,738,cs),
(1313,1280,o),
(1091,1464,o),
(667,1464,cs),
(146,1464,l),
(146,0,l)
);
},
{
closed = 1;
nodes = (
(321,1330,l),
(667,1330,ls),
(1036,1330,o),
(1136,1129,o),
(1136,737,cs),
(1136,290,o),
(1007,134,o),
(609,134,cs),
(321,134,l)
);
},
{
closed = 1;
nodes = (
(824,1595,l),
(997,1915,l),
(882,1915,l),
(720,1676,l),
(559,1915,l),
(444,1915,l),
(617,1595,l)
);
}
);
};
layerId = "8E6A00A3-5EF9-4E6D-9A7B-9C1BBC7D44AD";
shapes = (
{
ref = D;
},
{
pos = (290,441);
ref = caroncomb;
}
);
userData = {
com.typemytype.robofont.layerData = {
};
};
width = 1429;
},
{
background = {
anchors = (
{
name = bot;
pos = (734,0);
},
{
name = mid;
pos = (734,1023);
},
{
name = top;
pos = (734,1464);
}
);
shapes = (
{
closed = 1;
nodes = (
(690,0,ls),
(1168,0,o),
(1354,215,o),
(1354,738,cs),
(1354,1280,o),
(1135,1464,o),
(688,1464,cs),
(134,1464,l),
(134,0,l)
);
},
{
closed = 1;
nodes = (
(365,1288,l),
(686,1288,ls),
(1026,1288,o),
(1122,1126,o),
(1122,737,cs),
(1122,293,o),
(997,176,o),
(625,176,cs),
(365,176,l)
);
},
{
closed = 1;
nodes = (
(873,1595,l),
(1024,1915,l),
(875,1915,l),
(739,1702,l),
(604,1915,l),
(456,1915,l),
(606,1595,l)
);
}
);
};
layerId = "28683A17-BAD2-44EA-B42B-E882FFDD4FE1";
shapes = (
{
ref = D;
},
{
pos = (309,441);
ref = caroncomb;
}
);
userData = {
com.typemytype.robofont.layerData = {
};
};
width = 1468;
},
{
background = {
anchors = (
{
name = top;
pos = (702,1464);
}
);
shapes = (
{
closed = 1;
nodes = (
(645,0,ls),
(1080,0,o),
(1286,202,o),
(1286,738,cs),
(1286,1280,o),
(1062,1464,o),
(653,1464,cs),
(154,1464,l),
(154,0,l)
);
},
{
closed = 1;
nodes = (
(292,1358,l),
(655,1358,ls),
(1042,1358,o),
(1146,1131,o),
(1146,737,cs),
(1146,288,o),
(1013,106,o),
(599,106,cs),
(292,106,l)
);
},
{
closed = 1;
nodes = (
(791,1595,l),
(979,1915,l),
(887,1915,l),
(707,1659,l),
(529,1915,l),
(436,1915,l),
(624,1595,l)
);
}
);
};
layerId = "E322F6D1-BA90-436B-BB35-51D9BD3EA9D1";
shapes = (
{
ref = D;
},
{
pos = (277,441);
ref = caroncomb;
}
);
userData = {
com.typemytype.robofont.layerData = {
b = {
anchors = (
);
components = (
);
contours = (
);
lib = {
};
name = Dcaron;
unicodes = (
);
width = 1404;
};
};
};
width = 1404;
}
);
unicode = 270;
},
{
glyphname = Dcroat;
kernRight = _O_right;
lastChange = "2023-02-02 13:10:15 +0000";
layers = (
{
background = {
anchors = (
{
name = top;
pos = (714.5,1464);
}
);
shapes = (
{
closed = 1;
nodes = (
(558,694,l),
(558,796,l),
(0,796,l),
(0,694,l)
);
},
{
closed = 1;
nodes = (
(663,0,ls),
(1115,0,o),
(1313,207,o),
(1313,738,cs),
(1313,1280,o),
(1091,1464,o),
(667,1464,cs),
(146,1464,l),
(146,0,l)
);
},
{
closed = 1;
nodes = (
(321,1330,l),
(667,1330,ls),
(1036,1330,o),
(1136,1129,o),
(1136,737,cs),
(1136,290,o),
(1007,134,o),
(609,134,cs),
(321,134,l)
);
}
);
};
layerId = "8E6A00A3-5EF9-4E6D-9A7B-9C1BBC7D44AD";
shapes = (
{
ref = Eth;
}
);
width = 1444;
},
{
background = {
anchors = (
{
name = bot;
pos = (734,0);
},
{
name = mid;
pos = (734,1023);
},
{
name = top;
pos = (734,1464);
}
);
shapes = (
{
closed = 1;
nodes = (
(573,678,l),
(573,811,l),
(0,811,l),
(0,678,l)
);
},
{
closed = 1;
nodes = (
(690,0,ls),
(1168,0,o),
(1354,215,o),
(1354,738,cs),
(1354,1280,o),
(1135,1464,o),
(688,1464,cs),
(134,1464,l),
(134,0,l)
);
},
{
closed = 1;
nodes = (
(365,1288,l),
(686,1288,ls),
(1026,1288,o),
(1122,1126,o),
(1122,737,cs),
(1122,293,o),
(997,176,o),
(625,176,cs),
(365,176,l)
);
}
);
};
layerId = "28683A17-BAD2-44EA-B42B-E882FFDD4FE1";
shapes = (
{
ref = Eth;
}
);
width = 1444;
},
{
background = {
anchors = (
{
name = top;
pos = (702,1464);
}
);
shapes = (
{
closed = 1;
nodes = (
(548,704,l),
(548,786,l),
(0,786,l),
(0,704,l)
);
},
{
closed = 1;
nodes = (
(645,0,ls),
(1080,0,o),
(1286,202,o),
(1286,738,cs),
(1286,1280,o),
(1062,1464,o),
(653,1464,cs),
(154,1464,l),
(154,0,l)
);
},
{
closed = 1;
nodes = (
(292,1358,l),
(655,1358,ls),
(1042,1358,o),
(1146,1131,o),
(1146,737,cs),
(1146,288,o),
(1013,106,o),
(599,106,cs),
(292,106,l)
);
}
);
};
layerId = "E322F6D1-BA90-436B-BB35-51D9BD3EA9D1";
shapes = (
{
ref = Eth;
}
);
width = 1444;
}
);
unicode = 272;
},
{
glyphname = Ddotaccent;
kernRight = _O_right;
lastChange = "2023-02-02 13:10:15 +0000";
layers = (
{
background = {
anchors = (
{
name = top;
pos = (714.5,1464);
}
);
shapes = (
{
closed = 1;
nodes = (
(663,0,ls),
(1115,0,o),
(1313,207,o),
(1313,738,cs),
(1313,1280,o),
(1091,1464,o),
(667,1464,cs),
(146,1464,l),
(146,0,l)
);
},
{
closed = 1;
nodes = (
(321,1330,l),
(667,1330,ls),
(1036,1330,o),
(1136,1129,o),
(1136,737,cs),
(1136,290,o),
(1007,134,o),
(609,134,cs),
(321,134,l)
);
},
{
closed = 1;
nodes = (
(791,1673,l),
(791,1898,l),
(617,1898,l),
(617,1673,l)
);
}
);
};
layerId = "8E6A00A3-5EF9-4E6D-9A7B-9C1BBC7D44AD";
shapes = (
{
ref = D;
},
{
pos = (498,441);
ref = dotaccentcomb;
}
);
width = 1429;
},
{
background = {
anchors = (
{
name = bot;
pos = (734,0);
},
{
name = mid;
pos = (734,1023);
},
{
name = top;
pos = (734,1464);
}
);
shapes = (
{
closed = 1;
nodes = (
(690,0,ls),
(1168,0,o),
(1354,215,o),
(1354,738,cs),
(1354,1280,o),
(1135,1464,o),
(688,1464,cs),
(134,1464,l),
(134,0,l)
);
},
{
closed = 1;
nodes = (
(365,1288,l),
(686,1288,ls),
(1026,1288,o),
(1122,1126,o),
(1122,737,cs),
(1122,293,o),
(997,176,o),
(625,176,cs),
(365,176,l)
);
},
{
closed = 1;
nodes = (
(841,1675,l),
(841,1919,l),
(612,1919,l),
(612,1675,l)
);
}
);
};
layerId = "28683A17-BAD2-44EA-B42B-E882FFDD4FE1";
shapes = (
{
ref = D;
},
{
pos = (519,441);
ref = dotaccentcomb;
}
);
width = 1468;
},
{
background = {
anchors = (
{
name = top;
pos = (702,1464);
}
);
shapes = (
{
closed = 1;
nodes = (
(645,0,ls),
(1080,0,o),
(1286,202,o),
(1286,738,cs),
(1286,1280,o),
(1062,1464,o),
(653,1464,cs),
(154,1464,l),
(154,0,l)
);
},
{
closed = 1;
nodes = (
(292,1358,l),
(655,1358,ls),
(1042,1358,o),
(1146,1131,o),
(1146,737,cs),
(1146,288,o),
(1013,106,o),
(599,106,cs),
(292,106,l)
);
},
{
closed = 1;
nodes = (
(765,1672,l),
(765,1884,l),
(628,1884,l),
(628,1672,l)
);
}
);
};
layerId = "E322F6D1-BA90-436B-BB35-51D9BD3EA9D1";
shapes = (
{
ref = D;
},
{
pos = (483,441);
ref = dotaccentcomb;
}
);
width = 1404;
}
);
unicode = 7690;
},
{
glyphname = Dz;
lastChange = "2023-02-02 13:10:15 +0000";
layers = (
{
background = {
anchors = (
{
name = top;
pos = (1904,1023);
}
);
shapes = (
{
closed = 1;
nodes = (
(663,0,ls),
(1115,0,o),
(1313,207,o),
(1313,738,cs),
(1313,1280,o),
(1091,1464,o),
(667,1464,cs),
(146,1464,l),
(146,0,l)
);
},
{
closed = 1;
nodes = (
(321,1330,l),
(667,1330,ls),
(1036,1330,o),
(1136,1129,o),
(1136,737,cs),
(1136,290,o),
(1007,134,o),
(609,134,cs),
(321,134,l)
);
},
{
closed = 1;
nodes = (
(2255,0,l),
(2255,123,l),
(1685,123,l),
(2257,908,l),
(2257,1023,l),
(1515,1023,l),
(1515,899,l),
(2056,899,l),
(1493,114,l),
(1493,0,l)
);
}
);
};
layerId = "8E6A00A3-5EF9-4E6D-9A7B-9C1BBC7D44AD";
shapes = (
{
ref = D;
},
{
pos = (1429,0);
ref = z;
}
);
width = 2308;
},
{
background = {
anchors = (
{
name = bot;
pos = (1907,0);
},
{
name = mid;
pos = (734,1023);
},
{
name = top;
pos = (1907,1023);
}
);
shapes = (
{
closed = 1;
nodes = (
(690,0,ls),
(1168,0,o),
(1354,215,o),
(1354,738,cs),
(1354,1280,o),
(1135,1464,o),
(688,1464,cs),
(134,1464,l),
(134,0,l)
);
},
{
closed = 1;
nodes = (
(365,1288,l),
(686,1288,ls),
(1026,1288,o),
(1122,1126,o),
(1122,737,cs),
(1122,293,o),
(997,176,o),
(625,176,cs),
(365,176,l)
);
},
{
closed = 1;
nodes = (
(2304,0,l),
(2304,159,l),
(1778,159,l),
(2306,871,l),
(2306,1023,l),
(1554,1023,l),
(1554,863,l),
(2045,863,l),
(1529,152,l),
(1529,0,l)
);
}
);
};
layerId = "28683A17-BAD2-44EA-B42B-E882FFDD4FE1";
shapes = (
{
ref = D;
},
{
pos = (1468,0);
ref = z;
}
);
width = 2346;
},
{
background = {
anchors = (
{
name = top;
pos = (1874,1023);
}
);
shapes = (
{
closed = 1;
nodes = (
(645,0,ls),
(1080,0,o),
(1286,202,o),
(1286,738,cs),
(1286,1280,o),
(1062,1464,o),
(653,1464,cs),
(154,1464,l),
(154,0,l)
);
},
{
closed = 1;
nodes = (
(292,1358,l),
(655,1358,ls),
(1042,1358,o),
(1146,1131,o),
(1146,737,cs),
(1146,288,o),
(1013,106,o),
(599,106,cs),
(292,106,l)
);
},
{
closed = 1;
nodes = (
(2223,0,l),
(2223,98,l),
(1624,98,l),
(2225,933,l),
(2225,1023,l),
(1490,1023,l),
(1490,924,l),
(2064,924,l),
(1470,89,l),
(1470,0,l)
);
}
);
};
layerId = "E322F6D1-BA90-436B-BB35-51D9BD3EA9D1";
shapes = (
{
ref = D;
},
{
pos = (1404,0);
ref = z;
}
);
width = 2283;
}
);
unicode = 498;
},
{
glyphname = Dzcaron;
lastChange = "2023-02-02 13:10:15 +0000";
layers = (
{
background = {
anchors = (
{
name = top;
pos = (1904,1023);
}
);
shapes = (
{
closed = 1;
nodes = (
(663,0,ls),
(1115,0,o),
(1313,207,o),
(1313,738,cs),
(1313,1280,o),
(1091,1464,o),
(667,1464,cs),
(146,1464,l),
(146,0,l)
);
},
{
closed = 1;
nodes = (
(321,1330,l),
(667,1330,ls),
(1036,1330,o),
(1136,1129,o),
(1136,737,cs),
(1136,290,o),
(1007,134,o),
(609,134,cs),
(321,134,l)
);
},
{
closed = 1;
nodes = (
(2013,1154,l),
(2186,1474,l),
(2071,1474,l),
(1909,1235,l),
(1748,1474,l),
(1633,1474,l),
(1806,1154,l)
);
},
{
closed = 1;
nodes = (
(2255,0,l),
(2255,123,l),
(1685,123,l),
(2257,908,l),
(2257,1023,l),
(1515,1023,l),
(1515,899,l),
(2056,899,l),
(1493,114,l),
(1493,0,l)
);
}
);
};
layerId = "8E6A00A3-5EF9-4E6D-9A7B-9C1BBC7D44AD";
shapes = (
{
ref = D;
},
{
pos = (1429,0);
ref = zcaron;
}
);
width = 2308;
},
{
background = {
anchors = (
{
name = bot;
pos = (1907,0);
},
{
name = mid;
pos = (734,1023);
},
{
name = top;
pos = (1907,1023);
}
);
shapes = (
{
closed = 1;
nodes = (
(690,0,ls),
(1168,0,o),
(1354,215,o),
(1354,738,cs),
(1354,1280,o),
(1135,1464,o),
(688,1464,cs),
(134,1464,l),
(134,0,l)
);
},
{
closed = 1;
nodes = (
(365,1288,l),
(686,1288,ls),
(1026,1288,o),
(1122,1126,o),
(1122,737,cs),
(1122,293,o),
(997,176,o),
(625,176,cs),
(365,176,l)
);
},
{
closed = 1;
nodes = (
(2080,1154,l),
(2231,1474,l),
(2082,1474,l),
(1946,1261,l),
(1811,1474,l),
(1663,1474,l),
(1813,1154,l)
);
},
{
closed = 1;
nodes = (
(2304,0,l),
(2304,159,l),
(1778,159,l),
(2306,871,l),
(2306,1023,l),
(1554,1023,l),
(1554,863,l),
(2045,863,l),
(1529,152,l),
(1529,0,l)
);
}
);
};
layerId = "28683A17-BAD2-44EA-B42B-E882FFDD4FE1";
shapes = (
{
ref = D;
},
{
pos = (1468,0);
ref = zcaron;
}
);
width = 2346;
},
{
background = {
anchors = (
{
name = top;
pos = (1874,1023);
}
);
shapes = (
{
closed = 1;
nodes = (
(645,0,ls),
(1080,0,o),
(1286,202,o),
(1286,738,cs),
(1286,1280,o),
(1062,1464,o),
(653,1464,cs),
(154,1464,l),
(154,0,l)
);
},
{
closed = 1;
nodes = (
(292,1358,l),
(655,1358,ls),
(1042,1358,o),
(1146,1131,o),
(1146,737,cs),
(1146,288,o),
(1013,106,o),
(599,106,cs),
(292,106,l)
);
},
{
closed = 1;
nodes = (
(1963,1154,l),
(2151,1474,l),
(2059,1474,l),
(1879,1218,l),
(1701,1474,l),
(1608,1474,l),
(1796,1154,l)
);
},
{
closed = 1;
nodes = (
(2223,0,l),
(2223,98,l),
(1624,98,l),
(2225,933,l),
(2225,1023,l),
(1490,1023,l),
(1490,924,l),
(2064,924,l),
(1470,89,l),
(1470,0,l)
);
}
);
};
layerId = "E322F6D1-BA90-436B-BB35-51D9BD3EA9D1";
shapes = (
{
ref = D;
},
{
pos = (1404,0);
ref = zcaron;
}
);
width = 2283;
}
);
unicode = 453;
},
{
glyphname = Eth;
kernRight = _O_right;
lastChange = "2023-02-02 13:10:15 +0000";
layers = (
{
background = {
anchors = (
{
name = top;
pos = (714.5,1464);
}
);
shapes = (
{
closed = 1;
nodes = (
(558,694,l),
(558,796,l),
(0,796,l),
(0,694,l)
);
},
{
closed = 1;
nodes = (
(663,0,ls),
(1115,0,o),
(1313,207,o),
(1313,738,cs),
(1313,1280,o),
(1091,1464,o),
(667,1464,cs),
(146,1464,l),
(146,0,l)
);
},
{
closed = 1;
nodes = (
(321,1330,l),
(667,1330,ls),
(1036,1330,o),
(1136,1129,o),
(1136,737,cs),
(1136,290,o),
(1007,134,o),
(609,134,cs),
(321,134,l)
);
}
);
};
layerId = "8E6A00A3-5EF9-4E6D-9A7B-9C1BBC7D44AD";
shapes = (
{
closed = 1;
nodes = (
(558,694,l),
(558,796,l),
(0,796,l),
(0,694,l)
);
},
{
ref = D;
}
);
userData = {
anchors = (
);
b = {
};
com.typemytype.robofont.layerData = {
};
components = (
);
contours = (
);
lib = {
};
name = Eth;
unicodes = (
);
width = "1444";
};
vertWidth = 0;
width = 1444;
},
{
background = {
anchors = (
{
name = bot;
pos = (734,0);
},
{
name = mid;
pos = (734,1023);
},
{
name = top;
pos = (734,1464);
}
);
shapes = (
{
closed = 1;
nodes = (
(573,678,l),
(573,811,l),
(0,811,l),
(0,678,l)
);
},
{
closed = 1;
nodes = (
(690,0,ls),
(1168,0,o),
(1354,215,o),
(1354,738,cs),
(1354,1280,o),
(1135,1464,o),
(688,1464,cs),
(134,1464,l),
(134,0,l)
);
},
{
closed = 1;
nodes = (
(365,1288,l),
(686,1288,ls),
(1026,1288,o),
(1122,1126,o),
(1122,737,cs),
(1122,293,o),
(997,176,o),
(625,176,cs),
(365,176,l)
);
}
);
};
layerId = "28683A17-BAD2-44EA-B42B-E882FFDD4FE1";
shapes = (
{
closed = 1;
nodes = (
(573,678,l),
(573,811,l),
(0,811,l),
(0,678,l)
);
},
{
ref = D;
}
);
userData = {
anchors = (
);
b = {
};
com.typemytype.robofont.layerData = {
};
components = (
);
contours = (
);
lib = {
};
name = Eth;
unicodes = (
);
width = "1444";
};
vertWidth = 0;
width = 1444;
},
{
background = {
anchors = (
{
name = top;
pos = (702,1464);
}
);
shapes = (
{
closed = 1;
nodes = (
(548,704,l),
(548,786,l),
(0,786,l),
(0,704,l)
);
},
{
closed = 1;
nodes = (
(645,0,ls),
(1080,0,o),
(1286,202,o),
(1286,738,cs),
(1286,1280,o),
(1062,1464,o),
(653,1464,cs),
(154,1464,l),
(154,0,l)
);
},
{
closed = 1;
nodes = (
(292,1358,l),
(655,1358,ls),
(1042,1358,o),
(1146,1131,o),
(1146,737,cs),
(1146,288,o),
(1013,106,o),
(599,106,cs),
(292,106,l)
);
}
);
};
layerId = "E322F6D1-BA90-436B-BB35-51D9BD3EA9D1";
shapes = (
{
closed = 1;
nodes = (
(548,704,l),
(548,786,l),
(0,786,l),
(0,704,l)
);
},
{
ref = D;
}
);
userData = {
anchors = (
);
b = {
};
com.typemytype.robofont.layerData = {
b = {
anchors = (
);
components = (
);
contours = (
);
lib = {
};
name = Eth;
unicodes = (
);
width = 1444;
};
};
components = (
);
contours = (
);
lib = {
};
name = Eth;
unicodes = (
);
width = "1444";
};
vertWidth = 0;
width = 1444;
}
);
unicode = 208;
},
{
glyphname = E;
lastChange = "2023-02-02 13:10:15 +0000";
layers = (
{
anchors = (
{
name = bottom;
pos = (608,0);
},
{
name = ogonek;
pos = (1094,10);
},
{
name = top;
pos = (648,1464);
},
{
name = topleft;
pos = (20,1464);
}
);
background = {
anchors = (
{
name = ogonek;
pos = (749,1);
},
{
name = top;
pos = (608,1464);
}
);
shapes = (
{
closed = 1;
nodes = (
(1143,0,l),
(1143,133,l),
(321,133,l),
(321,711,l),
(1027,711,l),
(1027,848,l),
(321,848,l),
(321,1331,l),
(1132,1331,l),
(1132,1464,l),
(146,1464,l),
(146,0,l)
);
}
);
};
layerId = "8E6A00A3-5EF9-4E6D-9A7B-9C1BBC7D44AD";
shapes = (
{
closed = 1;
nodes = (
(1143,0,l),
(1143,133,l),
(321,133,l),
(321,711,l),
(1027,711,l),
(1027,848,l),
(321,848,l),
(321,1331,l),
(1132,1331,l),
(1132,1464,l),
(146,1464,l),
(146,0,l)
);
}
);
userData = {
anchors = (
);
b = {
};
com.typemytype.robofont.layerData = {
};
components = (
);
contours = {
};
lib = {
};
name = E;
points = {
};
segmentType = line;
unicodes = (
);
width = "1202";
x = "1128";
y = "112";
};
vertWidth = 0;
width = 1216;
},
{
anchors = (
{
name = bottom;
pos = (617,0);
},
{
name = ogonek;
pos = (1111,10);
},
{
name = top;
pos = (657,1464);
},
{
name = topleft;
pos = (20,1464);
}
);
background = {
anchors = (
{
name = bot;
pos = (617,0);
},
{
name = ogonek;
pos = (726,0);
},
{
name = top;
pos = (617,1464);
}
);
shapes = (
{
closed = 1;
nodes = (
(1164,0,l),
(1164,172,l),
(365,172,l),
(365,690,l),
(1052,690,l),
(1052,866,l),
(365,866,l),
(365,1292,l),
(1153,1292,l),
(1153,1464,l),
(134,1464,l),
(134,0,l)
);
}
);
};
layerId = "28683A17-BAD2-44EA-B42B-E882FFDD4FE1";
shapes = (
{
closed = 1;
nodes = (
(1164,0,l),
(1164,172,l),
(365,172,l),
(365,690,l),
(1052,690,l),
(1052,866,l),
(365,866,l),
(365,1292,l),
(1153,1292,l),
(1153,1464,l),
(134,1464,l),
(134,0,l)
);
}
);
userData = {
anchors = (
);
b = {
};
com.typemytype.robofont.layerData = {
};
components = (
);
contours = {
};
lib = {
};
name = E;
points = {
};
segmentType = line;
unicodes = (
);
width = "1202";
x = "1128";
y = "112";
};
vertWidth = 0;
width = 1234;
},
{
anchors = (
{
name = bottom;
pos = (602,0);
},
{
name = ogonek;
pos = (1084,10);
},
{
name = top;
pos = (632,1464);
},
{
name = topleft;
pos = (20,1464);
}
);
background = {
anchors = (
{
name = ogonek;
pos = (728,0);
},
{
name = top;
pos = (672,1464);
}
);
shapes = (
{
closed = 1;
nodes = (
(1129,0,l),
(1129,107,l),
(292,107,l),
(292,726,l),
(1011,726,l),
(1011,836,l),
(292,836,l),
(292,1357,l),
(1118,1357,l),
(1118,1464,l),
(154,1464,l),
(154,0,l)
);
}
);
};
layerId = "E322F6D1-BA90-436B-BB35-51D9BD3EA9D1";
shapes = (
{
closed = 1;
nodes = (
(1129,0,l),
(1129,107,l),
(292,107,l),
(292,726,l),
(1011,726,l),
(1011,836,l),
(292,836,l),
(292,1357,l),
(1118,1357,l),
(1118,1464,l),
(154,1464,l),
(154,0,l)
);
}
);
userData = {
anchors = (
);
b = {
};
com.typemytype.robofont.layerData = {
b = {
anchors = (
);
components = (
);
contours = (
);
lib = {
};
name = E;
unicodes = (
);
width = 1204;
};
};
components = (
);
contours = {
};
lib = {
};
name = E;
points = {
};
segmentType = line;
unicodes = (
);
width = "1202";
x = "1128";
y = "112";
};
vertWidth = 0;
width = 1204;
}
);
unicode = 69;
},
{
glyphname = Eacute;
lastChange = "2023-02-02 13:10:15 +0000";
layers = (
{
background = {
anchors = (
{
name = ogonek;
pos = (749,1);
},
{
name = top;
pos = (608,1464);
}
);
shapes = (
{
closed = 1;
nodes = (
(1143,0,l),
(1143,133,l),
(321,133,l),
(321,711,l),
(1027,711,l),
(1027,848,l),
(321,848,l),
(321,1331,l),
(1132,1331,l),
(1132,1464,l),
(146,1464,l),
(146,0,l)
);
},
{
closed = 1;
nodes = (
(944,1911,l),
(711,1911,l),
(507,1592,l),
(620,1591,l)
);
}
);
};
layerId = "8E6A00A3-5EF9-4E6D-9A7B-9C1BBC7D44AD";
shapes = (
{
ref = E;
},
{
pos = (502,441);
ref = acutecomb;
}
);
userData = {
com.typemytype.robofont.layerData = {
};
};
width = 1216;
},
{
background = {
anchors = (
{
name = bot;
pos = (617,0);
},
{
name = ogonek;
pos = (726,0);
},
{
name = top;
pos = (617,1464);
}
);
shapes = (
{
closed = 1;
nodes = (
(1164,0,l),
(1164,172,l),
(365,172,l),
(365,690,l),
(1052,690,l),
(1052,866,l),
(365,866,l),
(365,1292,l),
(1153,1292,l),
(1153,1464,l),
(134,1464,l),
(134,0,l)
);
},
{
closed = 1;
nodes = (
(652,1584,l),
(1009,1904,l),
(705,1904,l),
(503,1583,l)
);
}
);
};
layerId = "28683A17-BAD2-44EA-B42B-E882FFDD4FE1";
shapes = (
{
ref = E;
},
{
pos = (550,441);
ref = acutecomb;
}
);
userData = {
com.typemytype.robofont.layerData = {
};
};
width = 1234;
},
{
background = {
anchors = (
{
name = ogonek;
pos = (728,0);
},
{
name = top;
pos = (672,1464);
}
);
shapes = (
{
closed = 1;
nodes = (
(1129,0,l),
(1129,107,l),
(292,107,l),
(292,726,l),
(1011,726,l),
(1011,836,l),
(292,836,l),
(292,1357,l),
(1118,1357,l),
(1118,1464,l),
(154,1464,l),
(154,0,l)
);
},
{
closed = 1;
nodes = (
(887,1916,l),
(701,1916,l),
(496,1597,l),
(585,1596,l)
);
}
);
};
layerId = "E322F6D1-BA90-436B-BB35-51D9BD3EA9D1";
shapes = (
{
ref = E;
},
{
pos = (443,441);
ref = acutecomb;
}
);
userData = {
com.typemytype.robofont.layerData = {
b = {
anchors = (
);
components = (
);
contours = (
);
lib = {
};
name = Eacute;
unicodes = (
);
width = 1204;
};
};
};
width = 1204;
}
);
unicode = 201;
},
{
glyphname = Ebreve;
lastChange = "2023-02-02 13:10:15 +0000";
layers = (
{
background = {
anchors = (
{
name = ogonek;
pos = (749,1);
},
{
name = top;
pos = (608,1464);
}
);
shapes = (
{
closed = 1;
nodes = (
(1143,0,l),
(1143,133,l),
(321,133,l),
(321,711,l),
(1027,711,l),
(1027,848,l),
(321,848,l),
(321,1331,l),
(1132,1331,l),
(1132,1464,l),
(146,1464,l),
(146,0,l)
);
},
{
closed = 1;
nodes = (
(749,1666,o),
(879,1741,o),
(883,1929,c),
(745,1929,l),
(745,1838,o),
(704,1790,o),
(606,1790,cs),
(509,1790,o),
(468,1838,o),
(468,1929,c),
(329,1929,l),
(333,1741,o),
(463,1666,o),
(606,1666,cs)
);
}
);
};
layerId = "8E6A00A3-5EF9-4E6D-9A7B-9C1BBC7D44AD";
shapes = (
{
ref = E;
},
{
pos = (248,441);
ref = brevecomb;
}
);
width = 1216;
},
{
background = {
anchors = (
{
name = bot;
pos = (617,0);
},
{
name = ogonek;
pos = (726,0);
},
{
name = top;
pos = (617,1464);
}
);
shapes = (
{
closed = 1;
nodes = (
(1164,0,l),
(1164,172,l),
(365,172,l),
(365,690,l),
(1052,690,l),
(1052,866,l),
(365,866,l),
(365,1292,l),
(1153,1292,l),
(1153,1464,l),
(134,1464,l),
(134,0,l)
);
},
{
closed = 1;
nodes = (
(753,1632,o),
(893,1708,o),
(897,1911,c),
(715,1911,l),
(715,1850,o),
(711,1795,o),
(617,1795,cs),
(524,1795,o),
(520,1850,o),
(520,1911,c),
(338,1911,l),
(342,1708,o),
(482,1632,o),
(617,1632,cs)
);
}
);
};
layerId = "28683A17-BAD2-44EA-B42B-E882FFDD4FE1";
shapes = (
{
ref = E;
},
{
pos = (254,441);
ref = brevecomb;
}
);
width = 1234;
},
{
background = {
anchors = (
{
name = ogonek;
pos = (728,0);
},
{
name = top;
pos = (672,1464);
}
);
shapes = (
{
closed = 1;
nodes = (
(1129,0,l),
(1129,107,l),
(292,107,l),
(292,726,l),
(1011,726,l),
(1011,836,l),
(292,836,l),
(292,1357,l),
(1118,1357,l),
(1118,1464,l),
(154,1464,l),
(154,0,l)
);
},
{
closed = 1;
nodes = (
(747,1689,o),
(870,1763,o),
(874,1941,c),
(764,1941,l),
(764,1830,o),
(699,1786,o),
(599,1786,cs),
(499,1786,o),
(433,1830,o),
(433,1941,c),
(323,1941,l),
(327,1763,o),
(451,1689,o),
(599,1689,cs)
);
}
);
};
layerId = "E322F6D1-BA90-436B-BB35-51D9BD3EA9D1";
shapes = (
{
ref = E;
},
{
pos = (233,441);
ref = brevecomb;
}
);
width = 1204;
}
);
unicode = 276;
},
{
glyphname = Ecaron;
lastChange = "2023-02-02 13:10:15 +0000";
layers = (
{
background = {
anchors = (
{
name = ogonek;
pos = (749,1);
},
{
name = top;
pos = (608,1464);
}
);
shapes = (
{
closed = 1;
nodes = (
(1143,0,l),
(1143,133,l),
(321,133,l),
(321,711,l),
(1027,711,l),
(1027,848,l),
(321,848,l),
(321,1331,l),
(1132,1331,l),
(1132,1464,l),
(146,1464,l),
(146,0,l)
);
},
{
closed = 1;
nodes = (
(717,1595,l),
(890,1915,l),
(775,1915,l),
(613,1676,l),
(452,1915,l),
(337,1915,l),
(510,1595,l)
);
}
);
};
layerId = "8E6A00A3-5EF9-4E6D-9A7B-9C1BBC7D44AD";
shapes = (
{
ref = E;
},
{
pos = (223,441);
ref = caroncomb;
}
);
userData = {
com.typemytype.robofont.layerData = {
};
};
width = 1216;
},
{
background = {
anchors = (
{
name = bot;
pos = (617,0);
},
{
name = ogonek;
pos = (726,0);
},
{
name = top;
pos = (617,1464);
}
);
shapes = (
{
closed = 1;
nodes = (
(1164,0,l),
(1164,172,l),
(365,172,l),
(365,690,l),
(1052,690,l),
(1052,866,l),
(365,866,l),
(365,1292,l),
(1153,1292,l),
(1153,1464,l),
(134,1464,l),
(134,0,l)
);
},
{
closed = 1;
nodes = (
(756,1595,l),
(907,1915,l),
(758,1915,l),
(622,1702,l),
(487,1915,l),
(339,1915,l),
(489,1595,l)
);
}
);
};
layerId = "28683A17-BAD2-44EA-B42B-E882FFDD4FE1";
shapes = (
{
ref = E;
},
{
pos = (232,441);
ref = caroncomb;
}
);
userData = {
com.typemytype.robofont.layerData = {
};
};
width = 1234;
},
{
background = {
anchors = (
{
name = ogonek;
pos = (728,0);
},
{
name = top;
pos = (672,1464);
}
);
shapes = (
{
closed = 1;
nodes = (
(1129,0,l),
(1129,107,l),
(292,107,l),
(292,726,l),
(1011,726,l),
(1011,836,l),
(292,836,l),
(292,1357,l),
(1118,1357,l),
(1118,1464,l),
(154,1464,l),
(154,0,l)
);
},
{
closed = 1;
nodes = (
(691,1595,l),
(879,1915,l),
(787,1915,l),
(607,1659,l),
(429,1915,l),
(336,1915,l),
(524,1595,l)
);
}
);
};
layerId = "E322F6D1-BA90-436B-BB35-51D9BD3EA9D1";
shapes = (
{
ref = E;
},
{
pos = (207,441);
ref = caroncomb;
}
);
userData = {
com.typemytype.robofont.layerData = {
b = {
anchors = (
);
components = (
);
contours = (
);
lib = {
};
name = Ecaron;
unicodes = (
);
width = 1204;
};
};
};
width = 1204;
}
);
unicode = 282;
},
{
glyphname = Ecedilla;
lastChange = "2023-02-02 13:10:15 +0000";
layers = (
{
background = {
anchors = (
{
name = ogonek;
pos = (749,1);
},
{
name = top;
pos = (608,1464);
}
);
shapes = (
{
closed = 1;
nodes = (
(1143,0,l),
(1143,133,l),
(321,133,l),
(321,711,l),
(1027,711,l),
(1027,848,l),
(321,848,l),
(321,1331,l),
(1132,1331,l),
(1132,1464,l),
(146,1464,l),
(146,0,l)
);
},
{
closed = 1;
nodes = (
(741,-408,o),
(835,-335,o),
(835,-225,cs),
(835,-181,o),
(820,-131,o),
(786,-78,cs),
(736,0,l),
(636,0,l),
(666,-63,ls),
(694,-122,o),
(706,-170,o),
(706,-207,cs),
(706,-283,o),
(656,-317,o),
(586,-317,cs),
(553,-317,o),
(517,-310,o),
(479,-296,c),
(479,-373,l),
(528,-397,o),
(577,-408,o),
(622,-408,cs)
);
}
);
};
layerId = "8E6A00A3-5EF9-4E6D-9A7B-9C1BBC7D44AD";
shapes = (
{
ref = E;
},
{
pos = (412,0);
ref = cedillacomb;
}
);
width = 1216;
},
{
background = {
anchors = (
{
name = bot;
pos = (617,0);
},
{
name = ogonek;
pos = (726,0);
},
{
name = top;
pos = (617,1464);
}
);
shapes = (
{
closed = 1;
nodes = (
(1164,0,l),
(1164,172,l),
(365,172,l),
(365,690,l),
(1052,690,l),
(1052,866,l),
(365,866,l),
(365,1292,l),
(1153,1292,l),
(1153,1464,l),
(134,1464,l),
(134,0,l)
);
},
{
closed = 1;
nodes = (
(696,-362,o),
(777,-303,o),
(777,-190,cs),
(777,-155,o),
(768,-120,o),
(749,-90,cs),
(692,0,l),
(555,0,l),
(602,-90,ls),
(615,-115,o),
(623,-142,o),
(623,-166,cs),
(623,-208,o),
(600,-241,o),
(544,-241,cs),
(522,-241,o),
(496,-235,o),
(468,-226,c),
(468,-338,l),
(510,-354,o),
(552,-362,o),
(591,-362,cs)
);
}
);
};
layerId = "28683A17-BAD2-44EA-B42B-E882FFDD4FE1";
shapes = (
{
ref = E;
},
{
pos = (407,0);
ref = cedillacomb;
}
);
width = 1234;
},
{
background = {
anchors = (
{
name = ogonek;
pos = (728,0);
},
{
name = top;
pos = (672,1464);
}
);
shapes = (
{
closed = 1;
nodes = (
(1129,0,l),
(1129,107,l),
(292,107,l),
(292,726,l),
(1011,726,l),
(1011,836,l),
(292,836,l),
(292,1357,l),
(1118,1357,l),
(1118,1464,l),
(154,1464,l),
(154,0,l)
);
},
{
closed = 1;
nodes = (
(677,-277,o),
(740,-224,o),
(740,-145,cs),
(740,-121,o),
(734,-94,o),
(721,-66,cs),
(691,0,l),
(625,0,l),
(645,-51,ls),
(659,-86,o),
(665,-114,o),
(665,-136,cs),
(665,-189,o),
(630,-207,o),
(583,-207,cs),
(560,-207,o),
(534,-203,o),
(508,-196,c),
(508,-258,l),
(538,-271,o),
(568,-277,o),
(595,-277,cs)
);
}
);
};
layerId = "E322F6D1-BA90-436B-BB35-51D9BD3EA9D1";
shapes = (
{
ref = E;
},
{
pos = (398,0);
ref = cedillacomb;
}
);
width = 1204;
}
);
unicode = 552;
},
{
glyphname = Ecircumflex;
lastChange = "2023-02-02 13:10:15 +0000";
layers = (
{
background = {
anchors = (
{
name = ogonek;
pos = (749,1);
},
{
name = top;
pos = (608,1464);
}
);
shapes = (
{
closed = 1;
nodes = (
(1143,0,l),
(1143,133,l),
(321,133,l),
(321,711,l),
(1027,711,l),
(1027,848,l),
(321,848,l),
(321,1331,l),
(1132,1331,l),
(1132,1464,l),
(146,1464,l),
(146,0,l)
);
},
{
closed = 1;
nodes = (
(439,1595,l),
(600,1834,l),
(762,1595,l),
(877,1595,l),
(704,1915,l),
(497,1915,l),
(324,1595,l)
);
}
);
};
layerId = "8E6A00A3-5EF9-4E6D-9A7B-9C1BBC7D44AD";
shapes = (
{
ref = E;
},
{
pos = (236,441);
ref = circumflexcomb;
}
);
userData = {
com.typemytype.robofont.layerData = {
};
};
width = 1216;
},
{
background = {
anchors = (
{
name = bot;
pos = (617,0);
},
{
name = ogonek;
pos = (726,0);
},
{
name = top;
pos = (617,1464);
}
);
shapes = (
{
closed = 1;
nodes = (
(1164,0,l),
(1164,172,l),
(365,172,l),
(365,690,l),
(1052,690,l),
(1052,866,l),
(365,866,l),
(365,1292,l),
(1153,1292,l),
(1153,1464,l),
(134,1464,l),
(134,0,l)
);
},
{
closed = 1;
nodes = (
(491,1595,l),
(625,1808,l),
(761,1595,l),
(910,1595,l),
(759,1915,l),
(492,1915,l),
(342,1595,l)
);
}
);
};
layerId = "28683A17-BAD2-44EA-B42B-E882FFDD4FE1";
shapes = (
{
ref = E;
},
{
pos = (229,441);
ref = circumflexcomb;
}
);
userData = {
com.typemytype.robofont.layerData = {
};
};
width = 1234;
},
{
background = {
anchors = (
{
name = ogonek;
pos = (728,0);
},
{
name = top;
pos = (672,1464);
}
);
shapes = (
{
closed = 1;
nodes = (
(1129,0,l),
(1129,107,l),
(292,107,l),
(292,726,l),
(1011,726,l),
(1011,836,l),
(292,836,l),
(292,1357,l),
(1118,1357,l),
(1118,1464,l),
(154,1464,l),
(154,0,l)
);
},
{
closed = 1;
nodes = (
(404,1595,l),
(583,1852,l),
(762,1595,l),
(855,1595,l),
(667,1915,l),
(500,1915,l),
(312,1595,l)
);
}
);
};
layerId = "E322F6D1-BA90-436B-BB35-51D9BD3EA9D1";
shapes = (
{
ref = E;
},
{
pos = (231,441);
ref = circumflexcomb;
}
);
userData = {
com.typemytype.robofont.layerData = {
b = {
anchors = (
);
components = (
);
contours = (
);
lib = {
};
name = Ecircumflex;
unicodes = (
);
width = 1204;
};
};
};
width = 1204;
}
);
unicode = 202;
},
{
glyphname = Edblgrave;
lastChange = "2023-02-02 13:10:15 +0000";
layers = (
{
background = {
anchors = (
{
name = ogonek;
pos = (749,1);
},
{
name = top;
pos = (608,1464);
}
);
shapes = (
{
closed = 1;
nodes = (
(1143,0,l),
(1143,133,l),
(321,133,l),
(321,711,l),
(1027,711,l),
(1027,848,l),
(321,848,l),
(321,1331,l),
(1132,1331,l),
(1132,1464,l),
(146,1464,l),
(146,0,l)
);
},
{
closed = 1;
nodes = (
(489,1594,l),
(371,1922,l),
(139,1922,l),
(402,1594,l)
);
},
{
closed = 1;
nodes = (
(781,1594,l),
(692,1922,l),
(467,1922,l),
(702,1594,l)
);
}
);
};
layerId = "8E6A00A3-5EF9-4E6D-9A7B-9C1BBC7D44AD";
shapes = (
{
ref = E;
},
{
pos = (113,441);
ref = dblgravecomb;
}
);
userData = {
com.typemytype.robofont.layerData = {
};
};
width = 1216;
},
{
background = {
anchors = (
{
name = bot;
pos = (617,0);
},
{
name = ogonek;
pos = (726,0);
},
{
name = top;
pos = (617,1464);
}
);
shapes = (
{
closed = 1;
nodes = (
(1164,0,l),
(1164,172,l),
(365,172,l),
(365,690,l),
(1052,690,l),
(1052,866,l),
(365,866,l),
(365,1292,l),
(1153,1292,l),
(1153,1464,l),
(134,1464,l),
(134,0,l)
);
}
);
};
layerId = "28683A17-BAD2-44EA-B42B-E882FFDD4FE1";
shapes = (
{
ref = E;
},
{
pos = (122,441);
ref = dblgravecomb;
}
);
userData = {
com.typemytype.robofont.layerData = {
};
};
width = 1234;
},
{
background = {
anchors = (
{
name = ogonek;
pos = (728,0);
},
{
name = top;
pos = (672,1464);
}
);
shapes = (
{
closed = 1;
nodes = (
(1129,0,l),
(1129,107,l),
(292,107,l),
(292,726,l),
(1011,726,l),
(1011,836,l),
(292,836,l),
(292,1357,l),
(1118,1357,l),
(1118,1464,l),
(154,1464,l),
(154,0,l)
);
}
);
};
layerId = "E322F6D1-BA90-436B-BB35-51D9BD3EA9D1";
shapes = (
{
ref = E;
},
{
pos = (97,441);
ref = dblgravecomb;
}
);
userData = {
com.typemytype.robofont.layerData = {
b = {
anchors = (
);
components = (
);
contours = (
);
lib = {
};
name = uni0204;
unicodes = (
);
width = 1204;
};
};
};
width = 1204;
}
);
unicode = 516;
},
{
glyphname = Edieresis;
lastChange = "2023-02-02 13:10:15 +0000";
layers = (
{
background = {
anchors = (
{
name = ogonek;
pos = (749,1);
},
{
name = top;
pos = (608,1464);
}
);
shapes = (
{
closed = 1;
nodes = (
(1143,0,l),
(1143,133,l),
(321,133,l),
(321,711,l),
(1027,711,l),
(1027,848,l),
(321,848,l),
(321,1331,l),
(1132,1331,l),
(1132,1464,l),
(146,1464,l),
(146,0,l)
);
},
{
closed = 1;
nodes = (
(890,1621,l),
(890,1819,l),
(696,1819,l),
(696,1621,l)
);
},
{
closed = 1;
nodes = (
(483,1621,l),
(483,1819,l),
(289,1819,l),
(289,1621,l)
);
}
);
};
layerId = "8E6A00A3-5EF9-4E6D-9A7B-9C1BBC7D44AD";
shapes = (
{
ref = E;
},
{
pos = (236,441);
ref = dieresiscomb;
}
);
userData = {
com.typemytype.robofont.layerData = {
};
};
width = 1216;
},
{
background = {
anchors = (
{
name = bot;
pos = (617,0);
},
{
name = ogonek;
pos = (726,0);
},
{
name = top;
pos = (617,1464);
}
);
shapes = (
{
closed = 1;
nodes = (
(1164,0,l),
(1164,172,l),
(365,172,l),
(365,690,l),
(1052,690,l),
(1052,866,l),
(365,866,l),
(365,1292,l),
(1153,1292,l),
(1153,1464,l),
(134,1464,l),
(134,0,l)
);
},
{
closed = 1;
nodes = (
(500,1601,l),
(500,1844,l),
(253,1844,l),
(253,1601,l)
);
},
{
closed = 1;
nodes = (
(959,1601,l),
(959,1844,l),
(713,1844,l),
(713,1601,l)
);
}
);
};
layerId = "28683A17-BAD2-44EA-B42B-E882FFDD4FE1";
shapes = (
{
ref = E;
},
{
pos = (238,441);
ref = dieresiscomb;
}
);
userData = {
com.typemytype.robofont.layerData = {
};
};
width = 1234;
},
{
background = {
anchors = (
{
name = ogonek;
pos = (728,0);
},
{
name = top;
pos = (672,1464);
}
);
shapes = (
{
closed = 1;
nodes = (
(1129,0,l),
(1129,107,l),
(292,107,l),
(292,726,l),
(1011,726,l),
(1011,836,l),
(292,836,l),
(292,1357,l),
(1118,1357,l),
(1118,1464,l),
(154,1464,l),
(154,0,l)
);
},
{
closed = 1;
nodes = (
(844,1635,l),
(844,1803,l),
(685,1803,l),
(685,1635,l)
);
},
{
closed = 1;
nodes = (
(472,1635,l),
(472,1803,l),
(313,1803,l),
(313,1635,l)
);
}
);
};
layerId = "E322F6D1-BA90-436B-BB35-51D9BD3EA9D1";
shapes = (
{
ref = E;
},
{
pos = (225,441);
ref = dieresiscomb;
}
);
userData = {
com.typemytype.robofont.layerData = {
b = {
anchors = (
);
components = (
);
contours = (
);
lib = {
};
name = Edieresis;
unicodes = (
);
width = 1204;
};
};
};
width = 1204;
}
);
unicode = 203;
},
{
glyphname = Edotaccent;
lastChange = "2023-02-02 13:10:15 +0000";
layers = (
{
background = {
anchors = (
{
name = ogonek;
pos = (749,1);
},
{
name = top;
pos = (608,1464);
}
);
shapes = (
{
closed = 1;
nodes = (
(1143,0,l),
(1143,133,l),
(321,133,l),
(321,711,l),
(1027,711,l),
(1027,848,l),
(321,848,l),
(321,1331,l),
(1132,1331,l),
(1132,1464,l),
(146,1464,l),
(146,0,l)
);
},
{
closed = 1;
nodes = (
(684,1673,l),
(684,1898,l),
(510,1898,l),
(510,1673,l)
);
}
);
};
layerId = "8E6A00A3-5EF9-4E6D-9A7B-9C1BBC7D44AD";
shapes = (
{
ref = E;
},
{
pos = (431,441);
ref = dotaccentcomb;
}
);
width = 1216;
},
{
background = {
anchors = (
{
name = bot;
pos = (617,0);
},
{
name = ogonek;
pos = (726,0);
},
{
name = top;
pos = (617,1464);
}
);
shapes = (
{
closed = 1;
nodes = (
(1164,0,l),
(1164,172,l),
(365,172,l),
(365,690,l),
(1052,690,l),
(1052,866,l),
(365,866,l),
(365,1292,l),
(1153,1292,l),
(1153,1464,l),
(134,1464,l),
(134,0,l)
);
},
{
closed = 1;
nodes = (
(724,1675,l),
(724,1919,l),
(495,1919,l),
(495,1675,l)
);
}
);
};
layerId = "28683A17-BAD2-44EA-B42B-E882FFDD4FE1";
shapes = (
{
ref = E;
},
{
pos = (442,441);
ref = dotaccentcomb;
}
);
width = 1234;
},
{
background = {
anchors = (
{
name = ogonek;
pos = (728,0);
},
{
name = top;
pos = (672,1464);
}
);
shapes = (
{
closed = 1;
nodes = (
(1129,0,l),
(1129,107,l),
(292,107,l),
(292,726,l),
(1011,726,l),
(1011,836,l),
(292,836,l),
(292,1357,l),
(1118,1357,l),
(1118,1464,l),
(154,1464,l),
(154,0,l)
);
},
{
closed = 1;
nodes = (
(665,1672,l),
(665,1884,l),
(528,1884,l),
(528,1672,l)
);
}
);
};
layerId = "E322F6D1-BA90-436B-BB35-51D9BD3EA9D1";
shapes = (
{
ref = E;
},
{
pos = (413,441);
ref = dotaccentcomb;
}
);
width = 1204;
}
);
unicode = 278;
},
{
glyphname = Egrave;
lastChange = "2023-02-02 13:10:15 +0000";
layers = (
{
background = {
anchors = (
{
name = ogonek;
pos = (749,1);
},
{
name = top;
pos = (608,1464);
}
);
shapes = (
{
closed = 1;
nodes = (
(1143,0,l),
(1143,133,l),
(321,133,l),
(321,711,l),
(1027,711,l),
(1027,848,l),
(321,848,l),
(321,1331,l),
(1132,1331,l),
(1132,1464,l),
(146,1464,l),
(146,0,l)
);
},
{
closed = 1;
nodes = (
(729,1596,l),
(525,1915,l),
(292,1915,l),
(616,1595,l)
);
}
);
};
layerId = "8E6A00A3-5EF9-4E6D-9A7B-9C1BBC7D44AD";
shapes = (
{
ref = E;
},
{
pos = (299,441);
ref = gravecomb;
}
);
userData = {
com.typemytype.robofont.layerData = {
};
};
width = 1216;
},
{
background = {
anchors = (
{
name = bot;
pos = (617,0);
},
{
name = ogonek;
pos = (726,0);
},
{
name = top;
pos = (617,1464);
}
);
shapes = (
{
closed = 1;
nodes = (
(1164,0,l),
(1164,172,l),
(365,172,l),
(365,690,l),
(1052,690,l),
(1052,866,l),
(365,866,l),
(365,1292,l),
(1153,1292,l),
(1153,1464,l),
(134,1464,l),
(134,0,l)
);
},
{
closed = 1;
nodes = (
(711,1595,l),
(509,1915,l),
(205,1915,l),
(562,1595,l)
);
}
);
};
layerId = "28683A17-BAD2-44EA-B42B-E882FFDD4FE1";
shapes = (
{
ref = E;
},
{
pos = (258,441);
ref = gravecomb;
}
);
userData = {
com.typemytype.robofont.layerData = {
};
};
width = 1234;
},
{
background = {
anchors = (
{
name = ogonek;
pos = (728,0);
},
{
name = top;
pos = (672,1464);
}
);
shapes = (
{
closed = 1;
nodes = (
(1129,0,l),
(1129,107,l),
(292,107,l),
(292,726,l),
(1011,726,l),
(1011,836,l),
(292,836,l),
(292,1357,l),
(1118,1357,l),
(1118,1464,l),
(154,1464,l),
(154,0,l)
);
},
{
closed = 1;
nodes = (
(698,1596,l),
(493,1915,l),
(307,1915,l),
(609,1595,l)
);
}
);
};
layerId = "E322F6D1-BA90-436B-BB35-51D9BD3EA9D1";
shapes = (
{
ref = E;
},
{
pos = (274,441);
ref = gravecomb;
}
);
userData = {
com.typemytype.robofont.layerData = {
b = {
anchors = (
);
components = (
);
contours = (
);
lib = {
};
name = Egrave;
unicodes = (
);
width = 1204;
};
};
};
width = 1204;
}
);
unicode = 200;
},
{
glyphname = Einvertedbreve;
lastChange = "2023-02-02 13:10:15 +0000";
layers = (
{
background = {
anchors = (
{
name = ogonek;
pos = (749,1);
},
{
name = top;
pos = (608,1464);
}
);
shapes = (
{
closed = 1;
nodes = (
(1143,0,l),
(1143,133,l),
(321,133,l),
(321,711,l),
(1027,711,l),
(1027,848,l),
(321,848,l),
(321,1331,l),
(1132,1331,l),
(1132,1464,l),
(146,1464,l),
(146,0,l)
);
},
{
closed = 1;
nodes = (
(462,1615,l),
(462,1706,o),
(506,1755,o),
(604,1755,cs),
(701,1755,o),
(746,1706,o),
(746,1615,c),
(885,1615,l),
(881,1803,o),
(747,1878,o),
(604,1878,cs),
(461,1878,o),
(327,1803,o),
(323,1615,c)
);
}
);
};
layerId = "8E6A00A3-5EF9-4E6D-9A7B-9C1BBC7D44AD";
shapes = (
{
ref = E;
},
{
pos = (242,441);
ref = breveinvertedcomb;
}
);
userData = {
com.typemytype.robofont.layerData = {
};
};
width = 1216;
},
{
background = {
anchors = (
{
name = bot;
pos = (617,0);
},
{
name = ogonek;
pos = (726,0);
},
{
name = top;
pos = (617,1464);
}
);
shapes = (
{
closed = 1;
nodes = (
(1164,0,l),
(1164,172,l),
(365,172,l),
(365,690,l),
(1052,690,l),
(1052,866,l),
(365,866,l),
(365,1292,l),
(1153,1292,l),
(1153,1464,l),
(134,1464,l),
(134,0,l)
);
}
);
};
layerId = "28683A17-BAD2-44EA-B42B-E882FFDD4FE1";
shapes = (
{
ref = E;
},
{
pos = (247,441);
ref = breveinvertedcomb;
}
);
userData = {
com.typemytype.robofont.layerData = {
};
};
width = 1234;
},
{
background = {
anchors = (
{
name = ogonek;
pos = (728,0);
},
{
name = top;
pos = (672,1464);
}
);
shapes = (
{
closed = 1;
nodes = (
(1129,0,l),
(1129,107,l),
(292,107,l),
(292,726,l),
(1011,726,l),
(1011,836,l),
(292,836,l),
(292,1357,l),
(1118,1357,l),
(1118,1464,l),
(154,1464,l),
(154,0,l)
);
}
);
};
layerId = "E322F6D1-BA90-436B-BB35-51D9BD3EA9D1";
shapes = (
{
ref = E;
},
{
pos = (256,441);
ref = breveinvertedcomb;
}
);
userData = {
com.typemytype.robofont.layerData = {
b = {
anchors = (
);
components = (
);
contours = (
);
lib = {
};
name = uni0206;
unicodes = (
);
width = 1204;
};
};
};
width = 1204;
}
);
unicode = 518;
},
{
glyphname = Emacron;
lastChange = "2023-02-02 13:10:15 +0000";
layers = (
{
background = {
anchors = (
{
name = ogonek;
pos = (749,1);
},
{
name = top;
pos = (608,1464);
}
);
shapes = (
{
closed = 1;
nodes = (
(1143,0,l),
(1143,133,l),
(321,133,l),
(321,711,l),
(1027,711,l),
(1027,848,l),
(321,848,l),
(321,1331,l),
(1132,1331,l),
(1132,1464,l),
(146,1464,l),
(146,0,l)
);
},
{
closed = 1;
nodes = (
(828,1668,l),
(828,1788,l),
(374,1788,l),
(374,1668,l)
);
}
);
};
layerId = "8E6A00A3-5EF9-4E6D-9A7B-9C1BBC7D44AD";
shapes = (
{
ref = E;
},
{
pos = (283,441);
ref = macroncomb;
}
);
userData = {
com.typemytype.robofont.layerData = {
};
};
width = 1216;
},
{
background = {
anchors = (
{
name = bot;
pos = (617,0);
},
{
name = ogonek;
pos = (726,0);
},
{
name = top;
pos = (617,1464);
}
);
shapes = (
{
closed = 1;
nodes = (
(1164,0,l),
(1164,172,l),
(365,172,l),
(365,690,l),
(1052,690,l),
(1052,866,l),
(365,866,l),
(365,1292,l),
(1153,1292,l),
(1153,1464,l),
(134,1464,l),
(134,0,l)
);
},
{
closed = 1;
nodes = (
(863,1607,l),
(863,1764,l),
(409,1764,l),
(409,1607,l)
);
}
);
};
layerId = "28683A17-BAD2-44EA-B42B-E882FFDD4FE1";
shapes = (
{
ref = E;
},
{
pos = (276,441);
ref = macroncomb;
}
);
userData = {
com.typemytype.robofont.layerData = {
};
};
width = 1234;
},
{
background = {
anchors = (
{
name = ogonek;
pos = (728,0);
},
{
name = top;
pos = (672,1464);
}
);
shapes = (
{
closed = 1;
nodes = (
(1129,0,l),
(1129,107,l),
(292,107,l),
(292,726,l),
(1011,726,l),
(1011,836,l),
(292,836,l),
(292,1357,l),
(1118,1357,l),
(1118,1464,l),
(154,1464,l),
(154,0,l)
);
},
{
closed = 1;
nodes = (
(822,1708,l),
(822,1803,l),
(368,1803,l),
(368,1708,l)
);
}
);
};
layerId = "E322F6D1-BA90-436B-BB35-51D9BD3EA9D1";
shapes = (
{
ref = E;
},
{
pos = (277,441);
ref = macroncomb;
}
);
userData = {
com.typemytype.robofont.layerData = {
b = {
anchors = (
);
components = (
);
contours = (
);
lib = {
};
name = Emacron;
unicodes = (
);
width = 1204;
};
};
};
width = 1204;
}
);
unicode = 274;
},
{
glyphname = Eogonek;
lastChange = "2023-02-02 13:10:15 +0000";
layers = (
{
background = {
anchors = (
{
name = ogonek;
pos = (749,1);
},
{
name = top;
pos = (608,1464);
}
);
shapes = (
{
closed = 1;
nodes = (
(1143,0,l),
(1143,133,l),
(321,133,l),
(321,711,l),
(1027,711,l),
(1027,848,l),
(321,848,l),
(321,1331,l),
(1132,1331,l),
(1132,1464,l),
(146,1464,l),
(146,0,l)
);
},
{
closed = 1;
nodes = (
(766,-378,o),
(794,-375,o),
(825,-367,c),
(825,-271,l),
(808,-275,o),
(794,-277,o),
(781,-277,cs),
(733,-277,o),
(717,-249,o),
(717,-211,cs),
(717,-153,o),
(756,-76,o),
(790,1,c),
(707,1,l),
(643,-79,o),
(576,-161,o),
(576,-243,cs),
(576,-308,o),
(627,-378,o),
(740,-378,cs)
);
}
);
};
layerId = "8E6A00A3-5EF9-4E6D-9A7B-9C1BBC7D44AD";
shapes = (
{
ref = E;
},
{
pos = (728,10);
ref = ogonekcomb;
}
);
userData = {
com.typemytype.robofont.layerData = {
};
};
width = 1216;
},
{
background = {
anchors = (
{
name = bot;
pos = (617,0);
},
{
name = ogonek;
pos = (726,0);
},
{
name = top;
pos = (617,1464);
}
);
shapes = (
{
closed = 1;
nodes = (
(1164,0,l),
(1164,172,l),
(365,172,l),
(365,690,l),
(1052,690,l),
(1052,866,l),
(365,866,l),
(365,1292,l),
(1153,1292,l),
(1153,1464,l),
(134,1464,l),
(134,0,l)
);
},
{
closed = 1;
nodes = (
(824,-257,l),
(741,-276,o),
(721,-244,o),
(721,-199,cs),
(721,-141,o),
(746,-83,o),
(781,0,c),
(676,0,l),
(613,-65,o),
(537,-151,o),
(537,-241,cs),
(537,-321,o),
(616,-431,o),
(824,-382,c)
);
}
);
};
layerId = "28683A17-BAD2-44EA-B42B-E882FFDD4FE1";
shapes = (
{
ref = E;
},
{
pos = (707,10);
ref = ogonekcomb;
}
);
userData = {
com.typemytype.robofont.layerData = {
};
};
width = 1234;
},
{
background = {
anchors = (
{
name = ogonek;
pos = (728,0);
},
{
name = top;
pos = (672,1464);
}
);
shapes = (
{
closed = 1;
nodes = (
(1129,0,l),
(1129,107,l),
(292,107,l),
(292,726,l),
(1011,726,l),
(1011,836,l),
(292,836,l),
(292,1357,l),
(1118,1357,l),
(1118,1464,l),
(154,1464,l),
(154,0,l)
);
},
{
closed = 1;
nodes = (
(735,-369,o),
(761,-366,o),
(789,-359,c),
(789,-282,l),
(772,-286,o),
(757,-288,o),
(745,-288,cs),
(695,-288,o),
(677,-260,o),
(677,-221,cs),
(677,-163,o),
(725,-73,o),
(759,0,c),
(691,0,l),
(625,-91,o),
(565,-168,o),
(565,-246,cs),
(565,-309,o),
(613,-369,o),
(713,-369,cs)
);
}
);
};
layerId = "E322F6D1-BA90-436B-BB35-51D9BD3EA9D1";
shapes = (
{
ref = E;
},
{
pos = (743,10);
ref = ogonekcomb;
}
);
userData = {
com.typemytype.robofont.layerData = {
b = {
anchors = (
);
components = (
);
contours = (
);
lib = {
};
name = Eogonek;
unicodes = (
);
width = 1143;
};
};
};
width = 1204;
}
);
unicode = 280;
},
{
glyphname = Etilde;
lastChange = "2023-02-02 13:10:15 +0000";
layers = (
{
background = {
anchors = (
{
name = ogonek;
pos = (749,1);
},
{
name = top;
pos = (608,1464);
}
);
shapes = (
{
closed = 1;
nodes = (
(1143,0,l),
(1143,133,l),
(321,133,l),
(321,711,l),
(1027,711,l),
(1027,848,l),
(321,848,l),
(321,1331,l),
(1132,1331,l),
(1132,1464,l),
(146,1464,l),
(146,0,l)
);
},
{
closed = 1;
nodes = (
(839,1638,o),
(886,1685,o),
(886,1809,cs),
(886,1822,o),
(886,1836,o),
(885,1851,c),
(774,1851,l),
(774,1794,o),
(767,1763,o),
(738,1763,cs),
(681,1763,o),
(535,1852,o),
(438,1852,cs),
(385,1852,o),
(319,1816,o),
(319,1692,cs),
(319,1676,o),
(320,1659,o),
(323,1640,c),
(432,1640,l),
(432,1700,o),
(449,1725,o),
(473,1725,c),
(553,1719,o),
(674,1638,o),
(776,1638,cs)
);
}
);
};
layerId = "8E6A00A3-5EF9-4E6D-9A7B-9C1BBC7D44AD";
shapes = (
{
ref = E;
},
{
pos = (249,441);
ref = tildecomb;
}
);
width = 1216;
},
{
background = {
anchors = (
{
name = bot;
pos = (617,0);
},
{
name = ogonek;
pos = (726,0);
},
{
name = top;
pos = (617,1464);
}
);
shapes = (
{
closed = 1;
nodes = (
(1164,0,l),
(1164,172,l),
(365,172,l),
(365,690,l),
(1052,690,l),
(1052,866,l),
(365,866,l),
(365,1292,l),
(1153,1292,l),
(1153,1464,l),
(134,1464,l),
(134,0,l)
);
},
{
closed = 1;
nodes = (
(875,1641,o),
(894,1766,o),
(894,1867,c),
(758,1867,l),
(754,1813,o),
(741,1799,o),
(715,1800,cs),
(633,1806,o),
(557,1871,o),
(426,1881,cs),
(313,1888,o),
(285,1786,o),
(285,1689,cs),
(285,1679,o),
(286,1669,o),
(286,1658,c),
(421,1658,l),
(425,1713,o),
(450,1731,o),
(474,1729,c),
(593,1713,o),
(644,1657,o),
(760,1649,cs)
);
}
);
};
layerId = "28683A17-BAD2-44EA-B42B-E882FFDD4FE1";
shapes = (
{
ref = E;
},
{
pos = (225,441);
ref = tildecomb;
}
);
width = 1234;
},
{
background = {
anchors = (
{
name = ogonek;
pos = (728,0);
},
{
name = top;
pos = (672,1464);
}
);
shapes = (
{
closed = 1;
nodes = (
(1129,0,l),
(1129,107,l),
(292,107,l),
(292,726,l),
(1011,726,l),
(1011,836,l),
(292,836,l),
(292,1357,l),
(1118,1357,l),
(1118,1464,l),
(154,1464,l),
(154,0,l)
);
},
{
closed = 1;
nodes = (
(412,1639,l),
(412,1699,o),
(424,1728,o),
(448,1728,c),
(502,1724,o),
(654,1642,o),
(746,1642,cs),
(803,1642,o),
(863,1661,o),
(863,1795,cs),
(863,1806,o),
(863,1817,o),
(862,1830,c),
(768,1830,l),
(768,1774,o),
(765,1732,o),
(733,1732,cs),
(693,1732,o),
(509,1825,o),
(436,1825,cs),
(392,1825,o),
(317,1807,o),
(317,1683,cs),
(317,1670,o),
(318,1655,o),
(320,1639,c)
);
}
);
};
layerId = "E322F6D1-BA90-436B-BB35-51D9BD3EA9D1";
shapes = (
{
ref = E;
},
{
pos = (233,441);
ref = tildecomb;
}
);
width = 1204;
}
);
unicode = 7868;
},
{
glyphname = F;
lastChange = "2023-02-02 13:10:15 +0000";
layers = (
{
anchors = (
{
name = bottom;
pos = (596,0);
},
{
name = top;
pos = (596,1464);
}
);
background = {
anchors = (
{
name = top;
pos = (596,1464);
}
);
shapes = (
{
closed = 1;
nodes = (
(321,0,l),
(321,702,l),
(1028,702,l),
(1028,838,l),
(321,838,l),
(321,1331,l),
(1137,1331,l),
(1137,1464,l),
(146,1464,l),
(146,0,l)
);
}
);
};
layerId = "8E6A00A3-5EF9-4E6D-9A7B-9C1BBC7D44AD";
shapes = (
{
closed = 1;
nodes = (
(321,0,l),
(321,702,l),
(1028,702,l),
(1028,838,l),
(321,838,l),
(321,1331,l),
(1137,1331,l),
(1137,1464,l),
(146,1464,l),
(146,0,l)
);
}
);
userData = {
anchors = (
);
b = {
};
com.typemytype.robofont.layerData = {
};
components = (
);
contours = {
};
lib = {
};
name = F;
points = {
};
segmentType = line;
unicodes = (
);
width = "1178.66666667";
x = "1117";
y = "1464";
};
vertWidth = 0;
width = 1192;
},
{
anchors = (
{
name = bottom;
pos = (604,0);
},
{
name = top;
pos = (604,1464);
}
);
background = {
anchors = (
{
name = bot;
pos = (604,0);
},
{
name = top;
pos = (604,1464);
}
);
shapes = (
{
closed = 1;
nodes = (
(365,0,l),
(365,677,l),
(1056,677,l),
(1056,853,l),
(365,853,l),
(365,1292,l),
(1168,1292,l),
(1168,1464,l),
(134,1464,l),
(134,0,l)
);
}
);
};
layerId = "28683A17-BAD2-44EA-B42B-E882FFDD4FE1";
shapes = (
{
closed = 1;
nodes = (
(365,0,l),
(365,677,l),
(1056,677,l),
(1056,853,l),
(365,853,l),
(365,1292,l),
(1168,1292,l),
(1168,1464,l),
(134,1464,l),
(134,0,l)
);
}
);
userData = {
anchors = (
);
b = {
};
com.typemytype.robofont.layerData = {
};
components = (
);
contours = {
};
lib = {
};
name = F;
points = {
};
segmentType = line;
unicodes = (
);
width = "1178.66666667";
x = "1117";
y = "1464";
};
vertWidth = 0;
width = 1208;
},
{
anchors = (
{
name = bottom;
pos = (590,0);
},
{
name = top;
pos = (590,1464);
}
);
background = {
anchors = (
{
name = top;
pos = (590,1464);
}
);
shapes = (
{
closed = 1;
nodes = (
(292,0,l),
(292,719,l),
(1009,719,l),
(1009,828,l),
(292,828,l),
(292,1357,l),
(1117,1357,l),
(1117,1464,l),
(154,1464,l),
(154,0,l)
);
}
);
};
layerId = "E322F6D1-BA90-436B-BB35-51D9BD3EA9D1";
shapes = (
{
closed = 1;
nodes = (
(292,0,l),
(292,719,l),
(1009,719,l),
(1009,828,l),
(292,828,l),
(292,1357,l),
(1117,1357,l),
(1117,1464,l),
(154,1464,l),
(154,0,l)
);
}
);
userData = {
anchors = (
);
b = {
};
com.typemytype.robofont.layerData = {
b = {
anchors = (
);
components = (
);
contours = (
);
lib = {
};
name = F;
unicodes = (
);
width = 1180;
};
};
components = (
);
contours = {
};
lib = {
};
name = F;
points = {
};
segmentType = line;
unicodes = (
);
width = "1178.66666667";
x = "1117";
y = "1464";
};
vertWidth = 0;
width = 1180;
}
);
unicode = 70;
},
{
glyphname = Fdotaccent;
lastChange = "2023-02-02 13:10:15 +0000";
layers = (
{
background = {
anchors = (
{
name = top;
pos = (596,1464);
}
);
shapes = (
{
closed = 1;
nodes = (
(321,0,l),
(321,702,l),
(1028,702,l),
(1028,838,l),
(321,838,l),
(321,1331,l),
(1137,1331,l),
(1137,1464,l),
(146,1464,l),
(146,0,l)
);
},
{
closed = 1;
nodes = (
(672,1673,l),
(672,1898,l),
(498,1898,l),
(498,1673,l)
);
}
);
};
layerId = "8E6A00A3-5EF9-4E6D-9A7B-9C1BBC7D44AD";
shapes = (
{
ref = F;
},
{
pos = (379,441);
ref = dotaccentcomb;
}
);
width = 1192;
},
{
background = {
anchors = (
{
name = bot;
pos = (604,0);
},
{
name = top;
pos = (604,1464);
}
);
shapes = (
{
closed = 1;
nodes = (
(365,0,l),
(365,677,l),
(1056,677,l),
(1056,853,l),
(365,853,l),
(365,1292,l),
(1168,1292,l),
(1168,1464,l),
(134,1464,l),
(134,0,l)
);
},
{
closed = 1;
nodes = (
(711,1675,l),
(711,1919,l),
(482,1919,l),
(482,1675,l)
);
}
);
};
layerId = "28683A17-BAD2-44EA-B42B-E882FFDD4FE1";
shapes = (
{
ref = F;
},
{
pos = (389,441);
ref = dotaccentcomb;
}
);
width = 1208;
},
{
background = {
anchors = (
{
name = top;
pos = (590,1464);
}
);
shapes = (
{
closed = 1;
nodes = (
(292,0,l),
(292,719,l),
(1009,719,l),
(1009,828,l),
(292,828,l),
(292,1357,l),
(1117,1357,l),
(1117,1464,l),
(154,1464,l),
(154,0,l)
);
},
{
closed = 1;
nodes = (
(653,1672,l),
(653,1884,l),
(516,1884,l),
(516,1672,l)
);
}
);
};
layerId = "E322F6D1-BA90-436B-BB35-51D9BD3EA9D1";
shapes = (
{
ref = F;
},
{
pos = (371,441);
ref = dotaccentcomb;
}
);
width = 1180;
}
);
unicode = 7710;
},
{
glyphname = G;
kernLeft = _O_left;
lastChange = "2023-02-02 13:10:15 +0000";
layers = (
{
anchors = (
{
name = bottom;
pos = (704,0);
},
{
name = top;
pos = (724,1464);
}
);
background = {
anchors = (
{
name = top;
pos = (703.5,1464);
}
);
shapes = (
{
closed = 1;
nodes = (
(918,-25,o),
(1055,53,o),
(1118,166,c),
(1153,0,l),
(1268,0,l),
(1268,0,o),
(1278,428,o),
(1278,581,cs),
(1278,803,l),
(758,803,l),
(758,653,l),
(1104,653,l),
(1104,447,ls),
(1104,220,o),
(918,116,o),
(752,116,cs),
(438,116,o),
(301,318,o),
(301,721,cs),
(301,1149,o),
(426,1350,o),
(747,1350,cs),
(931,1350,o),
(1054,1256,o),
(1121,1074,c),
(1273,1126,l),
(1189,1363,o),
(1018,1490,o),
(750,1490,cs),
(366,1490,o),
(116,1278,o),
(116,722,cs),
(116,166,o),
(388,-25,o),
(734,-25,cs)
);
}
);
};
layerId = "8E6A00A3-5EF9-4E6D-9A7B-9C1BBC7D44AD";
shapes = (
{
closed = 1;
nodes = (
(918,-25,o),
(1055,53,o),
(1118,166,c),
(1153,0,l),
(1268,0,l),
(1268,0,o),
(1278,428,o),
(1278,581,cs),
(1278,803,l),
(758,803,l),
(758,653,l),
(1104,653,l),
(1104,447,ls),
(1104,220,o),
(918,116,o),
(752,116,cs),
(438,116,o),
(301,318,o),
(301,721,cs),
(301,1149,o),
(426,1350,o),
(747,1350,cs),
(931,1350,o),
(1054,1256,o),
(1121,1074,c),
(1273,1126,l),
(1189,1363,o),
(1018,1490,o),
(750,1490,cs),
(366,1490,o),
(116,1278,o),
(116,722,cs),
(116,166,o),
(388,-25,o),
(734,-25,cs)
);
}
);
userData = {
com.typemytype.robofont.layerData = {
};
};
vertWidth = 0;
width = 1407;
},
{
anchors = (
{
name = bottom;
pos = (717,0);
},
{
name = top;
pos = (737,1464);
}
);
background = {
anchors = (
{
name = bot;
pos = (716.5,0);
},
{
name = top;
pos = (716.5,1464);
}
);
shapes = (
{
closed = 1;
nodes = (
(933,-24,o),
(1048,44,o),
(1109,131,c),
(1156,0,l),
(1304,0,l),
(1304,0,o),
(1314,428,o),
(1314,581,cs),
(1314,829,l),
(789,829,l),
(789,632,l),
(1086,632,l),
(1086,453,ls),
(1086,251,o),
(933,159,o),
(767,159,cs),
(497,159,o),
(357,316,o),
(357,721,cs),
(357,1149,o),
(455,1304,o),
(753,1304,cs),
(941,1304,o),
(1050,1220,o),
(1118,1035,c),
(1319,1102,l),
(1239,1343,o),
(1073,1488,o),
(760,1488,cs),
(357,1488,o),
(113,1291,o),
(113,722,cs),
(113,163,o),
(393,-24,o),
(749,-24,cs)
);
}
);
};
layerId = "28683A17-BAD2-44EA-B42B-E882FFDD4FE1";
shapes = (
{
closed = 1;
nodes = (
(933,-24,o),
(1048,44,o),
(1109,131,c),
(1156,0,l),
(1304,0,l),
(1304,0,o),
(1314,428,o),
(1314,581,cs),
(1314,829,l),
(789,829,l),
(789,632,l),
(1086,632,l),
(1086,453,ls),
(1086,251,o),
(933,159,o),
(767,159,cs),
(497,159,o),
(357,316,o),
(357,721,cs),
(357,1149,o),
(455,1304,o),
(753,1304,cs),
(941,1304,o),
(1050,1220,o),
(1118,1035,c),
(1319,1102,l),
(1239,1343,o),
(1073,1488,o),
(760,1488,cs),
(357,1488,o),
(113,1291,o),
(113,722,cs),
(113,163,o),
(393,-24,o),
(749,-24,cs)
);
}
);
userData = {
com.typemytype.robofont.layerData = {
};
};
vertWidth = 0;
width = 1433;
},
{
anchors = (
{
name = bottom;
pos = (695,0);
},
{
name = top;
pos = (715,1464);
}
);
background = {
anchors = (
{
name = top;
pos = (695,1464);
}
);
shapes = (
{
closed = 1;
nodes = (
(908,-25,o),
(1060,59,o),
(1124,189,c),
(1151,0,l),
(1243,0,l),
(1243,0,o),
(1253,428,o),
(1253,581,cs),
(1253,786,l),
(738,786,l),
(738,667,l),
(1116,667,l),
(1116,443,ls),
(1116,199,o),
(908,87,o),
(742,87,cs),
(398,87,o),
(264,319,o),
(264,721,cs),
(264,1149,o),
(406,1380,o),
(743,1380,cs),
(924,1380,o),
(1057,1281,o),
(1123,1100,c),
(1243,1142,l),
(1156,1377,o),
(982,1491,o),
(744,1491,cs),
(371,1491,o),
(118,1269,o),
(118,722,cs),
(118,168,o),
(384,-25,o),
(724,-25,cs)
);
}
);
};
layerId = "E322F6D1-BA90-436B-BB35-51D9BD3EA9D1";
shapes = (
{
closed = 1;
nodes = (
(908,-25,o),
(1060,59,o),
(1124,189,c),
(1151,0,l),
(1243,0,l),
(1243,0,o),
(1253,428,o),
(1253,581,cs),
(1253,786,l),
(738,786,l),
(738,667,l),
(1116,667,l),
(1116,443,ls),
(1116,199,o),
(908,87,o),
(742,87,cs),
(398,87,o),
(264,319,o),
(264,721,cs),
(264,1149,o),
(406,1380,o),
(743,1380,cs),
(924,1380,o),
(1057,1281,o),
(1123,1100,c),
(1243,1142,l),
(1156,1377,o),
(982,1491,o),
(744,1491,cs),
(371,1491,o),
(118,1269,o),
(118,722,cs),
(118,168,o),
(384,-25,o),
(724,-25,cs)
);
}
);
userData = {
com.typemytype.robofont.layerData = {
b = {
anchors = (
);
components = (
);
contours = (
);
lib = {
};
name = G;
unicodes = (
);
width = 1390;
};
};
};
vertWidth = 0;
width = 1390;
}
);
unicode = 71;
},
{
glyphname = Gacute;
kernLeft = _O_left;
lastChange = "2023-02-02 13:10:15 +0000";
layers = (
{
background = {
anchors = (
{
name = top;
pos = (703.5,1464);
}
);
shapes = (
{
closed = 1;
nodes = (
(918,-25,o),
(1055,53,o),
(1118,166,c),
(1153,0,l),
(1268,0,l),
(1268,0,o),
(1278,428,o),
(1278,581,cs),
(1278,803,l),
(758,803,l),
(758,653,l),
(1104,653,l),
(1104,447,ls),
(1104,220,o),
(918,116,o),
(752,116,cs),
(438,116,o),
(301,318,o),
(301,721,cs),
(301,1149,o),
(426,1350,o),
(747,1350,cs),
(931,1350,o),
(1054,1256,o),
(1121,1074,c),
(1273,1126,l),
(1189,1363,o),
(1018,1490,o),
(750,1490,cs),
(366,1490,o),
(116,1278,o),
(116,722,cs),
(116,166,o),
(388,-25,o),
(734,-25,cs)
);
},
{
closed = 1;
nodes = (
(1040,1911,l),
(807,1911,l),
(603,1592,l),
(716,1591,l)
);
}
);
};
layerId = "8E6A00A3-5EF9-4E6D-9A7B-9C1BBC7D44AD";
shapes = (
{
ref = G;
},
{
pos = (578,441);
ref = acutecomb;
}
);
userData = {
com.typemytype.robofont.layerData = {
};
};
width = 1407;
},
{
background = {
anchors = (
{
name = bot;
pos = (716.5,0);
},
{
name = top;
pos = (716.5,1464);
}
);
shapes = (
{
closed = 1;
nodes = (
(933,-24,o),
(1048,44,o),
(1109,131,c),
(1156,0,l),
(1304,0,l),
(1304,0,o),
(1314,428,o),
(1314,581,cs),
(1314,829,l),
(789,829,l),
(789,632,l),
(1086,632,l),
(1086,453,ls),
(1086,251,o),
(933,159,o),
(767,159,cs),
(497,159,o),
(357,316,o),
(357,721,cs),
(357,1149,o),
(455,1304,o),
(753,1304,cs),
(941,1304,o),
(1050,1220,o),
(1118,1035,c),
(1319,1102,l),
(1239,1343,o),
(1073,1488,o),
(760,1488,cs),
(357,1488,o),
(113,1291,o),
(113,722,cs),
(113,163,o),
(393,-24,o),
(749,-24,cs)
);
},
{
closed = 1;
nodes = (
(752,1584,l),
(1109,1904,l),
(805,1904,l),
(603,1583,l)
);
}
);
};
layerId = "28683A17-BAD2-44EA-B42B-E882FFDD4FE1";
shapes = (
{
ref = G;
},
{
pos = (630,441);
ref = acutecomb;
}
);
userData = {
com.typemytype.robofont.layerData = {
};
};
width = 1433;
},
{
background = {
anchors = (
{
name = top;
pos = (695,1464);
}
);
shapes = (
{
closed = 1;
nodes = (
(908,-25,o),
(1060,59,o),
(1124,189,c),
(1151,0,l),
(1243,0,l),
(1243,0,o),
(1253,428,o),
(1253,581,cs),
(1253,786,l),
(738,786,l),
(738,667,l),
(1116,667,l),
(1116,443,ls),
(1116,199,o),
(908,87,o),
(742,87,cs),
(398,87,o),
(264,319,o),
(264,721,cs),
(264,1149,o),
(406,1380,o),
(743,1380,cs),
(924,1380,o),
(1057,1281,o),
(1123,1100,c),
(1243,1142,l),
(1156,1377,o),
(982,1491,o),
(744,1491,cs),
(371,1491,o),
(118,1269,o),
(118,722,cs),
(118,168,o),
(384,-25,o),
(724,-25,cs)
);
},
{
closed = 1;
nodes = (
(980,1916,l),
(794,1916,l),
(589,1597,l),
(678,1596,l)
);
}
);
};
layerId = "E322F6D1-BA90-436B-BB35-51D9BD3EA9D1";
shapes = (
{
ref = G;
},
{
pos = (526,441);
ref = acutecomb;
}
);
userData = {
com.typemytype.robofont.layerData = {
b = {
anchors = (
);
components = (
);
contours = (
);
lib = {
};
name = uni01F4;
unicodes = (
);
width = 1390;
};
};
};
width = 1390;
}
);
unicode = 500;
},
{
glyphname = Gbreve;
kernLeft = _O_left;
lastChange = "2023-02-02 13:10:15 +0000";
layers = (
{
background = {
anchors = (
{
name = top;
pos = (703.5,1464);
}
);
shapes = (
{
closed = 1;
nodes = (
(918,-25,o),
(1055,53,o),
(1118,166,c),
(1153,0,l),
(1268,0,l),
(1268,0,o),
(1278,428,o),
(1278,581,cs),
(1278,803,l),
(758,803,l),
(758,653,l),
(1104,653,l),
(1104,447,ls),
(1104,220,o),
(918,116,o),
(752,116,cs),
(438,116,o),
(301,318,o),
(301,721,cs),
(301,1149,o),
(426,1350,o),
(747,1350,cs),
(931,1350,o),
(1054,1256,o),
(1121,1074,c),
(1273,1126,l),
(1189,1363,o),
(1018,1490,o),
(750,1490,cs),
(366,1490,o),
(116,1278,o),
(116,722,cs),
(116,166,o),
(388,-25,o),
(734,-25,cs)
);
},
{
closed = 1;
nodes = (
(844,1666,o),
(974,1741,o),
(978,1929,c),
(840,1929,l),
(840,1838,o),
(799,1790,o),
(701,1790,cs),
(604,1790,o),
(563,1838,o),
(563,1929,c),
(424,1929,l),
(428,1741,o),
(558,1666,o),
(701,1666,cs)
);
}
);
};
layerId = "8E6A00A3-5EF9-4E6D-9A7B-9C1BBC7D44AD";
shapes = (
{
ref = G;
},
{
pos = (324,441);
ref = brevecomb;
}
);
userData = {
com.typemytype.robofont.layerData = {
};
};
width = 1407;
},
{
background = {
anchors = (
{
name = bot;
pos = (716.5,0);
},
{
name = top;
pos = (716.5,1464);
}
);
shapes = (
{
closed = 1;
nodes = (
(933,-24,o),
(1048,44,o),
(1109,131,c),
(1156,0,l),
(1304,0,l),
(1304,0,o),
(1314,428,o),
(1314,581,cs),
(1314,829,l),
(789,829,l),
(789,632,l),
(1086,632,l),
(1086,453,ls),
(1086,251,o),
(933,159,o),
(767,159,cs),
(497,159,o),
(357,316,o),
(357,721,cs),
(357,1149,o),
(455,1304,o),
(753,1304,cs),
(941,1304,o),
(1050,1220,o),
(1118,1035,c),
(1319,1102,l),
(1239,1343,o),
(1073,1488,o),
(760,1488,cs),
(357,1488,o),
(113,1291,o),
(113,722,cs),
(113,163,o),
(393,-24,o),
(749,-24,cs)
);
},
{
closed = 1;
nodes = (
(852,1632,o),
(992,1708,o),
(996,1911,c),
(814,1911,l),
(814,1850,o),
(810,1795,o),
(716,1795,cs),
(623,1795,o),
(619,1850,o),
(619,1911,c),
(437,1911,l),
(441,1708,o),
(581,1632,o),
(716,1632,cs)
);
}
);
};
layerId = "28683A17-BAD2-44EA-B42B-E882FFDD4FE1";
shapes = (
{
ref = G;
},
{
pos = (334,441);
ref = brevecomb;
}
);
userData = {
com.typemytype.robofont.layerData = {
};
};
width = 1433;
},
{
background = {
anchors = (
{
name = top;
pos = (695,1464);
}
);
shapes = (
{
closed = 1;
nodes = (
(908,-25,o),
(1060,59,o),
(1124,189,c),
(1151,0,l),
(1243,0,l),
(1243,0,o),
(1253,428,o),
(1253,581,cs),
(1253,786,l),
(738,786,l),
(738,667,l),
(1116,667,l),
(1116,443,ls),
(1116,199,o),
(908,87,o),
(742,87,cs),
(398,87,o),
(264,319,o),
(264,721,cs),
(264,1149,o),
(406,1380,o),
(743,1380,cs),
(924,1380,o),
(1057,1281,o),
(1123,1100,c),
(1243,1142,l),
(1156,1377,o),
(982,1491,o),
(744,1491,cs),
(371,1491,o),
(118,1269,o),
(118,722,cs),
(118,168,o),
(384,-25,o),
(724,-25,cs)
);
},
{
closed = 1;
nodes = (
(840,1689,o),
(963,1763,o),
(967,1941,c),
(857,1941,l),
(857,1830,o),
(792,1786,o),
(692,1786,cs),
(592,1786,o),
(526,1830,o),
(526,1941,c),
(416,1941,l),
(420,1763,o),
(544,1689,o),
(692,1689,cs)
);
}
);
};
layerId = "E322F6D1-BA90-436B-BB35-51D9BD3EA9D1";
shapes = (
{
ref = G;
},
{
pos = (316,441);
ref = brevecomb;
}
);
userData = {
com.typemytype.robofont.layerData = {
b = {
anchors = (
);
components = (
);
contours = (
);
lib = {
};
name = Gbreve;
unicodes = (
);
width = 1390;
};
};
};
width = 1390;
}
);
unicode = 286;
},
{
glyphname = Gcaron;
kernLeft = _O_left;
lastChange = "2023-02-02 13:10:15 +0000";
layers = (
{
background = {
anchors = (
{
name = top;
pos = (703.5,1464);
}
);
shapes = (
{
closed = 1;
nodes = (
(918,-25,o),
(1055,53,o),
(1118,166,c),
(1153,0,l),
(1268,0,l),
(1268,0,o),
(1278,428,o),
(1278,581,cs),
(1278,803,l),
(758,803,l),
(758,653,l),
(1104,653,l),
(1104,447,ls),
(1104,220,o),
(918,116,o),
(752,116,cs),
(438,116,o),
(301,318,o),
(301,721,cs),
(301,1149,o),
(426,1350,o),
(747,1350,cs),
(931,1350,o),
(1054,1256,o),
(1121,1074,c),
(1273,1126,l),
(1189,1363,o),
(1018,1490,o),
(750,1490,cs),
(366,1490,o),
(116,1278,o),
(116,722,cs),
(116,166,o),
(388,-25,o),
(734,-25,cs)
);
},
{
closed = 1;
nodes = (
(813,1595,l),
(986,1915,l),
(871,1915,l),
(709,1676,l),
(548,1915,l),
(433,1915,l),
(606,1595,l)
);
}
);
};
layerId = "8E6A00A3-5EF9-4E6D-9A7B-9C1BBC7D44AD";
shapes = (
{
ref = G;
},
{
pos = (299,441);
ref = caroncomb;
}
);
width = 1407;
},
{
background = {
anchors = (
{
name = bot;
pos = (716.5,0);
},
{
name = top;
pos = (716.5,1464);
}
);
shapes = (
{
closed = 1;
nodes = (
(933,-24,o),
(1048,44,o),
(1109,131,c),
(1156,0,l),
(1304,0,l),
(1304,0,o),
(1314,428,o),
(1314,581,cs),
(1314,829,l),
(789,829,l),
(789,632,l),
(1086,632,l),
(1086,453,ls),
(1086,251,o),
(933,159,o),
(767,159,cs),
(497,159,o),
(357,316,o),
(357,721,cs),
(357,1149,o),
(455,1304,o),
(753,1304,cs),
(941,1304,o),
(1050,1220,o),
(1118,1035,c),
(1319,1102,l),
(1239,1343,o),
(1073,1488,o),
(760,1488,cs),
(357,1488,o),
(113,1291,o),
(113,722,cs),
(113,163,o),
(393,-24,o),
(749,-24,cs)
);
},
{
closed = 1;
nodes = (
(856,1595,l),
(1007,1915,l),
(858,1915,l),
(722,1702,l),
(587,1915,l),
(439,1915,l),
(589,1595,l)
);
}
);
};
layerId = "28683A17-BAD2-44EA-B42B-E882FFDD4FE1";
shapes = (
{
ref = G;
},
{
pos = (312,441);
ref = caroncomb;
}
);
width = 1433;
},
{
background = {
anchors = (
{
name = top;
pos = (695,1464);
}
);
shapes = (
{
closed = 1;
nodes = (
(908,-25,o),
(1060,59,o),
(1124,189,c),
(1151,0,l),
(1243,0,l),
(1243,0,o),
(1253,428,o),
(1253,581,cs),
(1253,786,l),
(738,786,l),
(738,667,l),
(1116,667,l),
(1116,443,ls),
(1116,199,o),
(908,87,o),
(742,87,cs),
(398,87,o),
(264,319,o),
(264,721,cs),
(264,1149,o),
(406,1380,o),
(743,1380,cs),
(924,1380,o),
(1057,1281,o),
(1123,1100,c),
(1243,1142,l),
(1156,1377,o),
(982,1491,o),
(744,1491,cs),
(371,1491,o),
(118,1269,o),
(118,722,cs),
(118,168,o),
(384,-25,o),
(724,-25,cs)
);
},
{
closed = 1;
nodes = (
(784,1595,l),
(972,1915,l),
(880,1915,l),
(700,1659,l),
(522,1915,l),
(429,1915,l),
(617,1595,l)
);
}
);
};
layerId = "E322F6D1-BA90-436B-BB35-51D9BD3EA9D1";
shapes = (
{
ref = G;
},
{
pos = (290,441);
ref = caroncomb;
}
);
width = 1390;
}
);
unicode = 486;
},
{
glyphname = Gcircumflex;
kernLeft = _O_left;
lastChange = "2023-02-02 13:10:15 +0000";
layers = (
{
background = {
anchors = (
{
name = top;
pos = (703.5,1464);
}
);
shapes = (
{
closed = 1;
nodes = (
(918,-25,o),
(1055,53,o),
(1118,166,c),
(1153,0,l),
(1268,0,l),
(1268,0,o),
(1278,428,o),
(1278,581,cs),
(1278,803,l),
(758,803,l),
(758,653,l),
(1104,653,l),
(1104,447,ls),
(1104,220,o),
(918,116,o),
(752,116,cs),
(438,116,o),
(301,318,o),
(301,721,cs),
(301,1149,o),
(426,1350,o),
(747,1350,cs),
(931,1350,o),
(1054,1256,o),
(1121,1074,c),
(1273,1126,l),
(1189,1363,o),
(1018,1490,o),
(750,1490,cs),
(366,1490,o),
(116,1278,o),
(116,722,cs),
(116,166,o),
(388,-25,o),
(734,-25,cs)
);
},
{
closed = 1;
nodes = (
(535,1595,l),
(696,1834,l),
(858,1595,l),
(973,1595,l),
(800,1915,l),
(593,1915,l),
(420,1595,l)
);
}
);
};
layerId = "8E6A00A3-5EF9-4E6D-9A7B-9C1BBC7D44AD";
shapes = (
{
ref = G;
},
{
pos = (312,441);
ref = circumflexcomb;
}
);
userData = {
com.typemytype.robofont.layerData = {
};
};
width = 1407;
},
{
background = {
anchors = (
{
name = bot;
pos = (716.5,0);
},
{
name = top;
pos = (716.5,1464);
}
);
shapes = (
{
closed = 1;
nodes = (
(933,-24,o),
(1048,44,o),
(1109,131,c),
(1156,0,l),
(1304,0,l),
(1304,0,o),
(1314,428,o),
(1314,581,cs),
(1314,829,l),
(789,829,l),
(789,632,l),
(1086,632,l),
(1086,453,ls),
(1086,251,o),
(933,159,o),
(767,159,cs),
(497,159,o),
(357,316,o),
(357,721,cs),
(357,1149,o),
(455,1304,o),
(753,1304,cs),
(941,1304,o),
(1050,1220,o),
(1118,1035,c),
(1319,1102,l),
(1239,1343,o),
(1073,1488,o),
(760,1488,cs),
(357,1488,o),
(113,1291,o),
(113,722,cs),
(113,163,o),
(393,-24,o),
(749,-24,cs)
);
},
{
closed = 1;
nodes = (
(591,1595,l),
(725,1808,l),
(861,1595,l),
(1010,1595,l),
(859,1915,l),
(592,1915,l),
(442,1595,l)
);
}
);
};
layerId = "28683A17-BAD2-44EA-B42B-E882FFDD4FE1";
shapes = (
{
ref = G;
},
{
pos = (309,441);
ref = circumflexcomb;
}
);
userData = {
com.typemytype.robofont.layerData = {
};
};
width = 1433;
},
{
background = {
anchors = (
{
name = top;
pos = (695,1464);
}
);
shapes = (
{
closed = 1;
nodes = (
(908,-25,o),
(1060,59,o),
(1124,189,c),
(1151,0,l),
(1243,0,l),
(1243,0,o),
(1253,428,o),
(1253,581,cs),
(1253,786,l),
(738,786,l),
(738,667,l),
(1116,667,l),
(1116,443,ls),
(1116,199,o),
(908,87,o),
(742,87,cs),
(398,87,o),
(264,319,o),
(264,721,cs),
(264,1149,o),
(406,1380,o),
(743,1380,cs),
(924,1380,o),
(1057,1281,o),
(1123,1100,c),
(1243,1142,l),
(1156,1377,o),
(982,1491,o),
(744,1491,cs),
(371,1491,o),
(118,1269,o),
(118,722,cs),
(118,168,o),
(384,-25,o),
(724,-25,cs)
);
},
{
closed = 1;
nodes = (
(497,1595,l),
(676,1852,l),
(855,1595,l),
(948,1595,l),
(760,1915,l),
(593,1915,l),
(405,1595,l)
);
}
);
};
layerId = "E322F6D1-BA90-436B-BB35-51D9BD3EA9D1";
shapes = (
{
ref = G;
},
{
pos = (314,441);
ref = circumflexcomb;
}
);
userData = {
com.typemytype.robofont.layerData = {
b = {
anchors = (
);
components = (
);
contours = (
);
lib = {
};
name = Gcircumflex;
unicodes = (
);
width = 1390;
};
};
};
width = 1390;
}
);
unicode = 284;
},
{
glyphname = Gcommaaccent;
kernLeft = _O_left;
lastChange = "2023-02-02 13:10:15 +0000";
layers = (
{
background = {
anchors = (
{
name = top;
pos = (703.5,1464);
}
);
shapes = (
{
closed = 1;
nodes = (
(918,-25,o),
(1055,53,o),
(1118,166,c),
(1153,0,l),
(1268,0,l),
(1268,0,o),
(1278,428,o),
(1278,581,cs),
(1278,803,l),
(758,803,l),
(758,653,l),
(1104,653,l),
(1104,447,ls),
(1104,220,o),
(918,116,o),
(752,116,cs),
(438,116,o),
(301,318,o),
(301,721,cs),
(301,1149,o),
(426,1350,o),
(747,1350,cs),
(931,1350,o),
(1054,1256,o),
(1121,1074,c),
(1273,1126,l),
(1189,1363,o),
(1018,1490,o),
(750,1490,cs),
(366,1490,o),
(116,1278,o),
(116,722,cs),
(116,166,o),
(388,-25,o),
(734,-25,cs)
);
},
{
closed = 1;
nodes = (
(768,-544,o),
(820,-429,o),
(820,-278,cs),
(820,-124,l),
(592,-124,l),
(592,-321,l),
(706,-326,l),
(705,-388,o),
(677,-488,o),
(629,-526,c),
(685,-576,l)
);
}
);
};
layerId = "8E6A00A3-5EF9-4E6D-9A7B-9C1BBC7D44AD";
shapes = (
{
ref = G;
},
{
pos = (497,0);
ref = commaaccentcomb;
}
);
userData = {
com.typemytype.robofont.layerData = {
};
};
width = 1407;
},
{
background = {
anchors = (
{
name = bot;
pos = (716.5,0);
},
{
name = top;
pos = (716.5,1464);
}
);
shapes = (
{
closed = 1;
nodes = (
(933,-24,o),
(1048,44,o),
(1109,131,c),
(1156,0,l),
(1304,0,l),
(1304,0,o),
(1314,428,o),
(1314,581,cs),
(1314,829,l),
(789,829,l),
(789,632,l),
(1086,632,l),
(1086,453,ls),
(1086,251,o),
(933,159,o),
(767,159,cs),
(497,159,o),
(357,316,o),
(357,721,cs),
(357,1149,o),
(455,1304,o),
(753,1304,cs),
(941,1304,o),
(1050,1220,o),
(1118,1035,c),
(1319,1102,l),
(1239,1343,o),
(1073,1488,o),
(760,1488,cs),
(357,1488,o),
(113,1291,o),
(113,722,cs),
(113,163,o),
(393,-24,o),
(749,-24,cs)
);
}
);
};
layerId = "28683A17-BAD2-44EA-B42B-E882FFDD4FE1";
shapes = (
{
ref = G;
},
{
pos = (510,0);
ref = commaaccentcomb;
}
);
userData = {
com.typemytype.robofont.layerData = {
};
};
width = 1433;
},
{
background = {
anchors = (
{
name = top;
pos = (695,1464);
}
);
shapes = (
{
closed = 1;
nodes = (
(908,-25,o),
(1060,59,o),
(1124,189,c),
(1151,0,l),
(1243,0,l),
(1243,0,o),
(1253,428,o),
(1253,581,cs),
(1253,786,l),
(738,786,l),
(738,667,l),
(1116,667,l),
(1116,443,ls),
(1116,199,o),
(908,87,o),
(742,87,cs),
(398,87,o),
(264,319,o),
(264,721,cs),
(264,1149,o),
(406,1380,o),
(743,1380,cs),
(924,1380,o),
(1057,1281,o),
(1123,1100,c),
(1243,1142,l),
(1156,1377,o),
(982,1491,o),
(744,1491,cs),
(371,1491,o),
(118,1269,o),
(118,722,cs),
(118,168,o),
(384,-25,o),
(724,-25,cs)
);
}
);
};
layerId = "E322F6D1-BA90-436B-BB35-51D9BD3EA9D1";
shapes = (
{
ref = G;
},
{
pos = (488,0);
ref = commaaccentcomb;
}
);
userData = {
com.typemytype.robofont.layerData = {
b = {
anchors = (
);
components = (
);
contours = (
);
lib = {
};
name = Gcommaaccent;
unicodes = (
);
width = 1374;
};
};
};
width = 1390;
}
);
unicode = 290;
},
{
glyphname = Gdotaccent;
kernLeft = _O_left;
lastChange = "2023-02-02 13:10:15 +0000";
layers = (
{
background = {
anchors = (
{
name = top;
pos = (703.5,1464);
}
);
shapes = (
{
closed = 1;
nodes = (
(918,-25,o),
(1055,53,o),
(1118,166,c),
(1153,0,l),
(1268,0,l),
(1268,0,o),
(1278,428,o),
(1278,581,cs),
(1278,803,l),
(758,803,l),
(758,653,l),
(1104,653,l),
(1104,447,ls),
(1104,220,o),
(918,116,o),
(752,116,cs),
(438,116,o),
(301,318,o),
(301,721,cs),
(301,1149,o),
(426,1350,o),
(747,1350,cs),
(931,1350,o),
(1054,1256,o),
(1121,1074,c),
(1273,1126,l),
(1189,1363,o),
(1018,1490,o),
(750,1490,cs),
(366,1490,o),
(116,1278,o),
(116,722,cs),
(116,166,o),
(388,-25,o),
(734,-25,cs)
);
},
{
closed = 1;
nodes = (
(780,1673,l),
(780,1898,l),
(606,1898,l),
(606,1673,l)
);
}
);
};
layerId = "8E6A00A3-5EF9-4E6D-9A7B-9C1BBC7D44AD";
shapes = (
{
ref = G;
},
{
pos = (507,441);
ref = dotaccentcomb;
}
);
userData = {
com.typemytype.robofont.layerData = {
};
};
width = 1407;
},
{
background = {
anchors = (
{
name = bot;
pos = (716.5,0);
},
{
name = top;
pos = (716.5,1464);
}
);
shapes = (
{
closed = 1;
nodes = (
(933,-24,o),
(1048,44,o),
(1109,131,c),
(1156,0,l),
(1304,0,l),
(1304,0,o),
(1314,428,o),
(1314,581,cs),
(1314,829,l),
(789,829,l),
(789,632,l),
(1086,632,l),
(1086,453,ls),
(1086,251,o),
(933,159,o),
(767,159,cs),
(497,159,o),
(357,316,o),
(357,721,cs),
(357,1149,o),
(455,1304,o),
(753,1304,cs),
(941,1304,o),
(1050,1220,o),
(1118,1035,c),
(1319,1102,l),
(1239,1343,o),
(1073,1488,o),
(760,1488,cs),
(357,1488,o),
(113,1291,o),
(113,722,cs),
(113,163,o),
(393,-24,o),
(749,-24,cs)
);
},
{
closed = 1;
nodes = (
(824,1675,l),
(824,1919,l),
(595,1919,l),
(595,1675,l)
);
}
);
};
layerId = "28683A17-BAD2-44EA-B42B-E882FFDD4FE1";
shapes = (
{
ref = G;
},
{
pos = (522,441);
ref = dotaccentcomb;
}
);
userData = {
com.typemytype.robofont.layerData = {
};
};
width = 1433;
},
{
background = {
anchors = (
{
name = top;
pos = (695,1464);
}
);
shapes = (
{
closed = 1;
nodes = (
(908,-25,o),
(1060,59,o),
(1124,189,c),
(1151,0,l),
(1243,0,l),
(1243,0,o),
(1253,428,o),
(1253,581,cs),
(1253,786,l),
(738,786,l),
(738,667,l),
(1116,667,l),
(1116,443,ls),
(1116,199,o),
(908,87,o),
(742,87,cs),
(398,87,o),
(264,319,o),
(264,721,cs),
(264,1149,o),
(406,1380,o),
(743,1380,cs),
(924,1380,o),
(1057,1281,o),
(1123,1100,c),
(1243,1142,l),
(1156,1377,o),
(982,1491,o),
(744,1491,cs),
(371,1491,o),
(118,1269,o),
(118,722,cs),
(118,168,o),
(384,-25,o),
(724,-25,cs)
);
},
{
closed = 1;
nodes = (
(758,1672,l),
(758,1884,l),
(621,1884,l),
(621,1672,l)
);
}
);
};
layerId = "E322F6D1-BA90-436B-BB35-51D9BD3EA9D1";
shapes = (
{
ref = G;
},
{
pos = (496,441);
ref = dotaccentcomb;
}
);
userData = {
com.typemytype.robofont.layerData = {
b = {
anchors = (
);
components = (
);
contours = (
);
lib = {
};
name = Gdotaccent;
unicodes = (
);
width = 1390;
};
};
};
width = 1390;
}
);
unicode = 288;
},
{
glyphname = H;
lastChange = "2023-02-02 13:10:15 +0000";
layers = (
{
anchors = (
{
name = bottom;
pos = (742,0);
},
{
name = center;
pos = (742,732);
},
{
name = top;
pos = (742,1464);
},
{
name = topleft;
pos = (20,1464);
}
);
background = {
anchors = (
{
name = top;
pos = (741.5,1464);
}
);
shapes = (
{
closed = 1;
nodes = (
(321,0,l),
(321,700,l),
(1162,700,l),
(1162,0,l),
(1337,0,l),
(1337,1464,l),
(1162,1464,l),
(1162,839,l),
(321,839,l),
(321,1464,l),
(146,1464,l),
(146,0,l)
);
}
);
};
layerId = "8E6A00A3-5EF9-4E6D-9A7B-9C1BBC7D44AD";
shapes = (
{
closed = 1;
nodes = (
(321,0,l),
(321,700,l),
(1162,700,l),
(1162,0,l),
(1337,0,l),
(1337,1464,l),
(1162,1464,l),
(1162,839,l),
(321,839,l),
(321,1464,l),
(146,1464,l),
(146,0,l)
);
}
);
userData = {
anchors = (
);
b = {
};
com.typemytype.robofont.layerData = {
};
components = (
);
contours = {
};
lib = {
};
name = H;
points = {
};
segmentType = line;
unicodes = (
);
width = "1457";
x = "294";
y = "836";
};
vertWidth = 0;
width = 1483;
},
{
anchors = (
{
name = bottom;
pos = (757,0);
},
{
name = center;
pos = (757,732);
},
{
name = top;
pos = (757,1464);
},
{
name = topleft;
pos = (20,1464);
}
);
background = {
anchors = (
{
name = bot;
pos = (757,0);
},
{
name = top;
pos = (757,1464);
}
);
shapes = (
{
closed = 1;
nodes = (
(365,0,l),
(365,661,l),
(1150,661,l),
(1150,0,l),
(1381,0,l),
(1381,1464,l),
(1150,1464,l),
(1150,845,l),
(365,845,l),
(365,1464,l),
(134,1464,l),
(134,0,l)
);
}
);
};
layerId = "28683A17-BAD2-44EA-B42B-E882FFDD4FE1";
shapes = (
{
closed = 1;
nodes = (
(365,0,l),
(365,661,l),
(1150,661,l),
(1150,0,l),
(1381,0,l),
(1381,1464,l),
(1150,1464,l),
(1150,845,l),
(365,845,l),
(365,1464,l),
(134,1464,l),
(134,0,l)
);
}
);
userData = {
anchors = (
);
b = {
};
com.typemytype.robofont.layerData = {
};
components = (
);
contours = {
};
lib = {
};
name = H;
points = {
};
segmentType = line;
unicodes = (
);
width = "1457";
x = "294";
y = "836";
};
vertWidth = 0;
width = 1514;
},
{
anchors = (
{
name = bottom;
pos = (731,0);
},
{
name = center;
pos = (731,732);
},
{
name = top;
pos = (731,1464);
},
{
name = topleft;
pos = (20,1464);
}
);
background = {
anchors = (
{
name = top;
pos = (731,1464);
}
);
shapes = (
{
closed = 1;
nodes = (
(292,0,l),
(292,725,l),
(1170,725,l),
(1170,0,l),
(1308,0,l),
(1308,1464,l),
(1170,1464,l),
(1170,835,l),
(292,835,l),
(292,1464,l),
(154,1464,l),
(154,0,l)
);
}
);
};
layerId = "E322F6D1-BA90-436B-BB35-51D9BD3EA9D1";
shapes = (
{
closed = 1;
nodes = (
(292,0,l),
(292,725,l),
(1170,725,l),
(1170,0,l),
(1308,0,l),
(1308,1464,l),
(1170,1464,l),
(1170,835,l),
(292,835,l),
(292,1464,l),
(154,1464,l),
(154,0,l)
);
}
);
userData = {
anchors = (
);
b = {
};
com.typemytype.robofont.layerData = {
b = {
anchors = (
);
components = (
);
contours = (
);
lib = {
};
name = H;
unicodes = (
);
width = 1462;
};
};
components = (
);
contours = {
};
lib = {
};
name = H;
points = {
};
segmentType = line;
unicodes = (
);
width = "1457";
x = "294";
y = "836";
};
vertWidth = 0;
width = 1462;
}
);
unicode = 72;
},
{
glyphname = Hbar;
lastChange = "2023-02-02 13:10:15 +0000";
layers = (
{
background = {
anchors = (
{
name = top;
pos = (741.5,1464);
}
);
shapes = (
{
closed = 1;
nodes = (
(1423,1144,l),
(1423,1240,l),
(48,1240,l),
(48,1144,l)
);
},
{
closed = 1;
nodes = (
(321,0,l),
(321,700,l),
(1162,700,l),
(1162,0,l),
(1337,0,l),
(1337,1464,l),
(1162,1464,l),
(1162,839,l),
(321,839,l),
(321,1464,l),
(146,1464,l),
(146,0,l)
);
}
);
};
layerId = "8E6A00A3-5EF9-4E6D-9A7B-9C1BBC7D44AD";
shapes = (
{
closed = 1;
nodes = (
(1423,1144,l),
(1423,1240,l),
(48,1240,l),
(48,1144,l)
);
},
{
ref = H;
}
);
vertWidth = 0;
width = 1457;
},
{
background = {
anchors = (
{
name = bot;
pos = (757,0);
},
{
name = top;
pos = (757,1464);
}
);
shapes = (
{
closed = 1;
nodes = (
(1467,1144,l),
(1467,1258,l),
(48,1258,l),
(48,1144,l)
);
},
{
closed = 1;
nodes = (
(365,0,l),
(365,661,l),
(1150,661,l),
(1150,0,l),
(1381,0,l),
(1381,1464,l),
(1150,1464,l),
(1150,845,l),
(365,845,l),
(365,1464,l),
(134,1464,l),
(134,0,l)
);
}
);
};
layerId = "28683A17-BAD2-44EA-B42B-E882FFDD4FE1";
shapes = (
{
closed = 1;
nodes = (
(1467,1144,l),
(1467,1258,l),
(48,1258,l),
(48,1144,l)
);
},
{
ref = H;
}
);
vertWidth = 0;
width = 1457;
},
{
background = {
anchors = (
{
name = top;
pos = (731,1464);
}
);
shapes = (
{
closed = 1;
nodes = (
(1394,1144,l),
(1394,1228,l),
(48,1228,l),
(48,1144,l)
);
},
{
closed = 1;
nodes = (
(292,0,l),
(292,725,l),
(1170,725,l),
(1170,0,l),
(1308,0,l),
(1308,1464,l),
(1170,1464,l),
(1170,835,l),
(292,835,l),
(292,1464,l),
(154,1464,l),
(154,0,l)
);
}
);
};
layerId = "E322F6D1-BA90-436B-BB35-51D9BD3EA9D1";
shapes = (
{
closed = 1;
nodes = (
(1394,1144,l),
(1394,1228,l),
(48,1228,l),
(48,1144,l)
);
},
{
ref = H;
}
);
vertWidth = 0;
width = 1457;
}
);
unicode = 294;
},
{
glyphname = Hcaron;
lastChange = "2023-02-02 13:10:15 +0000";
layers = (
{
background = {
anchors = (
{
name = top;
pos = (741.5,1464);
}
);
shapes = (
{
closed = 1;
nodes = (
(321,0,l),
(321,700,l),
(1162,700,l),
(1162,0,l),
(1337,0,l),
(1337,1464,l),
(1162,1464,l),
(1162,839,l),
(321,839,l),
(321,1464,l),
(146,1464,l),
(146,0,l)
);
},
{
closed = 1;
nodes = (
(851,1595,l),
(1024,1915,l),
(909,1915,l),
(747,1676,l),
(586,1915,l),
(471,1915,l),
(644,1595,l)
);
}
);
};
layerId = "8E6A00A3-5EF9-4E6D-9A7B-9C1BBC7D44AD";
shapes = (
{
ref = H;
},
{
pos = (317,441);
ref = caroncomb;
}
);
width = 1483;
},
{
background = {
anchors = (
{
name = bot;
pos = (757,0);
},
{
name = top;
pos = (757,1464);
}
);
shapes = (
{
closed = 1;
nodes = (
(365,0,l),
(365,661,l),
(1150,661,l),
(1150,0,l),
(1381,0,l),
(1381,1464,l),
(1150,1464,l),
(1150,845,l),
(365,845,l),
(365,1464,l),
(134,1464,l),
(134,0,l)
);
},
{
closed = 1;
nodes = (
(896,1595,l),
(1047,1915,l),
(898,1915,l),
(762,1702,l),
(627,1915,l),
(479,1915,l),
(629,1595,l)
);
}
);
};
layerId = "28683A17-BAD2-44EA-B42B-E882FFDD4FE1";
shapes = (
{
ref = H;
},
{
pos = (332,441);
ref = caroncomb;
}
);
width = 1514;
},
{
background = {
anchors = (
{
name = top;
pos = (731,1464);
}
);
shapes = (
{
closed = 1;
nodes = (
(292,0,l),
(292,725,l),
(1170,725,l),
(1170,0,l),
(1308,0,l),
(1308,1464,l),
(1170,1464,l),
(1170,835,l),
(292,835,l),
(292,1464,l),
(154,1464,l),
(154,0,l)
);
},
{
closed = 1;
nodes = (
(820,1595,l),
(1008,1915,l),
(916,1915,l),
(736,1659,l),
(558,1915,l),
(465,1915,l),
(653,1595,l)
);
}
);
};
layerId = "E322F6D1-BA90-436B-BB35-51D9BD3EA9D1";
shapes = (
{
ref = H;
},
{
pos = (306,441);
ref = caroncomb;
}
);
width = 1462;
}
);
unicode = 542;
},
{
glyphname = Hcircumflex;
lastChange = "2023-02-02 13:10:15 +0000";
layers = (
{
background = {
anchors = (
{
name = top;
pos = (741.5,1464);
}
);
shapes = (
{
closed = 1;
nodes = (
(321,0,l),
(321,700,l),
(1162,700,l),
(1162,0,l),
(1337,0,l),
(1337,1464,l),
(1162,1464,l),
(1162,839,l),
(321,839,l),
(321,1464,l),
(146,1464,l),
(146,0,l)
);
},
{
closed = 1;
nodes = (
(573,1595,l),
(734,1834,l),
(896,1595,l),
(1011,1595,l),
(838,1915,l),
(631,1915,l),
(458,1595,l)
);
}
);
};
layerId = "8E6A00A3-5EF9-4E6D-9A7B-9C1BBC7D44AD";
shapes = (
{
ref = H;
},
{
pos = (330,441);
ref = circumflexcomb;
}
);
width = 1483;
},
{
background = {
anchors = (
{
name = bot;
pos = (757,0);
},
{
name = top;
pos = (757,1464);
}
);
shapes = (
{
closed = 1;
nodes = (
(365,0,l),
(365,661,l),
(1150,661,l),
(1150,0,l),
(1381,0,l),
(1381,1464,l),
(1150,1464,l),
(1150,845,l),
(365,845,l),
(365,1464,l),
(134,1464,l),
(134,0,l)
);
},
{
closed = 1;
nodes = (
(631,1595,l),
(765,1808,l),
(901,1595,l),
(1050,1595,l),
(899,1915,l),
(632,1915,l),
(482,1595,l)
);
}
);
};
layerId = "28683A17-BAD2-44EA-B42B-E882FFDD4FE1";
shapes = (
{
ref = H;
},
{
pos = (329,441);
ref = circumflexcomb;
}
);
width = 1514;
},
{
background = {
anchors = (
{
name = top;
pos = (731,1464);
}
);
shapes = (
{
closed = 1;
nodes = (
(292,0,l),
(292,725,l),
(1170,725,l),
(1170,0,l),
(1308,0,l),
(1308,1464,l),
(1170,1464,l),
(1170,835,l),
(292,835,l),
(292,1464,l),
(154,1464,l),
(154,0,l)
);
},
{
closed = 1;
nodes = (
(533,1595,l),
(712,1852,l),
(891,1595,l),
(984,1595,l),
(796,1915,l),
(629,1915,l),
(441,1595,l)
);
}
);
};
layerId = "E322F6D1-BA90-436B-BB35-51D9BD3EA9D1";
shapes = (
{
ref = H;
},
{
pos = (330,441);
ref = circumflexcomb;
}
);
width = 1462;
}
);
unicode = 292;
},
{
glyphname = I;
lastChange = "2023-02-02 13:10:15 +0000";
layers = (
{
anchors = (
{
name = bottom;
pos = (232,0);
},
{
name = ogonek;
pos = (313,0);
},
{
name = top;
pos = (232,1464);
},
{
name = topleft;
pos = (20,1464);
}
);
background = {
anchors = (
{
name = ogonek;
pos = (237,0);
},
{
name = top;
pos = (232,1464);
}
);
shapes = (
{
closed = 1;
nodes = (
(323,0,l),
(323,1464,l),
(148,1464,l),
(148,0,l)
);
}
);
};
layerId = "8E6A00A3-5EF9-4E6D-9A7B-9C1BBC7D44AD";
shapes = (
{
closed = 1;
nodes = (
(323,0,l),
(323,1464,l),
(148,1464,l),
(148,0,l)
);
}
);
userData = {
com.typemytype.robofont.layerData = {
};
};
vertWidth = 0;
width = 464;
},
{
anchors = (
{
name = bottom;
pos = (232,0);
},
{
name = ogonek;
pos = (330,0);
},
{
name = top;
pos = (232,1464);
},
{
name = topleft;
pos = (20,1464);
}
);
background = {
anchors = (
{
name = bot;
pos = (232,0);
},
{
name = ogonek;
pos = (232,0);
},
{
name = top;
pos = (232,1464);
}
);
shapes = (
{
closed = 1;
nodes = (
(350,0,l),
(350,1464,l),
(119,1464,l),
(119,0,l)
);
}
);
};
layerId = "28683A17-BAD2-44EA-B42B-E882FFDD4FE1";
shapes = (
{
closed = 1;
nodes = (
(350,0,l),
(350,1464,l),
(119,1464,l),
(119,0,l)
);
}
);
userData = {
com.typemytype.robofont.layerData = {
};
};
vertWidth = 0;
width = 464;
},
{
anchors = (
{
name = bottom;
pos = (232,0);
},
{
name = ogonek;
pos = (308,0);
},
{
name = top;
pos = (232,1464);
},
{
name = topleft;
pos = (20,1464);
}
);
background = {
anchors = (
{
name = ogonek;
pos = (247,0);
},
{
name = top;
pos = (232,1464);
}
);
shapes = (
{
closed = 1;
nodes = (
(305,0,l),
(305,1464,l),
(167,1464,l),
(167,0,l)
);
}
);
};
layerId = "E322F6D1-BA90-436B-BB35-51D9BD3EA9D1";
shapes = (
{
closed = 1;
nodes = (
(305,0,l),
(305,1464,l),
(167,1464,l),
(167,0,l)
);
}
);
userData = {
com.typemytype.robofont.layerData = {
b = {
anchors = (
);
components = (
);
contours = (
);
lib = {
};
name = I;
unicodes = (
);
width = 464;
};
};
};
vertWidth = 0;
width = 464;
}
);
unicode = 73;
},
{
glyphname = IJ;
lastChange = "2023-02-02 13:10:15 +0000";
layers = (
{
background = {
anchors = (
{
name = ogonek;
pos = (237,0);
},
{
name = top;
pos = (1240,1464);
}
);
shapes = (
{
closed = 1;
nodes = (
(323,0,l),
(323,1464,l),
(148,1464,l),
(148,0,l)
);
},
{
closed = 1;
nodes = (
(1204,-23,o),
(1325,166,o),
(1325,544,cs),
(1325,1464,l),
(1150,1464,l),
(1150,541,ls),
(1150,294,o),
(1117,120,o),
(899,119,cs),
(763,119,o),
(686,205,o),
(648,376,c),
(491,333,l),
(534,116,o),
(662,-23,o),
(890,-23,cs)
);
}
);
};
layerId = "8E6A00A3-5EF9-4E6D-9A7B-9C1BBC7D44AD";
shapes = (
{
ref = I;
},
{
pos = (464,0);
ref = J;
}
);
width = 1461;
},
{
background = {
anchors = (
{
name = bot;
pos = (1002.5,0);
},
{
name = ogonek;
pos = (232,0);
},
{
name = top;
pos = (1267,1464);
}
);
shapes = (
{
closed = 1;
nodes = (
(350,0,l),
(350,1464,l),
(119,1464,l),
(119,0,l)
);
},
{
closed = 1;
nodes = (
(1246,-19,o),
(1405,166,o),
(1405,544,cs),
(1405,1464,l),
(1174,1464,l),
(1174,541,ls),
(1174,270,o),
(1108,167,o),
(934,168,cs),
(847,168,o),
(748,219,o),
(710,390,c),
(501,332,l),
(544,115,o),
(698,-19,o),
(929,-19,cs)
);
}
);
};
layerId = "28683A17-BAD2-44EA-B42B-E882FFDD4FE1";
shapes = (
{
ref = I;
},
{
pos = (464,0);
ref = J;
}
);
width = 1541;
},
{
background = {
anchors = (
{
name = ogonek;
pos = (247,0);
},
{
name = top;
pos = (1203,1464);
}
);
shapes = (
{
closed = 1;
nodes = (
(305,0,l),
(305,1464,l),
(167,1464,l),
(167,0,l)
);
},
{
closed = 1;
nodes = (
(1176,-26,o),
(1271,166,o),
(1271,544,cs),
(1271,1464,l),
(1134,1464,l),
(1134,541,ls),
(1134,309,o),
(1122,89,o),
(876,87,cs),
(708,87,o),
(645,196,o),
(607,367,c),
(484,334,l),
(527,117,o),
(638,-26,o),
(864,-26,cs)
);
}
);
};
layerId = "E322F6D1-BA90-436B-BB35-51D9BD3EA9D1";
shapes = (
{
ref = I;
},
{
pos = (464,0);
ref = J;
}
);
width = 1407;
}
);
unicode = 306;
},
{
glyphname = Iacute;
lastChange = "2023-02-02 13:10:15 +0000";
layers = (
{
background = {
anchors = (
{
name = ogonek;
pos = (237,0);
},
{
name = top;
pos = (232,1464);
}
);
shapes = (
{
closed = 1;
nodes = (
(323,0,l),
(323,1464,l),
(148,1464,l),
(148,0,l)
);
},
{
closed = 1;
nodes = (
(568,1911,l),
(335,1911,l),
(131,1592,l),
(244,1591,l)
);
}
);
};
layerId = "8E6A00A3-5EF9-4E6D-9A7B-9C1BBC7D44AD";
shapes = (
{
ref = I;
},
{
pos = (86,441);
ref = acutecomb;
}
);
userData = {
com.typemytype.robofont.layerData = {
};
};
width = 464;
},
{
background = {
anchors = (
{
name = bot;
pos = (232,0);
},
{
name = ogonek;
pos = (232,0);
},
{
name = top;
pos = (232,1464);
}
);
shapes = (
{
closed = 1;
nodes = (
(350,0,l),
(350,1464,l),
(119,1464,l),
(119,0,l)
);
},
{
closed = 1;
nodes = (
(267,1584,l),
(624,1904,l),
(320,1904,l),
(118,1583,l)
);
}
);
};
layerId = "28683A17-BAD2-44EA-B42B-E882FFDD4FE1";
shapes = (
{
ref = I;
},
{
pos = (125,441);
ref = acutecomb;
}
);
userData = {
com.typemytype.robofont.layerData = {
};
};
width = 464;
},
{
background = {
anchors = (
{
name = ogonek;
pos = (247,0);
},
{
name = top;
pos = (232,1464);
}
);
shapes = (
{
closed = 1;
nodes = (
(305,0,l),
(305,1464,l),
(167,1464,l),
(167,0,l)
);
},
{
closed = 1;
nodes = (
(517,1916,l),
(331,1916,l),
(126,1597,l),
(215,1596,l)
);
}
);
};
layerId = "E322F6D1-BA90-436B-BB35-51D9BD3EA9D1";
shapes = (
{
ref = I;
},
{
pos = (43,441);
ref = acutecomb;
}
);
userData = {
com.typemytype.robofont.layerData = {
b = {
anchors = (
);
components = (
);
contours = (
);
lib = {
};
name = Iacute;
unicodes = (
);
width = 464;
};
};
};
width = 464;
}
);
unicode = 205;
},
{
glyphname = Ibreve;
lastChange = "2023-02-02 13:10:15 +0000";
layers = (
{
background = {
anchors = (
{
name = ogonek;
pos = (237,0);
},
{
name = top;
pos = (232,1464);
}
);
shapes = (
{
closed = 1;
nodes = (
(323,0,l),
(323,1464,l),
(148,1464,l),
(148,0,l)
);
},
{
closed = 1;
nodes = (
(372,1666,o),
(502,1741,o),
(506,1929,c),
(368,1929,l),
(368,1838,o),
(327,1790,o),
(229,1790,cs),
(132,1790,o),
(91,1838,o),
(91,1929,c),
(-48,1929,l),
(-44,1741,o),
(86,1666,o),
(229,1666,cs)
);
}
);
};
layerId = "8E6A00A3-5EF9-4E6D-9A7B-9C1BBC7D44AD";
shapes = (
{
ref = I;
},
{
pos = (-168,441);
ref = brevecomb;
}
);
userData = {
com.typemytype.robofont.layerData = {
};
};
width = 464;
},
{
background = {
anchors = (
{
name = bot;
pos = (232,0);
},
{
name = ogonek;
pos = (232,0);
},
{
name = top;
pos = (232,1464);
}
);
shapes = (
{
closed = 1;
nodes = (
(350,0,l),
(350,1464,l),
(119,1464,l),
(119,0,l)
);
},
{
closed = 1;
nodes = (
(367,1632,o),
(507,1708,o),
(511,1911,c),
(329,1911,l),
(329,1850,o),
(325,1795,o),
(231,1795,cs),
(138,1795,o),
(134,1850,o),
(134,1911,c),
(-48,1911,l),
(-44,1708,o),
(96,1632,o),
(231,1632,cs)
);
}
);
};
layerId = "28683A17-BAD2-44EA-B42B-E882FFDD4FE1";
shapes = (
{
ref = I;
},
{
pos = (-171,441);
ref = brevecomb;
}
);
userData = {
com.typemytype.robofont.layerData = {
};
};
width = 464;
},
{
background = {
anchors = (
{
name = ogonek;
pos = (247,0);
},
{
name = top;
pos = (232,1464);
}
);
shapes = (
{
closed = 1;
nodes = (
(305,0,l),
(305,1464,l),
(167,1464,l),
(167,0,l)
);
},
{
closed = 1;
nodes = (
(376,1689,o),
(499,1763,o),
(503,1941,c),
(393,1941,l),
(393,1830,o),
(328,1786,o),
(228,1786,cs),
(128,1786,o),
(62,1830,o),
(62,1941,c),
(-48,1941,l),
(-44,1763,o),
(80,1689,o),
(228,1689,cs)
);
}
);
};
layerId = "E322F6D1-BA90-436B-BB35-51D9BD3EA9D1";
shapes = (
{
ref = I;
},
{
pos = (-167,441);
ref = brevecomb;
}
);
userData = {
com.typemytype.robofont.layerData = {
b = {
anchors = (
);
components = (
);
contours = (
);
lib = {
};
name = Ibreve;
unicodes = (
);
width = 464;
};
};
};
width = 464;
}
);
unicode = 300;
},
{
glyphname = Icaron;
lastChange = "2023-02-02 13:10:15 +0000";
layers = (
{
background = {
anchors = (
{
name = ogonek;
pos = (237,0);
},
{
name = top;
pos = (232,1464);
}
);
shapes = (
{
closed = 1;
nodes = (
(323,0,l),
(323,1464,l),
(148,1464,l),
(148,0,l)
);
},
{
closed = 1;
nodes = (
(341,1595,l),
(514,1915,l),
(399,1915,l),
(237,1676,l),
(76,1915,l),
(-39,1915,l),
(134,1595,l)
);
}
);
};
layerId = "8E6A00A3-5EF9-4E6D-9A7B-9C1BBC7D44AD";
shapes = (
{
ref = I;
},
{
pos = (-193,441);
ref = caroncomb;
}
);
width = 464;
},
{
background = {
anchors = (
{
name = bot;
pos = (232,0);
},
{
name = ogonek;
pos = (232,0);
},
{
name = top;
pos = (232,1464);
}
);
shapes = (
{
closed = 1;
nodes = (
(350,0,l),
(350,1464,l),
(119,1464,l),
(119,0,l)
);
},
{
closed = 1;
nodes = (
(371,1595,l),
(522,1915,l),
(373,1915,l),
(237,1702,l),
(102,1915,l),
(-46,1915,l),
(104,1595,l)
);
}
);
};
layerId = "28683A17-BAD2-44EA-B42B-E882FFDD4FE1";
shapes = (
{
ref = I;
},
{
pos = (-193,441);
ref = caroncomb;
}
);
width = 464;
},
{
background = {
anchors = (
{
name = ogonek;
pos = (247,0);
},
{
name = top;
pos = (232,1464);
}
);
shapes = (
{
closed = 1;
nodes = (
(305,0,l),
(305,1464,l),
(167,1464,l),
(167,0,l)
);
},
{
closed = 1;
nodes = (
(321,1595,l),
(509,1915,l),
(417,1915,l),
(237,1659,l),
(59,1915,l),
(-34,1915,l),
(154,1595,l)
);
}
);
};
layerId = "E322F6D1-BA90-436B-BB35-51D9BD3EA9D1";
shapes = (
{
ref = I;
},
{
pos = (-193,441);
ref = caroncomb;
}
);
width = 464;
}
);
unicode = 463;
},
{
glyphname = Icircumflex;
lastChange = "2023-02-02 13:10:15 +0000";
layers = (
{
background = {
anchors = (
{
name = ogonek;
pos = (237,0);
},
{
name = top;
pos = (232,1464);
}
);
shapes = (
{
closed = 1;
nodes = (
(323,0,l),
(323,1464,l),
(148,1464,l),
(148,0,l)
);
},
{
closed = 1;
nodes = (
(63,1595,l),
(224,1834,l),
(386,1595,l),
(501,1595,l),
(328,1915,l),
(121,1915,l),
(-52,1595,l)
);
}
);
};
layerId = "8E6A00A3-5EF9-4E6D-9A7B-9C1BBC7D44AD";
shapes = (
{
ref = I;
},
{
pos = (-180,441);
ref = circumflexcomb;
}
);
userData = {
com.typemytype.robofont.layerData = {
};
};
width = 464;
},
{
background = {
anchors = (
{
name = bot;
pos = (232,0);
},
{
name = ogonek;
pos = (232,0);
},
{
name = top;
pos = (232,1464);
}
);
shapes = (
{
closed = 1;
nodes = (
(350,0,l),
(350,1464,l),
(119,1464,l),
(119,0,l)
);
},
{
closed = 1;
nodes = (
(106,1595,l),
(240,1808,l),
(376,1595,l),
(525,1595,l),
(374,1915,l),
(107,1915,l),
(-43,1595,l)
);
}
);
};
layerId = "28683A17-BAD2-44EA-B42B-E882FFDD4FE1";
shapes = (
{
ref = I;
},
{
pos = (-196,441);
ref = circumflexcomb;
}
);
userData = {
com.typemytype.robofont.layerData = {
};
};
width = 464;
},
{
background = {
anchors = (
{
name = ogonek;
pos = (247,0);
},
{
name = top;
pos = (232,1464);
}
);
shapes = (
{
closed = 1;
nodes = (
(305,0,l),
(305,1464,l),
(167,1464,l),
(167,0,l)
);
},
{
closed = 1;
nodes = (
(34,1595,l),
(213,1852,l),
(392,1595,l),
(485,1595,l),
(297,1915,l),
(130,1915,l),
(-58,1595,l)
);
}
);
};
layerId = "E322F6D1-BA90-436B-BB35-51D9BD3EA9D1";
shapes = (
{
ref = I;
},
{
pos = (-169,441);
ref = circumflexcomb;
}
);
userData = {
com.typemytype.robofont.layerData = {
b = {
anchors = (
);
components = (
);
contours = (
);
lib = {
};
name = Icircumflex;
unicodes = (
);
width = 464;
};
};
};
width = 464;
}
);
unicode = 206;
},
{
glyphname = Idblgrave;
lastChange = "2023-02-02 13:10:15 +0000";
layers = (
{
background = {
anchors = (
{
name = ogonek;
pos = (237,0);
},
{
name = top;
pos = (232,1464);
}
);
shapes = (
{
closed = 1;
nodes = (
(323,0,l),
(323,1464,l),
(148,1464,l),
(148,0,l)
);
},
{
closed = 1;
nodes = (
(113,1594,l),
(-5,1922,l),
(-237,1922,l),
(26,1594,l)
);
},
{
closed = 1;
nodes = (
(405,1594,l),
(316,1922,l),
(91,1922,l),
(326,1594,l)
);
}
);
};
layerId = "8E6A00A3-5EF9-4E6D-9A7B-9C1BBC7D44AD";
shapes = (
{
ref = I;
},
{
pos = (-303,441);
ref = dblgravecomb;
}
);
userData = {
com.typemytype.robofont.layerData = {
};
};
width = 464;
},
{
background = {
anchors = (
{
name = bot;
pos = (232,0);
},
{
name = ogonek;
pos = (232,0);
},
{
name = top;
pos = (232,1464);
}
);
shapes = (
{
closed = 1;
nodes = (
(350,0,l),
(350,1464,l),
(119,1464,l),
(119,0,l)
);
}
);
};
layerId = "28683A17-BAD2-44EA-B42B-E882FFDD4FE1";
shapes = (
{
ref = I;
},
{
pos = (-303,441);
ref = dblgravecomb;
}
);
userData = {
com.typemytype.robofont.layerData = {
};
};
width = 464;
},
{
background = {
anchors = (
{
name = ogonek;
pos = (247,0);
},
{
name = top;
pos = (232,1464);
}
);
shapes = (
{
closed = 1;
nodes = (
(305,0,l),
(305,1464,l),
(167,1464,l),
(167,0,l)
);
}
);
};
layerId = "E322F6D1-BA90-436B-BB35-51D9BD3EA9D1";
shapes = (
{
ref = I;
},
{
pos = (-303,441);
ref = dblgravecomb;
}
);
userData = {
com.typemytype.robofont.layerData = {
b = {
anchors = (
);
components = (
);
contours = (
);
lib = {
};
name = uni0208;
unicodes = (
);
width = 464;
};
};
};
width = 464;
}
);
unicode = 520;
},
{
glyphname = Idieresis;
lastChange = "2023-02-02 13:10:15 +0000";
layers = (
{
background = {
anchors = (
{
name = ogonek;
pos = (237,0);
},
{
name = top;
pos = (232,1464);
}
);
shapes = (
{
closed = 1;
nodes = (
(323,0,l),
(323,1464,l),
(148,1464,l),
(148,0,l)
);
},
{
closed = 1;
nodes = (
(514,1621,l),
(514,1819,l),
(320,1819,l),
(320,1621,l)
);
},
{
closed = 1;
nodes = (
(107,1621,l),
(107,1819,l),
(-87,1819,l),
(-87,1621,l)
);
}
);
};
layerId = "8E6A00A3-5EF9-4E6D-9A7B-9C1BBC7D44AD";
shapes = (
{
ref = I;
},
{
pos = (-180,441);
ref = dieresiscomb;
}
);
width = 464;
},
{
background = {
anchors = (
{
name = bot;
pos = (232,0);
},
{
name = ogonek;
pos = (232,0);
},
{
name = top;
pos = (232,1464);
}
);
shapes = (
{
closed = 1;
nodes = (
(350,0,l),
(350,1464,l),
(119,1464,l),
(119,0,l)
);
},
{
closed = 1;
nodes = (
(115,1601,l),
(115,1844,l),
(-132,1844,l),
(-132,1601,l)
);
},
{
closed = 1;
nodes = (
(574,1601,l),
(574,1844,l),
(328,1844,l),
(328,1601,l)
);
}
);
};
layerId = "28683A17-BAD2-44EA-B42B-E882FFDD4FE1";
shapes = (
{
ref = I;
},
{
pos = (-187,441);
ref = dieresiscomb;
}
);
width = 464;
},
{
background = {
anchors = (
{
name = ogonek;
pos = (247,0);
},
{
name = top;
pos = (232,1464);
}
);
shapes = (
{
closed = 1;
nodes = (
(305,0,l),
(305,1464,l),
(167,1464,l),
(167,0,l)
);
},
{
closed = 1;
nodes = (
(474,1635,l),
(474,1803,l),
(315,1803,l),
(315,1635,l)
);
},
{
closed = 1;
nodes = (
(102,1635,l),
(102,1803,l),
(-57,1803,l),
(-57,1635,l)
);
}
);
};
layerId = "E322F6D1-BA90-436B-BB35-51D9BD3EA9D1";
shapes = (
{
ref = I;
},
{
pos = (-175,441);
ref = dieresiscomb;
}
);
width = 464;
}
);
unicode = 207;
},
{
glyphname = Idotaccent;
lastChange = "2023-02-02 13:10:15 +0000";
layers = (
{
background = {
anchors = (
{
name = ogonek;
pos = (237,0);
},
{
name = top;
pos = (232,1464);
}
);
shapes = (
{
closed = 1;
nodes = (
(323,0,l),
(323,1464,l),
(148,1464,l),
(148,0,l)
);
},
{
closed = 1;
nodes = (
(308,1673,l),
(308,1898,l),
(134,1898,l),
(134,1673,l)
);
}
);
};
layerId = "8E6A00A3-5EF9-4E6D-9A7B-9C1BBC7D44AD";
shapes = (
{
ref = I;
},
{
pos = (15,441);
ref = dotaccentcomb;
}
);
width = 464;
},
{
background = {
anchors = (
{
name = bot;
pos = (232,0);
},
{
name = ogonek;
pos = (232,0);
},
{
name = top;
pos = (232,1464);
}
);
shapes = (
{
closed = 1;
nodes = (
(350,0,l),
(350,1464,l),
(119,1464,l),
(119,0,l)
);
},
{
closed = 1;
nodes = (
(339,1675,l),
(339,1919,l),
(110,1919,l),
(110,1675,l)
);
}
);
};
layerId = "28683A17-BAD2-44EA-B42B-E882FFDD4FE1";
shapes = (
{
ref = I;
},
{
pos = (17,441);
ref = dotaccentcomb;
}
);
width = 464;
},
{
background = {
anchors = (
{
name = ogonek;
pos = (247,0);
},
{
name = top;
pos = (232,1464);
}
);
shapes = (
{
closed = 1;
nodes = (
(305,0,l),
(305,1464,l),
(167,1464,l),
(167,0,l)
);
},
{
closed = 1;
nodes = (
(295,1672,l),
(295,1884,l),
(158,1884,l),
(158,1672,l)
);
}
);
};
layerId = "E322F6D1-BA90-436B-BB35-51D9BD3EA9D1";
shapes = (
{
ref = I;
},
{
pos = (13,441);
ref = dotaccentcomb;
}
);
width = 464;
}
);
unicode = 304;
},
{
glyphname = Igrave;
lastChange = "2023-02-02 13:10:15 +0000";
layers = (
{
background = {
anchors = (
{
name = ogonek;
pos = (237,0);
},
{
name = top;
pos = (232,1464);
}
);
shapes = (
{
closed = 1;
nodes = (
(323,0,l),
(323,1464,l),
(148,1464,l),
(148,0,l)
);
},
{
closed = 1;
nodes = (
(353,1596,l),
(149,1915,l),
(-84,1915,l),
(240,1595,l)
);
}
);
};
layerId = "8E6A00A3-5EF9-4E6D-9A7B-9C1BBC7D44AD";
shapes = (
{
ref = I;
},
{
pos = (-117,441);
ref = gravecomb;
}
);
width = 464;
},
{
background = {
anchors = (
{
name = bot;
pos = (232,0);
},
{
name = ogonek;
pos = (232,0);
},
{
name = top;
pos = (232,1464);
}
);
shapes = (
{
closed = 1;
nodes = (
(350,0,l),
(350,1464,l),
(119,1464,l),
(119,0,l)
);
},
{
closed = 1;
nodes = (
(326,1595,l),
(124,1915,l),
(-180,1915,l),
(177,1595,l)
);
}
);
};
layerId = "28683A17-BAD2-44EA-B42B-E882FFDD4FE1";
shapes = (
{
ref = I;
},
{
pos = (-167,441);
ref = gravecomb;
}
);
width = 464;
},
{
background = {
anchors = (
{
name = ogonek;
pos = (247,0);
},
{
name = top;
pos = (232,1464);
}
);
shapes = (
{
closed = 1;
nodes = (
(305,0,l),
(305,1464,l),
(167,1464,l),
(167,0,l)
);
},
{
closed = 1;
nodes = (
(328,1596,l),
(123,1915,l),
(-63,1915,l),
(239,1595,l)
);
}
);
};
layerId = "E322F6D1-BA90-436B-BB35-51D9BD3EA9D1";
shapes = (
{
ref = I;
},
{
pos = (-126,441);
ref = gravecomb;
}
);
width = 464;
}
);
unicode = 204;
},
{
glyphname = Iinvertedbreve;
lastChange = "2023-02-02 13:10:15 +0000";
layers = (
{
background = {
anchors = (
{
name = ogonek;
pos = (237,0);
},
{
name = top;
pos = (232,1464);
}
);
shapes = (
{
closed = 1;
nodes = (
(323,0,l),
(323,1464,l),
(148,1464,l),
(148,0,l)
);
},
{
closed = 1;
nodes = (
(86,1615,l),
(86,1706,o),
(130,1755,o),
(228,1755,cs),
(325,1755,o),
(370,1706,o),
(370,1615,c),
(509,1615,l),
(505,1803,o),
(371,1878,o),
(228,1878,cs),
(85,1878,o),
(-49,1803,o),
(-53,1615,c)
);
}
);
};
layerId = "8E6A00A3-5EF9-4E6D-9A7B-9C1BBC7D44AD";
shapes = (
{
ref = I;
},
{
pos = (-174,441);
ref = breveinvertedcomb;
}
);
userData = {
com.typemytype.robofont.layerData = {
};
};
width = 464;
},
{
background = {
anchors = (
{
name = bot;
pos = (232,0);
},
{
name = ogonek;
pos = (232,0);
},
{
name = top;
pos = (232,1464);
}
);
shapes = (
{
closed = 1;
nodes = (
(350,0,l),
(350,1464,l),
(119,1464,l),
(119,0,l)
);
}
);
};
layerId = "28683A17-BAD2-44EA-B42B-E882FFDD4FE1";
shapes = (
{
ref = I;
},
{
pos = (-178,441);
ref = breveinvertedcomb;
}
);
userData = {
com.typemytype.robofont.layerData = {
};
};
width = 464;
},
{
background = {
anchors = (
{
name = ogonek;
pos = (247,0);
},
{
name = top;
pos = (232,1464);
}
);
shapes = (
{
closed = 1;
nodes = (
(305,0,l),
(305,1464,l),
(167,1464,l),
(167,0,l)
);
}
);
};
layerId = "E322F6D1-BA90-436B-BB35-51D9BD3EA9D1";
shapes = (
{
ref = I;
},
{
pos = (-144,441);
ref = breveinvertedcomb;
}
);
userData = {
com.typemytype.robofont.layerData = {
b = {
anchors = (
);
components = (
);
contours = (
);
lib = {
};
name = uni020A;
unicodes = (
);
width = 464;
};
};
};
width = 464;
}
);
unicode = 522;
},
{
glyphname = Imacron;
lastChange = "2023-02-02 13:10:15 +0000";
layers = (
{
background = {
anchors = (
{
name = ogonek;
pos = (237,0);
},
{
name = top;
pos = (232,1464);
}
);
shapes = (
{
closed = 1;
nodes = (
(323,0,l),
(323,1464,l),
(148,1464,l),
(148,0,l)
);
},
{
closed = 1;
nodes = (
(452,1668,l),
(452,1788,l),
(-2,1788,l),
(-2,1668,l)
);
}
);
};
layerId = "8E6A00A3-5EF9-4E6D-9A7B-9C1BBC7D44AD";
shapes = (
{
ref = I;
},
{
pos = (-133,441);
ref = macroncomb;
}
);
userData = {
com.typemytype.robofont.layerData = {
};
};
width = 464;
},
{
background = {
anchors = (
{
name = bot;
pos = (232,0);
},
{
name = ogonek;
pos = (232,0);
},
{
name = top;
pos = (232,1464);
}
);
shapes = (
{
closed = 1;
nodes = (
(350,0,l),
(350,1464,l),
(119,1464,l),
(119,0,l)
);
},
{
closed = 1;
nodes = (
(478,1607,l),
(478,1764,l),
(24,1764,l),
(24,1607,l)
);
}
);
};
layerId = "28683A17-BAD2-44EA-B42B-E882FFDD4FE1";
shapes = (
{
ref = I;
},
{
pos = (-149,441);
ref = macroncomb;
}
);
userData = {
com.typemytype.robofont.layerData = {
};
};
width = 464;
},
{
background = {
anchors = (
{
name = ogonek;
pos = (247,0);
},
{
name = top;
pos = (232,1464);
}
);
shapes = (
{
closed = 1;
nodes = (
(305,0,l),
(305,1464,l),
(167,1464,l),
(167,0,l)
);
},
{
closed = 1;
nodes = (
(452,1708,l),
(452,1803,l),
(-2,1803,l),
(-2,1708,l)
);
}
);
};
layerId = "E322F6D1-BA90-436B-BB35-51D9BD3EA9D1";
shapes = (
{
ref = I;
},
{
pos = (-123,441);
ref = macroncomb;
}
);
userData = {
com.typemytype.robofont.layerData = {
b = {
anchors = (
);
components = (
);
contours = (
);
lib = {
};
name = Imacron;
unicodes = (
);
width = 464;
};
};
};
width = 464;
}
);
unicode = 298;
},
{
glyphname = Iogonek;
lastChange = "2023-02-02 13:10:15 +0000";
layers = (
{
background = {
anchors = (
{
name = ogonek;
pos = (237,0);
},
{
name = top;
pos = (232,1464);
}
);
shapes = (
{
closed = 1;
nodes = (
(323,0,l),
(323,1464,l),
(148,1464,l),
(148,0,l)
);
},
{
closed = 1;
nodes = (
(254,-379,o),
(282,-376,o),
(313,-368,c),
(313,-272,l),
(296,-276,o),
(282,-278,o),
(269,-278,cs),
(221,-278,o),
(205,-250,o),
(205,-212,cs),
(205,-154,o),
(244,-77,o),
(278,0,c),
(195,0,l),
(131,-80,o),
(64,-162,o),
(64,-244,cs),
(64,-309,o),
(115,-379,o),
(228,-379,cs)
);
}
);
};
layerId = "8E6A00A3-5EF9-4E6D-9A7B-9C1BBC7D44AD";
shapes = (
{
ref = I;
},
{
pos = (-53,0);
ref = ogonekcomb;
}
);
userData = {
com.typemytype.robofont.layerData = {
};
};
width = 464;
},
{
background = {
anchors = (
{
name = bot;
pos = (232,0);
},
{
name = ogonek;
pos = (232,0);
},
{
name = top;
pos = (232,1464);
}
);
shapes = (
{
closed = 1;
nodes = (
(350,0,l),
(350,1464,l),
(119,1464,l),
(119,0,l)
);
},
{
closed = 1;
nodes = (
(330,-257,l),
(247,-276,o),
(227,-244,o),
(227,-199,cs),
(227,-141,o),
(252,-83,o),
(287,0,c),
(182,0,l),
(119,-65,o),
(43,-151,o),
(43,-241,cs),
(43,-321,o),
(122,-431,o),
(330,-382,c)
);
}
);
};
layerId = "28683A17-BAD2-44EA-B42B-E882FFDD4FE1";
shapes = (
{
ref = I;
},
{
pos = (-74,0);
ref = ogonekcomb;
}
);
userData = {
com.typemytype.robofont.layerData = {
};
};
width = 464;
},
{
background = {
anchors = (
{
name = ogonek;
pos = (247,0);
},
{
name = top;
pos = (232,1464);
}
);
shapes = (
{
closed = 1;
nodes = (
(305,0,l),
(305,1464,l),
(167,1464,l),
(167,0,l)
);
},
{
closed = 1;
nodes = (
(254,-369,o),
(280,-366,o),
(308,-359,c),
(308,-282,l),
(291,-286,o),
(276,-288,o),
(264,-288,cs),
(214,-288,o),
(196,-260,o),
(196,-221,cs),
(196,-163,o),
(244,-73,o),
(278,0,c),
(210,0,l),
(144,-91,o),
(84,-168,o),
(84,-246,cs),
(84,-309,o),
(132,-369,o),
(232,-369,cs)
);
}
);
};
layerId = "E322F6D1-BA90-436B-BB35-51D9BD3EA9D1";
shapes = (
{
ref = I;
},
{
pos = (-33,0);
ref = ogonekcomb;
}
);
userData = {
com.typemytype.robofont.layerData = {
b = {
anchors = (
);
components = (
);
contours = (
);
lib = {
};
name = Iogonek;
unicodes = (
);
width = 464;
};
};
};
width = 464;
}
);
unicode = 302;
},
{
glyphname = Itilde;
lastChange = "2023-02-02 13:10:15 +0000";
layers = (
{
background = {
anchors = (
{
name = ogonek;
pos = (237,0);
},
{
name = top;
pos = (232,1464);
}
);
shapes = (
{
closed = 1;
nodes = (
(323,0,l),
(323,1464,l),
(148,1464,l),
(148,0,l)
);
},
{
closed = 1;
nodes = (
(463,1638,o),
(510,1685,o),
(510,1809,cs),
(510,1822,o),
(510,1836,o),
(509,1851,c),
(398,1851,l),
(398,1794,o),
(391,1763,o),
(362,1763,cs),
(305,1763,o),
(159,1852,o),
(62,1852,cs),
(9,1852,o),
(-57,1816,o),
(-57,1692,cs),
(-57,1676,o),
(-56,1659,o),
(-53,1640,c),
(56,1640,l),
(56,1700,o),
(73,1725,o),
(97,1725,c),
(177,1719,o),
(298,1638,o),
(400,1638,cs)
);
}
);
};
layerId = "8E6A00A3-5EF9-4E6D-9A7B-9C1BBC7D44AD";
shapes = (
{
ref = I;
},
{
pos = (-167,441);
ref = tildecomb;
}
);
userData = {
com.typemytype.robofont.layerData = {
};
};
width = 464;
},
{
background = {
anchors = (
{
name = bot;
pos = (232,0);
},
{
name = ogonek;
pos = (232,0);
},
{
name = top;
pos = (232,1464);
}
);
shapes = (
{
closed = 1;
nodes = (
(350,0,l),
(350,1464,l),
(119,1464,l),
(119,0,l)
);
},
{
closed = 1;
nodes = (
(490,1641,o),
(509,1766,o),
(509,1867,c),
(373,1867,l),
(369,1813,o),
(356,1799,o),
(330,1800,cs),
(248,1806,o),
(172,1871,o),
(41,1881,cs),
(-72,1888,o),
(-100,1786,o),
(-100,1689,cs),
(-100,1679,o),
(-99,1669,o),
(-99,1658,c),
(36,1658,l),
(40,1713,o),
(65,1731,o),
(89,1729,c),
(208,1713,o),
(259,1657,o),
(375,1649,cs)
);
}
);
};
layerId = "28683A17-BAD2-44EA-B42B-E882FFDD4FE1";
shapes = (
{
ref = I;
},
{
pos = (-200,441);
ref = tildecomb;
}
);
userData = {
com.typemytype.robofont.layerData = {
};
};
width = 464;
},
{
background = {
anchors = (
{
name = ogonek;
pos = (247,0);
},
{
name = top;
pos = (232,1464);
}
);
shapes = (
{
closed = 1;
nodes = (
(305,0,l),
(305,1464,l),
(167,1464,l),
(167,0,l)
);
},
{
closed = 1;
nodes = (
(42,1639,l),
(42,1699,o),
(54,1728,o),
(78,1728,c),
(132,1724,o),
(284,1642,o),
(376,1642,cs),
(433,1642,o),
(493,1661,o),
(493,1795,cs),
(493,1806,o),
(493,1817,o),
(492,1830,c),
(398,1830,l),
(398,1774,o),
(395,1732,o),
(363,1732,cs),
(323,1732,o),
(139,1825,o),
(66,1825,cs),
(22,1825,o),
(-53,1807,o),
(-53,1683,cs),
(-53,1670,o),
(-52,1655,o),
(-50,1639,c)
);
}
);
};
layerId = "E322F6D1-BA90-436B-BB35-51D9BD3EA9D1";
shapes = (
{
ref = I;
},
{
pos = (-167,441);
ref = tildecomb;
}
);
userData = {
com.typemytype.robofont.layerData = {
b = {
anchors = (
);
components = (
);
contours = (
);
lib = {
};
name = Itilde;
unicodes = (
);
width = 464;
};
};
};
width = 464;
}
);
unicode = 296;
},
{
glyphname = J;
kernLeft = _J_left;
lastChange = "2023-02-02 13:14:23 +0000";
layers = (
{
anchors = (
{
name = bottom;
pos = (499,0);
},
{
name = top;
pos = (773,1464);
}
);
background = {
anchors = (
{
name = top;
pos = (776,1464);
}
);
shapes = (
{
closed = 1;
nodes = (
(740,-23,o),
(861,166,o),
(861,544,cs),
(861,1464,l),
(686,1464,l),
(686,541,ls),
(686,294,o),
(653,120,o),
(435,119,cs),
(299,119,o),
(222,205,o),
(184,376,c),
(27,333,l),
(70,116,o),
(198,-23,o),
(426,-23,cs)
);
}
);
};
layerId = "8E6A00A3-5EF9-4E6D-9A7B-9C1BBC7D44AD";
shapes = (
{
closed = 1;
nodes = (
(740,-23,o),
(861,166,o),
(861,544,cs),
(861,1464,l),
(686,1464,l),
(686,541,ls),
(686,294,o),
(653,120,o),
(435,119,cs),
(299,119,o),
(222,205,o),
(184,376,c),
(27,333,l),
(70,116,o),
(198,-23,o),
(426,-23,cs)
);
}
);
userData = {
com.typemytype.robofont.layerData = {
};
};
vertWidth = 0;
width = 997;
},
{
anchors = (
{
name = bottom;
pos = (539,0);
},
{
name = top;
pos = (826,1464);
}
);
background = {
anchors = (
{
name = bot;
pos = (538.5,0);
},
{
name = top;
pos = (803,1464);
}
);
shapes = (
{
closed = 1;
nodes = (
(782,-19,o),
(941,166,o),
(941,544,cs),
(941,1464,l),
(710,1464,l),
(710,541,ls),
(710,270,o),
(644,167,o),
(470,168,cs),
(383,168,o),
(284,219,o),
(246,390,c),
(37,332,l),
(80,115,o),
(234,-19,o),
(465,-19,cs)
);
}
);
};
layerId = "28683A17-BAD2-44EA-B42B-E882FFDD4FE1";
shapes = (
{
closed = 1;
nodes = (
(782,-19,o),
(941,166,o),
(941,544,cs),
(941,1464,l),
(710,1464,l),
(710,541,ls),
(710,270,o),
(644,167,o),
(470,168,cs),
(383,168,o),
(284,219,o),
(246,390,c),
(37,332,l),
(80,115,o),
(234,-19,o),
(465,-19,cs)
);
}
);
userData = {
com.typemytype.robofont.layerData = {
};
};
vertWidth = 0;
width = 1077;
},
{
anchors = (
{
name = bottom;
pos = (472,0);
},
{
name = top;
pos = (738,1464);
}
);
background = {
anchors = (
{
name = top;
pos = (739,1464);
}
);
shapes = (
{
closed = 1;
nodes = (
(712,-26,o),
(807,166,o),
(807,544,cs),
(807,1464,l),
(670,1464,l),
(670,541,ls),
(670,309,o),
(658,89,o),
(412,87,cs),
(244,87,o),
(181,196,o),
(143,367,c),
(20,334,l),
(63,117,o),
(174,-26,o),
(400,-26,cs)
);
}
);
};
layerId = "E322F6D1-BA90-436B-BB35-51D9BD3EA9D1";
shapes = (
{
closed = 1;
nodes = (
(712,-26,o),
(807,166,o),
(807,544,cs),
(807,1464,l),
(670,1464,l),
(670,541,ls),
(670,309,o),
(658,89,o),
(412,87,cs),
(244,87,o),
(181,196,o),
(143,367,c),
(20,334,l),
(63,117,o),
(174,-26,o),
(400,-26,cs)
);
}
);
userData = {
com.typemytype.robofont.layerData = {
b = {
anchors = (
);
components = (
);
contours = (
);
lib = {
};
name = J;
unicodes = (
);
width = 943;
};
};
};
vertWidth = 0;
width = 943;
}
);
unicode = 74;
},
{
glyphname = Jcircumflex;
kernLeft = _J_left;
lastChange = "2023-02-02 13:14:02 +0000";
layers = (
{
background = {
anchors = (
{
name = top;
pos = (776,1464);
}
);
shapes = (
{
closed = 1;
nodes = (
(740,-23,o),
(861,166,o),
(861,544,cs),
(861,1464,l),
(686,1464,l),
(686,541,ls),
(686,294,o),
(653,120,o),
(435,119,cs),
(299,119,o),
(222,205,o),
(184,376,c),
(27,333,l),
(70,116,o),
(198,-23,o),
(426,-23,cs)
);
},
{
closed = 1;
nodes = (
(607,1595,l),
(768,1834,l),
(930,1595,l),
(1045,1595,l),
(872,1915,l),
(665,1915,l),
(492,1595,l)
);
}
);
};
layerId = "8E6A00A3-5EF9-4E6D-9A7B-9C1BBC7D44AD";
shapes = (
{
ref = J;
},
{
pos = (361,441);
ref = circumflexcomb;
}
);
userData = {
com.typemytype.robofont.layerData = {
};
};
width = 997;
},
{
background = {
anchors = (
{
name = bot;
pos = (538.5,0);
},
{
name = top;
pos = (803,1464);
}
);
shapes = (
{
closed = 1;
nodes = (
(782,-19,o),
(941,166,o),
(941,544,cs),
(941,1464,l),
(710,1464,l),
(710,541,ls),
(710,270,o),
(644,167,o),
(470,168,cs),
(383,168,o),
(284,219,o),
(246,390,c),
(37,332,l),
(80,115,o),
(234,-19,o),
(465,-19,cs)
);
},
{
closed = 1;
nodes = (
(677,1595,l),
(811,1808,l),
(947,1595,l),
(1096,1595,l),
(945,1915,l),
(678,1915,l),
(528,1595,l)
);
}
);
};
layerId = "28683A17-BAD2-44EA-B42B-E882FFDD4FE1";
shapes = (
{
ref = J;
},
{
pos = (398,441);
ref = circumflexcomb;
}
);
userData = {
com.typemytype.robofont.layerData = {
};
};
width = 1077;
},
{
background = {
anchors = (
{
name = top;
pos = (739,1464);
}
);
shapes = (
{
closed = 1;
nodes = (
(712,-26,o),
(807,166,o),
(807,544,cs),
(807,1464,l),
(670,1464,l),
(670,541,ls),
(670,309,o),
(658,89,o),
(412,87,cs),
(244,87,o),
(181,196,o),
(143,367,c),
(20,334,l),
(63,117,o),
(174,-26,o),
(400,-26,cs)
);
},
{
closed = 1;
nodes = (
(541,1595,l),
(720,1852,l),
(899,1595,l),
(992,1595,l),
(804,1915,l),
(637,1915,l),
(449,1595,l)
);
}
);
};
layerId = "E322F6D1-BA90-436B-BB35-51D9BD3EA9D1";
shapes = (
{
ref = J;
},
{
pos = (337,441);
ref = circumflexcomb;
}
);
userData = {
com.typemytype.robofont.layerData = {
b = {
anchors = (
);
components = (
);
contours = (
);
lib = {
};
name = Jcircumflex;
unicodes = (
);
width = 943;
};
};
};
width = 943;
}
);
unicode = 308;
},
{
glyphname = K;
kernRight = _K_right;
lastChange = "2023-02-02 13:10:15 +0000";
layers = (
{
anchors = (
{
name = bottom;
pos = (637,0);
},
{
name = top;
pos = (637,1464);
}
);
background = {
anchors = (
{
name = top;
pos = (637,1464);
}
);
shapes = (
{
closed = 1;
nodes = (
(321,0,l),
(321,545,l),
(563,795,l),
(1072,0,l),
(1272,0,l),
(683,918,l),
(1212,1464,l),
(1000,1464,l),
(321,754,l),
(321,1464,l),
(146,1464,l),
(146,0,l)
);
}
);
};
layerId = "8E6A00A3-5EF9-4E6D-9A7B-9C1BBC7D44AD";
shapes = (
{
closed = 1;
nodes = (
(321,0,l),
(321,545,l),
(563,795,l),
(1072,0,l),
(1272,0,l),
(683,918,l),
(1212,1464,l),
(1000,1464,l),
(321,754,l),
(321,1464,l),
(146,1464,l),
(146,0,l)
);
}
);
userData = {
anchors = (
);
b = {
};
com.typemytype.robofont.layerData = {
};
components = (
);
contours = {
};
lib = {
};
name = K;
points = {
};
segmentType = line;
unicodes = (
);
width = "1252";
x = "1003";
y = "1464";
};
vertWidth = 0;
width = 1274;
},
{
anchors = (
{
name = bottom;
pos = (654,0);
},
{
name = top;
pos = (654,1464);
}
);
background = {
anchors = (
{
name = bot;
pos = (653.5,0);
},
{
name = top;
pos = (653.5,1464);
}
);
shapes = (
{
closed = 1;
nodes = (
(365,0,l),
(365,536,l),
(580,759,l),
(1056,0,l),
(1317,0,l),
(738,922,l),
(1265,1464,l),
(987,1464,l),
(365,809,l),
(365,1464,l),
(134,1464,l),
(134,0,l)
);
}
);
};
layerId = "28683A17-BAD2-44EA-B42B-E882FFDD4FE1";
shapes = (
{
closed = 1;
nodes = (
(365,0,l),
(365,536,l),
(580,759,l),
(1056,0,l),
(1317,0,l),
(738,922,l),
(1265,1464,l),
(987,1464,l),
(365,809,l),
(365,1464,l),
(134,1464,l),
(134,0,l)
);
}
);
userData = {
anchors = (
);
b = {
};
com.typemytype.robofont.layerData = {
};
components = (
);
contours = {
};
lib = {
};
name = K;
points = {
};
segmentType = line;
unicodes = (
);
width = "1252";
x = "1003";
y = "1464";
};
vertWidth = 0;
width = 1307;
},
{
anchors = (
{
name = bottom;
pos = (626,0);
},
{
name = top;
pos = (626,1464);
}
);
background = {
anchors = (
{
name = top;
pos = (626,1464);
}
);
shapes = (
{
closed = 1;
nodes = (
(292,0,l),
(292,551,l),
(552,819,l),
(1083,0,l),
(1242,0,l),
(646,916,l),
(1177,1464,l),
(1009,1464,l),
(292,717,l),
(292,1464,l),
(154,1464,l),
(154,0,l)
);
}
);
};
layerId = "E322F6D1-BA90-436B-BB35-51D9BD3EA9D1";
shapes = (
{
closed = 1;
nodes = (
(292,0,l),
(292,551,l),
(552,819,l),
(1083,0,l),
(1242,0,l),
(646,916,l),
(1177,1464,l),
(1009,1464,l),
(292,717,l),
(292,1464,l),
(154,1464,l),
(154,0,l)
);
}
);
userData = {
anchors = (
);
b = {
};
com.typemytype.robofont.layerData = {
b = {
anchors = (
);
components = (
);
contours = (
);
lib = {
};
name = K;
unicodes = (
);
width = 1252;
};
};
components = (
);
contours = {
};
lib = {
};
name = K;
points = {
};
segmentType = line;
unicodes = (
);
width = "1252";
x = "1003";
y = "1464";
};
vertWidth = 0;
width = 1252;
}
);
unicode = 75;
},
{
glyphname = Kcaron;
kernRight = _K_right;
lastChange = "2023-02-02 13:10:15 +0000";
layers = (
{
background = {
anchors = (
{
name = top;
pos = (637,1464);
}
);
shapes = (
{
closed = 1;
nodes = (
(321,0,l),
(321,545,l),
(563,795,l),
(1072,0,l),
(1272,0,l),
(683,918,l),
(1212,1464,l),
(1000,1464,l),
(321,754,l),
(321,1464,l),
(146,1464,l),
(146,0,l)
);
},
{
closed = 1;
nodes = (
(746,1595,l),
(919,1915,l),
(804,1915,l),
(642,1676,l),
(481,1915,l),
(366,1915,l),
(539,1595,l)
);
}
);
};
layerId = "8E6A00A3-5EF9-4E6D-9A7B-9C1BBC7D44AD";
shapes = (
{
ref = K;
},
{
pos = (212,441);
ref = caroncomb;
}
);
width = 1274;
},
{
background = {
anchors = (
{
name = bot;
pos = (653.5,0);
},
{
name = top;
pos = (653.5,1464);
}
);
shapes = (
{
closed = 1;
nodes = (
(365,0,l),
(365,536,l),
(580,759,l),
(1056,0,l),
(1317,0,l),
(738,922,l),
(1265,1464,l),
(987,1464,l),
(365,809,l),
(365,1464,l),
(134,1464,l),
(134,0,l)
);
},
{
closed = 1;
nodes = (
(793,1595,l),
(944,1915,l),
(795,1915,l),
(659,1702,l),
(524,1915,l),
(376,1915,l),
(526,1595,l)
);
}
);
};
layerId = "28683A17-BAD2-44EA-B42B-E882FFDD4FE1";
shapes = (
{
ref = K;
},
{
pos = (229,441);
ref = caroncomb;
}
);
width = 1307;
},
{
background = {
anchors = (
{
name = top;
pos = (626,1464);
}
);
shapes = (
{
closed = 1;
nodes = (
(292,0,l),
(292,551,l),
(552,819,l),
(1083,0,l),
(1242,0,l),
(646,916,l),
(1177,1464,l),
(1009,1464,l),
(292,717,l),
(292,1464,l),
(154,1464,l),
(154,0,l)
);
},
{
closed = 1;
nodes = (
(715,1595,l),
(903,1915,l),
(811,1915,l),
(631,1659,l),
(453,1915,l),
(360,1915,l),
(548,1595,l)
);
}
);
};
layerId = "E322F6D1-BA90-436B-BB35-51D9BD3EA9D1";
shapes = (
{
ref = K;
},
{
pos = (201,441);
ref = caroncomb;
}
);
width = 1252;
}
);
unicode = 488;
},
{
glyphname = Kcommaaccent;
kernRight = _K_right;
lastChange = "2023-02-02 13:10:15 +0000";
layers = (
{
background = {
anchors = (
{
name = top;
pos = (637,1464);
}
);
shapes = (
{
closed = 1;
nodes = (
(321,0,l),
(321,545,l),
(563,795,l),
(1072,0,l),
(1272,0,l),
(683,918,l),
(1212,1464,l),
(1000,1464,l),
(321,754,l),
(321,1464,l),
(146,1464,l),
(146,0,l)
);
},
{
closed = 1;
nodes = (
(702,-544,o),
(754,-429,o),
(754,-278,cs),
(754,-124,l),
(526,-124,l),
(526,-321,l),
(640,-326,l),
(639,-388,o),
(611,-488,o),
(563,-526,c),
(619,-576,l)
);
}
);
};
layerId = "8E6A00A3-5EF9-4E6D-9A7B-9C1BBC7D44AD";
shapes = (
{
ref = K;
},
{
pos = (430,0);
ref = commaaccentcomb;
}
);
userData = {
com.typemytype.robofont.layerData = {
};
};
width = 1274;
},
{
background = {
anchors = (
{
name = bot;
pos = (653.5,0);
},
{
name = top;
pos = (653.5,1464);
}
);
shapes = (
{
closed = 1;
nodes = (
(365,0,l),
(365,536,l),
(580,759,l),
(1056,0,l),
(1317,0,l),
(738,922,l),
(1265,1464,l),
(987,1464,l),
(365,809,l),
(365,1464,l),
(134,1464,l),
(134,0,l)
);
}
);
};
layerId = "28683A17-BAD2-44EA-B42B-E882FFDD4FE1";
shapes = (
{
ref = K;
},
{
pos = (447,0);
ref = commaaccentcomb;
}
);
userData = {
com.typemytype.robofont.layerData = {
};
};
width = 1307;
},
{
background = {
anchors = (
{
name = top;
pos = (626,1464);
}
);
shapes = (
{
closed = 1;
nodes = (
(292,0,l),
(292,551,l),
(552,819,l),
(1083,0,l),
(1242,0,l),
(646,916,l),
(1177,1464,l),
(1009,1464,l),
(292,717,l),
(292,1464,l),
(154,1464,l),
(154,0,l)
);
}
);
};
layerId = "E322F6D1-BA90-436B-BB35-51D9BD3EA9D1";
shapes = (
{
ref = K;
},
{
pos = (419,0);
ref = commaaccentcomb;
}
);
userData = {
com.typemytype.robofont.layerData = {
b = {
anchors = (
);
components = (
);
contours = (
);
lib = {
};
name = Kcommaaccent;
unicodes = (
);
width = 1252;
};
};
};
width = 1252;
}
);
unicode = 310;
},
{
glyphname = L;
lastChange = "2023-02-02 13:10:15 +0000";
layers = (
{
anchors = (
{
name = bottom;
pos = (523,0);
},
{
name = center;
pos = (523,732);
},
{
name = top;
pos = (523,1464);
},
{
name = topright;
pos = (618,966);
}
);
background = {
anchors = (
{
name = caron.alt;
pos = (472,1023);
},
{
name = top;
pos = (522.5,1464);
}
);
shapes = (
{
closed = 1;
nodes = (
(1060,0,l),
(1060,133,l),
(321,133,l),
(321,1464,l),
(146,1464,l),
(146,0,l)
);
}
);
};
layerId = "8E6A00A3-5EF9-4E6D-9A7B-9C1BBC7D44AD";
shapes = (
{
closed = 1;
nodes = (
(1060,0,l),
(1060,133,l),
(321,133,l),
(321,1464,l),
(146,1464,l),
(146,0,l)
);
}
);
userData = {
anchors = (
);
b = {
};
com.typemytype.robofont.layerData = {
};
components = (
);
contours = {
};
lib = {
};
name = L;
points = {
};
segmentType = line;
unicodes = (
);
width = "1020";
x = "1041";
y = "112";
};
vertWidth = 0;
width = 1045;
},
{
anchors = (
{
name = bottom;
pos = (543,0);
},
{
name = center;
pos = (543,732);
},
{
name = top;
pos = (543,1464);
},
{
name = topright;
pos = (717,964);
}
);
background = {
anchors = (
{
name = bot;
pos = (542.5,0);
},
{
name = caron.alt;
pos = (562,1023);
},
{
name = mid;
pos = (542.5,1023);
},
{
name = top;
pos = (542.5,1464);
}
);
shapes = (
{
closed = 1;
nodes = (
(1089,0,l),
(1089,172,l),
(365,172,l),
(365,1464,l),
(134,1464,l),
(134,0,l)
);
}
);
};
layerId = "28683A17-BAD2-44EA-B42B-E882FFDD4FE1";
shapes = (
{
closed = 1;
nodes = (
(1089,0,l),
(1089,172,l),
(365,172,l),
(365,1464,l),
(134,1464,l),
(134,0,l)
);
}
);
userData = {
anchors = (
);
b = {
};
com.typemytype.robofont.layerData = {
};
components = (
);
contours = {
};
lib = {
};
name = L;
points = {
};
segmentType = line;
unicodes = (
);
width = "1020";
x = "1041";
y = "112";
};
vertWidth = 0;
width = 1085;
},
{
anchors = (
{
name = bottom;
pos = (510,0);
},
{
name = center;
pos = (510,732);
},
{
name = top;
pos = (510,1464);
},
{
name = topright;
pos = (556,968);
}
);
background = {
anchors = (
{
name = caron.alt;
pos = (412,1023);
},
{
name = top;
pos = (510,1464);
}
);
shapes = (
{
closed = 1;
nodes = (
(1041,0,l),
(1041,107,l),
(292,107,l),
(292,1464,l),
(154,1464,l),
(154,0,l)
);
}
);
};
layerId = "E322F6D1-BA90-436B-BB35-51D9BD3EA9D1";
shapes = (
{
closed = 1;
nodes = (
(1041,0,l),
(1041,107,l),
(292,107,l),
(292,1464,l),
(154,1464,l),
(154,0,l)
);
}
);
userData = {
anchors = (
);
b = {
};
com.typemytype.robofont.layerData = {
b = {
anchors = (
);
components = (
);
contours = (
);
lib = {
};
name = L;
unicodes = (
);
width = 1019;
};
};
components = (
);
contours = {
};
lib = {
};
name = L;
points = {
};
segmentType = line;
unicodes = (
);
width = "1020";
x = "1041";
y = "112";
};
vertWidth = 0;
width = 1019;
}
);
unicode = 76;
},
{
glyphname = LJ;
lastChange = "2023-02-02 13:10:15 +0000";
layers = (
{
background = {
anchors = (
{
name = caron.alt;
pos = (472,1023);
},
{
name = top;
pos = (522.5,1464);
}
);
shapes = (
{
closed = 1;
nodes = (
(1785,-23,o),
(1906,166,o),
(1906,544,cs),
(1906,1464,l),
(1731,1464,l),
(1731,541,ls),
(1731,294,o),
(1698,120,o),
(1480,119,cs),
(1344,119,o),
(1267,205,o),
(1229,376,c),
(1072,333,l),
(1115,116,o),
(1243,-23,o),
(1471,-23,cs)
);
},
{
closed = 1;
nodes = (
(1060,0,l),
(1060,133,l),
(321,133,l),
(321,1464,l),
(146,1464,l),
(146,0,l)
);
}
);
};
layerId = "8E6A00A3-5EF9-4E6D-9A7B-9C1BBC7D44AD";
shapes = (
{
ref = L;
},
{
pos = (1045,0);
ref = J;
}
);
width = 2042;
},
{
background = {
anchors = (
{
name = bot;
pos = (1619.5,0);
},
{
name = caron.alt;
pos = (1639,1023);
},
{
name = mid;
pos = (1619.5,1023);
},
{
name = top;
pos = (1619.5,1464);
}
);
shapes = (
{
closed = 1;
nodes = (
(782,-19,o),
(941,166,o),
(941,544,cs),
(941,1464,l),
(710,1464,l),
(710,541,ls),
(710,270,o),
(644,167,o),
(470,168,cs),
(383,168,o),
(284,219,o),
(246,390,c),
(37,332,l),
(80,115,o),
(234,-19,o),
(465,-19,cs)
);
},
{
closed = 1;
nodes = (
(2166,0,l),
(2166,172,l),
(1442,172,l),
(1442,1464,l),
(1211,1464,l),
(1211,0,l)
);
}
);
};
layerId = "28683A17-BAD2-44EA-B42B-E882FFDD4FE1";
shapes = (
{
ref = L;
},
{
pos = (1085,0);
ref = J;
}
);
width = 2162;
},
{
background = {
anchors = (
{
name = caron.alt;
pos = (412,1023);
},
{
name = top;
pos = (510,1464);
}
);
shapes = (
{
closed = 1;
nodes = (
(1731,-26,o),
(1826,166,o),
(1826,544,cs),
(1826,1464,l),
(1689,1464,l),
(1689,541,ls),
(1689,309,o),
(1677,89,o),
(1431,87,cs),
(1263,87,o),
(1200,196,o),
(1162,367,c),
(1039,334,l),
(1082,117,o),
(1193,-26,o),
(1419,-26,cs)
);
},
{
closed = 1;
nodes = (
(1041,0,l),
(1041,107,l),
(292,107,l),
(292,1464,l),
(154,1464,l),
(154,0,l)
);
}
);
};
layerId = "E322F6D1-BA90-436B-BB35-51D9BD3EA9D1";
shapes = (
{
ref = L;
},
{
pos = (1019,0);
ref = J;
}
);
width = 1962;
}
);
unicode = 455;
},
{
glyphname = Lacute;
lastChange = "2023-02-02 13:10:15 +0000";
layers = (
{
background = {
anchors = (
{
name = caron.alt;
pos = (472,1023);
},
{
name = top;
pos = (522.5,1464);
}
);
shapes = (
{
closed = 1;
nodes = (
(1060,0,l),
(1060,133,l),
(321,133,l),
(321,1464,l),
(146,1464,l),
(146,0,l)
);
},
{
closed = 1;
nodes = (
(859,1911,l),
(626,1911,l),
(422,1592,l),
(535,1591,l)
);
}
);
};
layerId = "8E6A00A3-5EF9-4E6D-9A7B-9C1BBC7D44AD";
shapes = (
{
ref = L;
},
{
pos = (377,441);
ref = acutecomb;
}
);
userData = {
com.typemytype.robofont.layerData = {
};
};
width = 1045;
},
{
background = {
anchors = (
{
name = bot;
pos = (542.5,0);
},
{
name = caron.alt;
pos = (562,1023);
},
{
name = mid;
pos = (542.5,1023);
},
{
name = top;
pos = (542.5,1464);
}
);
shapes = (
{
closed = 1;
nodes = (
(1089,0,l),
(1089,172,l),
(365,172,l),
(365,1464,l),
(134,1464,l),
(134,0,l)
);
},
{
closed = 1;
nodes = (
(578,1584,l),
(935,1904,l),
(631,1904,l),
(429,1583,l)
);
}
);
};
layerId = "28683A17-BAD2-44EA-B42B-E882FFDD4FE1";
shapes = (
{
ref = L;
},
{
pos = (436,441);
ref = acutecomb;
}
);
userData = {
com.typemytype.robofont.layerData = {
};
};
width = 1085;
},
{
background = {
anchors = (
{
name = caron.alt;
pos = (412,1023);
},
{
name = top;
pos = (510,1464);
}
);
shapes = (
{
closed = 1;
nodes = (
(1041,0,l),
(1041,107,l),
(292,107,l),
(292,1464,l),
(154,1464,l),
(154,0,l)
);
},
{
closed = 1;
nodes = (
(795,1916,l),
(609,1916,l),
(404,1597,l),
(493,1596,l)
);
}
);
};
layerId = "E322F6D1-BA90-436B-BB35-51D9BD3EA9D1";
shapes = (
{
ref = L;
},
{
pos = (321,441);
ref = acutecomb;
}
);
userData = {
com.typemytype.robofont.layerData = {
b = {
anchors = (
);
components = (
);
contours = (
);
lib = {
};
name = Lacute;
unicodes = (
);
width = 1019;
};
};
};
width = 1019;
}
);
unicode = 313;
},
{
glyphname = Lcaron;
lastChange = "2023-02-02 13:10:15 +0000";
layers = (
{
background = {
anchors = (
{
name = caron.alt;
pos = (472,1023);
},
{
name = top;
pos = (522.5,1464);
}
);
shapes = (
{
closed = 1;
nodes = (
(1060,0,l),
(1060,133,l),
(321,133,l),
(321,1464,l),
(146,1464,l),
(146,0,l)
);
},
{
closed = 1;
nodes = (
(851,1157,o),
(851,1296,o),
(856,1454,c),
(856,1539,l),
(636,1539,l),
(636,1349,l),
(730,1336,l),
(727,1215,o),
(675,1148,o),
(650,1128,c),
(709,1066,l)
);
}
);
};
layerId = "8E6A00A3-5EF9-4E6D-9A7B-9C1BBC7D44AD";
shapes = (
{
ref = L;
},
{
pos = (211,-57);
ref = caroncomb.alt;
}
);
userData = {
com.typemytype.robofont.layerData = {
};
};
width = 1045;
},
{
background = {
anchors = (
{
name = bot;
pos = (542.5,0);
},
{
name = caron.alt;
pos = (562,1023);
},
{
name = mid;
pos = (542.5,1023);
},
{
name = top;
pos = (542.5,1464);
}
);
shapes = (
{
closed = 1;
nodes = (
(1089,0,l),
(1089,172,l),
(365,172,l),
(365,1464,l),
(134,1464,l),
(134,0,l)
);
},
{
closed = 1;
nodes = (
(941,1157,o),
(941,1296,o),
(946,1454,c),
(946,1539,l),
(726,1539,l),
(726,1349,l),
(820,1336,l),
(817,1215,o),
(765,1148,o),
(740,1128,c),
(799,1066,l)
);
}
);
};
layerId = "28683A17-BAD2-44EA-B42B-E882FFDD4FE1";
shapes = (
{
ref = L;
},
{
pos = (310,-59);
ref = caroncomb.alt;
}
);
userData = {
com.typemytype.robofont.layerData = {
};
};
width = 1085;
},
{
background = {
anchors = (
{
name = caron.alt;
pos = (412,1023);
},
{
name = top;
pos = (510,1464);
}
);
shapes = (
{
closed = 1;
nodes = (
(1041,0,l),
(1041,107,l),
(292,107,l),
(292,1464,l),
(154,1464,l),
(154,0,l)
);
},
{
closed = 1;
nodes = (
(791,1157,o),
(791,1296,o),
(796,1454,c),
(796,1539,l),
(576,1539,l),
(576,1349,l),
(670,1336,l),
(667,1215,o),
(615,1148,o),
(590,1128,c),
(649,1066,l)
);
}
);
};
layerId = "E322F6D1-BA90-436B-BB35-51D9BD3EA9D1";
shapes = (
{
ref = L;
},
{
pos = (149,-55);
ref = caroncomb.alt;
}
);
userData = {
com.typemytype.robofont.layerData = {
b = {
anchors = (
);
components = (
);
contours = (
);
lib = {
};
name = Lcaron;
unicodes = (
);
width = 1019;
};
};
};
width = 1019;
}
);
unicode = 317;
},
